STARTFONT 2.1
COMMENT
COMMENT Converted from OpenType font "MFLanSong_Noncommercial-Regular.ttf" by "otf2bdf 3.0".
COMMENT
FONT -FreeType-MF LanSong(Noncommercial)-Medium-R-Normal--22-160-100-100-P-152-ISO10646-1
SIZE 16 100 100
FONTBOUNDINGBOX 17 29 0 -7
STARTPROPERTIES 19
FOUNDRY "FreeType"
FAMILY_NAME "MF LanSong(Noncommercial)"
WEIGHT_NAME "Medium"
SLANT "R"
SETWIDTH_NAME "Normal"
ADD_STYLE_NAME ""
PIXEL_SIZE 22
POINT_SIZE 160
RESOLUTION_X 100
RESOLUTION_Y 100
SPACING "P"
AVERAGE_WIDTH 152
CHARSET_REGISTRY "ISO10646"
CHARSET_ENCODING "1"
FONT_ASCENT 19
FONT_DESCENT 6
COPYRIGHT "© 2020SN. All rights reserved."
_OTF_FONTFILE "MFLanSong_Noncommercial-Regular.ttf"
_OTF_PSNAME "MF LanSong(Noncommercial)-Regular"
ENDPROPERTIES
CHARS 7256
STARTCHAR 0000
ENCODING 0
SWIDTH 270 0
DWIDTH 6 0
BBX 0 0 0 0
BITMAP
ENDCHAR
STARTCHAR 0001
ENCODING 1
SWIDTH 270 0
DWIDTH 6 0
BBX 0 0 0 0
BITMAP
ENDCHAR
STARTCHAR 0002
ENCODING 2
SWIDTH 270 0
DWIDTH 6 0
BBX 0 0 0 0
BITMAP
ENDCHAR
STARTCHAR 0003
ENCODING 3
SWIDTH 270 0
DWIDTH 6 0
BBX 0 0 0 0
BITMAP
ENDCHAR
STARTCHAR 0004
ENCODING 4
SWIDTH 270 0
DWIDTH 6 0
BBX 0 0 0 0
BITMAP
ENDCHAR
STARTCHAR 0005
ENCODING 5
SWIDTH 270 0
DWIDTH 6 0
BBX 0 0 0 0
BITMAP
ENDCHAR
STARTCHAR 0006
ENCODING 6
SWIDTH 270 0
DWIDTH 6 0
BBX 0 0 0 0
BITMAP
ENDCHAR
STARTCHAR 0007
ENCODING 7
SWIDTH 270 0
DWIDTH 6 0
BBX 0 0 0 0
BITMAP
ENDCHAR
STARTCHAR 000A
ENCODING 10
SWIDTH 270 0
DWIDTH 6 0
BBX 0 0 0 0
BITMAP
ENDCHAR
STARTCHAR 000B
ENCODING 11
SWIDTH 270 0
DWIDTH 6 0
BBX 0 0 0 0
BITMAP
ENDCHAR
STARTCHAR 000C
ENCODING 12
SWIDTH 270 0
DWIDTH 6 0
BBX 0 0 0 0
BITMAP
ENDCHAR
STARTCHAR 000E
ENCODING 14
SWIDTH 270 0
DWIDTH 6 0
BBX 0 0 0 0
BITMAP
ENDCHAR
STARTCHAR 000F
ENCODING 15
SWIDTH 270 0
DWIDTH 6 0
BBX 0 0 0 0
BITMAP
ENDCHAR
STARTCHAR 0010
ENCODING 16
SWIDTH 270 0
DWIDTH 6 0
BBX 0 0 0 0
BITMAP
ENDCHAR
STARTCHAR 0011
ENCODING 17
SWIDTH 270 0
DWIDTH 6 0
BBX 0 0 0 0
BITMAP
ENDCHAR
STARTCHAR 0012
ENCODING 18
SWIDTH 270 0
DWIDTH 6 0
BBX 0 0 0 0
BITMAP
ENDCHAR
STARTCHAR 0013
ENCODING 19
SWIDTH 270 0
DWIDTH 6 0
BBX 0 0 0 0
BITMAP
ENDCHAR
STARTCHAR 0014
ENCODING 20
SWIDTH 270 0
DWIDTH 6 0
BBX 0 0 0 0
BITMAP
ENDCHAR
STARTCHAR 0015
ENCODING 21
SWIDTH 270 0
DWIDTH 6 0
BBX 0 0 0 0
BITMAP
ENDCHAR
STARTCHAR 0016
ENCODING 22
SWIDTH 270 0
DWIDTH 6 0
BBX 0 0 0 0
BITMAP
ENDCHAR
STARTCHAR 0017
ENCODING 23
SWIDTH 270 0
DWIDTH 6 0
BBX 0 0 0 0
BITMAP
ENDCHAR
STARTCHAR 0018
ENCODING 24
SWIDTH 270 0
DWIDTH 6 0
BBX 0 0 0 0
BITMAP
ENDCHAR
STARTCHAR 0019
ENCODING 25
SWIDTH 270 0
DWIDTH 6 0
BBX 0 0 0 0
BITMAP
ENDCHAR
STARTCHAR 001A
ENCODING 26
SWIDTH 270 0
DWIDTH 6 0
BBX 0 0 0 0
BITMAP
ENDCHAR
STARTCHAR 001B
ENCODING 27
SWIDTH 270 0
DWIDTH 6 0
BBX 0 0 0 0
BITMAP
ENDCHAR
STARTCHAR 001C
ENCODING 28
SWIDTH 270 0
DWIDTH 6 0
BBX 0 0 0 0
BITMAP
ENDCHAR
STARTCHAR 001D
ENCODING 29
SWIDTH 270 0
DWIDTH 6 0
BBX 0 0 0 0
BITMAP
ENDCHAR
STARTCHAR 001E
ENCODING 30
SWIDTH 270 0
DWIDTH 6 0
BBX 0 0 0 0
BITMAP
ENDCHAR
STARTCHAR 001F
ENCODING 31
SWIDTH 270 0
DWIDTH 6 0
BBX 0 0 0 0
BITMAP
ENDCHAR
STARTCHAR 0020
ENCODING 32
SWIDTH 270 0
DWIDTH 6 0
BBX 0 0 0 0
BITMAP
ENDCHAR
STARTCHAR 0021
ENCODING 33
SWIDTH 45 0
DWIDTH 1 0
BBX 1 20 0 -1
BITMAP
80
80
80
80
80
80
80
80
80
80
80
80
80
80
80
80
00
00
00
80
ENDCHAR
STARTCHAR 0022
ENCODING 34
SWIDTH 225 0
DWIDTH 5 0
BBX 4 4 0 15
BITMAP
50
50
A0
A0
ENDCHAR
STARTCHAR 0023
ENCODING 35
SWIDTH 630 0
DWIDTH 14 0
BBX 12 19 1 -1
BITMAP
0440
0440
0440
0440
7FF0
0880
0880
0880
1880
1100
1100
FFE0
1100
3100
2100
2200
2200
2200
4200
ENDCHAR
STARTCHAR 0024
ENCODING 36
SWIDTH 450 0
DWIDTH 10 0
BBX 9 20 0 -2
BITMAP
0800
0800
7E00
4900
8980
8800
8800
4800
3800
0C00
0B00
0980
0880
8880
8880
8880
6900
3E00
0800
0800
ENDCHAR
STARTCHAR 0025
ENCODING 37
SWIDTH 630 0
DWIDTH 14 0
BBX 12 19 1 -1
BITMAP
0040
7040
D8C0
8880
8880
8900
D900
7100
0200
0200
0400
04E0
05B0
0910
0910
1110
11B0
20E0
2000
ENDCHAR
STARTCHAR 0026
ENCODING 38
SWIDTH 540 0
DWIDTH 12 0
BBX 10 19 1 -1
BITMAP
3C00
4200
8100
8100
8100
C300
4200
2C00
1800
3800
6C80
4680
8280
8180
8080
8080
C1C0
6340
3C40
ENDCHAR
STARTCHAR 0027
ENCODING 39
SWIDTH 90 0
DWIDTH 2 0
BBX 2 4 0 15
BITMAP
40
40
80
80
ENDCHAR
STARTCHAR 0028
ENCODING 40
SWIDTH 225 0
DWIDTH 5 0
BBX 3 20 1 0
BITMAP
20
60
40
40
40
80
80
80
80
80
80
80
80
80
80
40
40
60
20
20
ENDCHAR
STARTCHAR 0029
ENCODING 41
SWIDTH 225 0
DWIDTH 5 0
BBX 3 20 1 0
BITMAP
80
C0
40
40
40
20
20
20
20
20
20
20
20
20
40
40
40
C0
80
80
ENDCHAR
STARTCHAR 002A
ENCODING 42
SWIDTH 270 0
DWIDTH 6 0
BBX 4 5 1 14
BITMAP
20
F0
20
60
50
ENDCHAR
STARTCHAR 002B
ENCODING 43
SWIDTH 495 0
DWIDTH 11 0
BBX 11 13 0 1
BITMAP
0400
0400
0400
0400
0400
FFE0
0400
0400
0400
0400
0400
0400
0400
ENDCHAR
STARTCHAR 002C
ENCODING 44
SWIDTH 90 0
DWIDTH 2 0
BBX 2 4 0 -3
BITMAP
40
40
80
80
ENDCHAR
STARTCHAR 002D
ENCODING 45
SWIDTH 585 0
DWIDTH 13 0
BBX 11 1 1 8
BITMAP
FFE0
ENDCHAR
STARTCHAR 002E
ENCODING 46
SWIDTH 135 0
DWIDTH 3 0
BBX 1 1 1 -1
BITMAP
80
ENDCHAR
STARTCHAR 002F
ENCODING 47
SWIDTH 225 0
DWIDTH 5 0
BBX 4 19 1 -1
BITMAP
10
10
10
20
20
20
20
20
20
40
40
40
40
40
80
80
80
80
80
ENDCHAR
STARTCHAR 0030
ENCODING 48
SWIDTH 495 0
DWIDTH 11 0
BBX 9 19 1 -1
BITMAP
1C00
2200
4100
4100
8180
8080
8080
8080
8080
8080
8080
8080
8080
8080
8100
4100
4100
2200
1C00
ENDCHAR
STARTCHAR 0031
ENCODING 49
SWIDTH 270 0
DWIDTH 6 0
BBX 6 19 0 -1
BITMAP
E0
20
20
20
20
20
20
20
20
20
20
20
20
20
20
20
20
20
FC
ENDCHAR
STARTCHAR 0032
ENCODING 50
SWIDTH 495 0
DWIDTH 11 0
BBX 9 19 1 -1
BITMAP
3C00
4200
C100
8100
8100
8100
0100
0200
0200
0400
0C00
1800
3000
2000
4000
4000
8000
8000
FF80
ENDCHAR
STARTCHAR 0033
ENCODING 51
SWIDTH 495 0
DWIDTH 11 0
BBX 9 19 1 -1
BITMAP
1C00
6300
4100
8080
8080
0080
0080
0100
0300
1E00
0100
0080
0080
8080
8080
8080
4100
6300
1C00
ENDCHAR
STARTCHAR 0034
ENCODING 52
SWIDTH 450 0
DWIDTH 10 0
BBX 10 19 0 0
BITMAP
1200
1200
1200
2200
2200
2200
2200
4200
4200
4200
8200
8200
FFC0
0200
0200
0200
0200
0200
0200
ENDCHAR
STARTCHAR 0035
ENCODING 53
SWIDTH 495 0
DWIDTH 11 0
BBX 9 19 1 -1
BITMAP
4000
4000
7F80
4000
4000
4000
4000
4000
7C00
0300
0100
0080
0080
8080
8080
8080
4100
6300
3C00
ENDCHAR
STARTCHAR 0036
ENCODING 54
SWIDTH 495 0
DWIDTH 11 0
BBX 9 19 1 -1
BITMAP
1E00
2100
4100
4080
8080
8000
8000
9C00
A300
C100
C080
8080
8080
8080
8080
8080
4100
2300
1E00
ENDCHAR
STARTCHAR 0037
ENCODING 55
SWIDTH 450 0
DWIDTH 10 0
BBX 9 18 1 -1
BITMAP
FF80
0080
0180
0100
0100
0100
0200
0200
0200
0400
0400
0400
0800
0800
0800
1800
1000
1000
ENDCHAR
STARTCHAR 0038
ENCODING 56
SWIDTH 540 0
DWIDTH 12 0
BBX 10 19 1 -1
BITMAP
1E00
6300
C180
8080
8080
8080
C180
6300
3E00
3600
4100
8080
8040
8040
8040
8040
4080
2100
1E00
ENDCHAR
STARTCHAR 0039
ENCODING 57
SWIDTH 495 0
DWIDTH 11 0
BBX 9 19 1 -1
BITMAP
1C00
6300
4100
8080
8080
8080
8080
8080
4180
6380
1C80
0080
0080
0080
8100
8100
4100
6200
3C00
ENDCHAR
STARTCHAR 003A
ENCODING 58
SWIDTH 45 0
DWIDTH 1 0
BBX 1 12 0 1
BITMAP
80
00
00
00
00
00
00
00
00
00
00
80
ENDCHAR
STARTCHAR 003B
ENCODING 59
SWIDTH 45 0
DWIDTH 1 0
BBX 1 13 0 -1
BITMAP
80
00
00
00
00
00
00
00
00
00
80
80
80
ENDCHAR
STARTCHAR 003C
ENCODING 60
SWIDTH 450 0
DWIDTH 10 0
BBX 9 12 0 1
BITMAP
0080
0300
0C00
1800
6000
C000
6000
3000
0800
0600
0100
0080
ENDCHAR
STARTCHAR 003D
ENCODING 61
SWIDTH 585 0
DWIDTH 13 0
BBX 11 6 1 5
BITMAP
FFE0
0000
0000
0000
0000
FFE0
ENDCHAR
STARTCHAR 003E
ENCODING 62
SWIDTH 495 0
DWIDTH 11 0
BBX 9 12 1 1
BITMAP
8000
6000
1800
0C00
0300
0180
0300
0600
1800
3000
4000
8000
ENDCHAR
STARTCHAR 003F
ENCODING 63
SWIDTH 405 0
DWIDTH 9 0
BBX 9 20 0 -1
BITMAP
1E00
2300
4180
4080
8080
0080
0080
0100
0300
0600
0400
0800
0800
0800
0800
0800
0000
0000
0000
0800
ENDCHAR
STARTCHAR 0040
ENCODING 64
SWIDTH 720 0
DWIDTH 16 0
BBX 14 19 1 -1
BITMAP
0F80
1860
2010
6008
4708
48C8
9044
9044
9044
9044
9044
90C4
88C8
4738
4000
6008
2010
1860
07C0
ENDCHAR
STARTCHAR 0041
ENCODING 65
SWIDTH 585 0
DWIDTH 13 0
BBX 11 19 1 -1
BITMAP
0400
0400
0A00
0A00
0A00
1200
1100
1100
1100
3F80
2080
2080
4080
4040
4040
4040
8020
8020
8020
ENDCHAR
STARTCHAR 0042
ENCODING 66
SWIDTH 495 0
DWIDTH 11 0
BBX 9 19 1 -1
BITMAP
FC00
8300
8100
8080
8080
8080
8080
8180
8300
FE00
8300
8100
8080
8080
8080
8080
8180
8300
FE00
ENDCHAR
STARTCHAR 0043
ENCODING 67
SWIDTH 495 0
DWIDTH 11 0
BBX 9 19 1 -1
BITMAP
1E00
2300
4100
4180
8080
8000
8000
8000
8000
8000
8000
8000
8080
8080
8080
4080
4100
2300
1E00
ENDCHAR
STARTCHAR 0044
ENCODING 68
SWIDTH 495 0
DWIDTH 11 0
BBX 9 19 1 -1
BITMAP
F800
8600
8200
8100
8100
8080
8080
8080
8080
8080
8080
8080
8080
8080
8100
8100
8200
8600
F800
ENDCHAR
STARTCHAR 0045
ENCODING 69
SWIDTH 450 0
DWIDTH 10 0
BBX 9 19 1 -1
BITMAP
FF00
8000
8000
8000
8000
8000
8000
8000
FF00
8000
8000
8000
8000
8000
8000
8000
8000
8000
FF80
ENDCHAR
STARTCHAR 0046
ENCODING 70
SWIDTH 450 0
DWIDTH 10 0
BBX 8 19 1 -1
BITMAP
FF
80
80
80
80
80
80
80
80
FF
80
80
80
80
80
80
80
80
80
ENDCHAR
STARTCHAR 0047
ENCODING 71
SWIDTH 540 0
DWIDTH 12 0
BBX 10 19 1 -1
BITMAP
1E00
3100
6080
4080
4000
8000
8000
8000
8000
83C0
8040
8040
8080
8080
4080
4080
4080
2180
1E00
ENDCHAR
STARTCHAR 0048
ENCODING 72
SWIDTH 495 0
DWIDTH 11 0
BBX 9 19 1 -1
BITMAP
8080
8080
8080
8080
8080
8080
8080
8080
FF80
8080
8080
8080
8080
8080
8080
8080
8080
8080
8080
ENDCHAR
STARTCHAR 0049
ENCODING 73
SWIDTH 315 0
DWIDTH 7 0
BBX 7 19 0 -1
BITMAP
FC
10
10
10
10
10
10
10
10
10
10
10
10
10
10
10
10
10
FE
ENDCHAR
STARTCHAR 004A
ENCODING 74
SWIDTH 315 0
DWIDTH 7 0
BBX 6 19 0 -1
BITMAP
04
04
04
04
04
04
04
04
04
04
04
04
04
04
84
84
84
48
78
ENDCHAR
STARTCHAR 004B
ENCODING 75
SWIDTH 495 0
DWIDTH 11 0
BBX 9 19 1 -1
BITMAP
8080
8100
8300
8200
8400
8800
9800
9000
A800
C800
C400
8400
8200
8200
8300
8100
8100
8080
8080
ENDCHAR
STARTCHAR 004C
ENCODING 76
SWIDTH 405 0
DWIDTH 9 0
BBX 7 19 1 -1
BITMAP
80
80
80
80
80
80
80
80
80
80
80
80
80
80
80
80
80
80
FE
ENDCHAR
STARTCHAR 004D
ENCODING 77
SWIDTH 585 0
DWIDTH 13 0
BBX 11 19 1 -1
BITMAP
8020
8020
C060
C060
C060
A0A0
A0A0
A0A0
9120
9120
9120
8A20
8A20
8A20
8E20
8420
8020
8020
8020
ENDCHAR
STARTCHAR 004E
ENCODING 78
SWIDTH 495 0
DWIDTH 11 0
BBX 9 19 1 -1
BITMAP
8080
C080
C080
C080
A080
A080
9080
9080
8880
8880
8C80
8480
8480
8280
8280
8180
8180
8180
8080
ENDCHAR
STARTCHAR 004F
ENCODING 79
SWIDTH 540 0
DWIDTH 12 0
BBX 10 19 1 -1
BITMAP
1E00
2100
4080
4080
4080
8040
8040
8040
8040
8040
8040
8040
8040
8040
4080
4080
4080
2100
1E00
ENDCHAR
STARTCHAR 0050
ENCODING 80
SWIDTH 450 0
DWIDTH 10 0
BBX 9 19 1 -1
BITMAP
FE00
8100
8080
8080
8080
8080
8080
8080
8100
FE00
8000
8000
8000
8000
8000
8000
8000
8000
8000
ENDCHAR
STARTCHAR 0051
ENCODING 81
SWIDTH 585 0
DWIDTH 13 0
BBX 11 20 1 -2
BITMAP
1E00
2100
6180
4080
4080
8040
8040
8040
8040
8040
8040
8040
8040
8040
4380
4180
4180
2140
1E60
0020
ENDCHAR
STARTCHAR 0052
ENCODING 82
SWIDTH 540 0
DWIDTH 12 0
BBX 9 19 1 -1
BITMAP
FE00
8100
8080
8080
8080
8080
8080
8100
FE00
8800
8C00
8400
8200
8200
8100
8100
8080
8080
8000
ENDCHAR
STARTCHAR 0053
ENCODING 83
SWIDTH 540 0
DWIDTH 12 0
BBX 10 19 1 -1
BITMAP
1E00
2180
4080
4040
4040
4000
6000
3000
0C00
0300
0080
0040
0040
8040
8040
8040
4080
6180
1E00
ENDCHAR
STARTCHAR 0054
ENCODING 84
SWIDTH 450 0
DWIDTH 10 0
BBX 10 19 0 -1
BITMAP
FFC0
0800
0800
0800
0800
0800
0800
0800
0800
0800
0800
0800
0800
0800
0800
0800
0800
0800
0800
ENDCHAR
STARTCHAR 0055
ENCODING 85
SWIDTH 540 0
DWIDTH 12 0
BBX 10 19 1 -1
BITMAP
8040
8040
8040
8040
8040
8040
8040
8040
8040
8040
8040
8040
8040
8040
8040
8040
4080
6180
1E00
ENDCHAR
STARTCHAR 0056
ENCODING 86
SWIDTH 495 0
DWIDTH 11 0
BBX 10 19 1 -1
BITMAP
8040
8080
8080
8080
4080
4100
4100
4100
2100
2300
2200
2200
1200
1400
1400
1400
1400
0800
0800
ENDCHAR
STARTCHAR 0057
ENCODING 87
SWIDTH 765 0
DWIDTH 17 0
BBX 15 19 1 -1
BITMAP
8002
8102
8102
8282
4284
4284
4284
4284
4444
444C
2448
2448
2C48
2828
2828
1830
1830
1810
1010
ENDCHAR
STARTCHAR 0058
ENCODING 88
SWIDTH 585 0
DWIDTH 13 0
BBX 11 18 1 0
BITMAP
4040
60C0
2080
3180
1100
1B00
0A00
0400
0400
0A00
0A00
1100
1100
2080
2080
4040
4040
8020
ENDCHAR
STARTCHAR 0059
ENCODING 89
SWIDTH 495 0
DWIDTH 11 0
BBX 9 19 1 -1
BITMAP
8080
8080
4100
4100
2200
2600
1400
1C00
0800
0800
0800
0800
0800
0800
0800
0800
0800
0800
0800
ENDCHAR
STARTCHAR 005A
ENCODING 90
SWIDTH 495 0
DWIDTH 11 0
BBX 10 19 1 -1
BITMAP
FFC0
00C0
0080
0180
0100
0300
0200
0400
0400
0800
0800
1000
1000
2000
2000
4000
4000
8000
FFC0
ENDCHAR
STARTCHAR 005B
ENCODING 91
SWIDTH 225 0
DWIDTH 5 0
BBX 4 21 1 -3
BITMAP
F0
80
80
80
80
80
80
80
80
80
80
80
80
80
80
80
80
80
80
80
F0
ENDCHAR
STARTCHAR 005C
ENCODING 92
SWIDTH 225 0
DWIDTH 5 0
BBX 4 21 1 -4
BITMAP
80
80
80
80
80
80
40
40
40
40
40
40
20
20
20
20
20
10
10
10
10
ENDCHAR
STARTCHAR 005D
ENCODING 93
SWIDTH 225 0
DWIDTH 5 0
BBX 4 21 0 -3
BITMAP
F0
10
10
10
10
10
10
10
10
10
10
10
10
10
10
10
10
10
10
10
F0
ENDCHAR
STARTCHAR 005E
ENCODING 94
SWIDTH 360 0
DWIDTH 8 0
BBX 6 7 1 12
BITMAP
30
30
50
48
C8
8C
84
ENDCHAR
STARTCHAR 005F
ENCODING 95
SWIDTH 585 0
DWIDTH 13 0
BBX 11 1 1 -2
BITMAP
FFE0
ENDCHAR
STARTCHAR 0060
ENCODING 96
SWIDTH 135 0
DWIDTH 3 0
BBX 3 3 0 16
BITMAP
80
40
20
ENDCHAR
STARTCHAR 0061
ENCODING 97
SWIDTH 450 0
DWIDTH 10 0
BBX 8 13 1 -1
BITMAP
3D
43
43
81
81
81
81
81
81
81
43
47
3D
ENDCHAR
STARTCHAR 0062
ENCODING 98
SWIDTH 405 0
DWIDTH 9 0
BBX 8 19 1 -1
BITMAP
80
80
80
80
80
80
BC
C2
C2
81
81
81
81
81
81
81
C2
E6
BC
ENDCHAR
STARTCHAR 0063
ENCODING 99
SWIDTH 450 0
DWIDTH 10 0
BBX 8 13 1 -1
BITMAP
3C
62
42
81
80
80
80
80
81
81
43
62
3C
ENDCHAR
STARTCHAR 0064
ENCODING 100
SWIDTH 405 0
DWIDTH 9 0
BBX 8 19 0 -1
BITMAP
01
01
01
01
01
01
3D
67
43
81
81
81
81
81
81
81
43
67
3D
ENDCHAR
STARTCHAR 0065
ENCODING 101
SWIDTH 450 0
DWIDTH 10 0
BBX 8 13 1 -1
BITMAP
3C
66
42
81
81
81
FF
80
81
81
42
42
3C
ENDCHAR
STARTCHAR 0066
ENCODING 102
SWIDTH 450 0
DWIDTH 10 0
BBX 9 19 0 -1
BITMAP
0F00
1180
1080
1000
1000
1000
FF80
1000
1000
1000
1000
1000
1000
1000
1000
1000
1000
1000
1000
ENDCHAR
STARTCHAR 0067
ENCODING 103
SWIDTH 450 0
DWIDTH 10 0
BBX 8 19 1 -7
BITMAP
3D
47
43
81
81
81
81
81
81
81
43
47
3D
01
01
81
81
42
3C
ENDCHAR
STARTCHAR 0068
ENCODING 104
SWIDTH 405 0
DWIDTH 9 0
BBX 8 19 1 -1
BITMAP
80
80
80
80
80
80
BC
C2
81
81
81
81
81
81
81
81
81
81
81
ENDCHAR
STARTCHAR 0069
ENCODING 105
SWIDTH 45 0
DWIDTH 1 0
BBX 1 19 0 -1
BITMAP
80
00
00
00
00
00
80
80
80
80
80
80
80
80
80
80
80
80
80
ENDCHAR
STARTCHAR 006A
ENCODING 106
SWIDTH 270 0
DWIDTH 6 0
BBX 5 25 0 -7
BITMAP
08
00
00
00
00
00
08
08
08
08
08
08
08
08
08
08
08
08
08
08
08
88
88
88
70
ENDCHAR
STARTCHAR 006B
ENCODING 107
SWIDTH 405 0
DWIDTH 9 0
BBX 8 19 1 -1
BITMAP
80
80
80
80
80
80
83
84
88
90
A8
C8
84
84
84
82
82
81
81
ENDCHAR
STARTCHAR 006C
ENCODING 108
SWIDTH 135 0
DWIDTH 3 0
BBX 1 19 1 -1
BITMAP
80
80
80
80
80
80
80
80
80
80
80
80
80
80
80
80
80
80
80
ENDCHAR
STARTCHAR 006D
ENCODING 109
SWIDTH 585 0
DWIDTH 13 0
BBX 11 13 1 -1
BITMAP
B9C0
CA40
8420
8420
8420
8420
8420
8420
8420
8420
8420
8420
8420
ENDCHAR
STARTCHAR 006E
ENCODING 110
SWIDTH 450 0
DWIDTH 10 0
BBX 8 13 1 -1
BITMAP
BC
C2
81
81
81
81
81
81
81
81
81
81
81
ENDCHAR
STARTCHAR 006F
ENCODING 111
SWIDTH 450 0
DWIDTH 10 0
BBX 8 13 1 -1
BITMAP
3C
66
42
81
81
81
81
81
81
81
42
66
3C
ENDCHAR
STARTCHAR 0070
ENCODING 112
SWIDTH 450 0
DWIDTH 10 0
BBX 8 19 1 -7
BITMAP
BC
E2
C2
81
81
81
81
81
81
81
C2
E6
BC
80
80
80
80
80
80
ENDCHAR
STARTCHAR 0071
ENCODING 113
SWIDTH 450 0
DWIDTH 10 0
BBX 8 19 1 -7
BITMAP
3D
43
43
81
81
81
81
81
81
81
43
67
3D
01
01
01
01
01
01
ENDCHAR
STARTCHAR 0072
ENCODING 114
SWIDTH 360 0
DWIDTH 8 0
BBX 6 13 1 -1
BITMAP
84
88
90
E0
C0
80
80
80
80
80
80
80
80
ENDCHAR
STARTCHAR 0073
ENCODING 115
SWIDTH 405 0
DWIDTH 9 0
BBX 7 13 1 -1
BITMAP
78
C6
82
80
C0
70
1C
06
02
02
82
44
38
ENDCHAR
STARTCHAR 0074
ENCODING 116
SWIDTH 315 0
DWIDTH 7 0
BBX 7 17 0 -1
BITMAP
20
20
20
20
20
FE
20
20
20
20
20
20
20
22
22
22
1C
ENDCHAR
STARTCHAR 0075
ENCODING 117
SWIDTH 405 0
DWIDTH 9 0
BBX 7 13 1 -1
BITMAP
82
82
82
82
82
82
82
82
82
82
82
46
3A
ENDCHAR
STARTCHAR 0076
ENCODING 118
SWIDTH 450 0
DWIDTH 10 0
BBX 8 13 1 -1
BITMAP
81
81
81
42
42
42
64
24
24
28
18
18
18
ENDCHAR
STARTCHAR 0077
ENCODING 119
SWIDTH 630 0
DWIDTH 14 0
BBX 12 13 1 0
BITMAP
8410
8610
8610
4620
4A20
4920
4920
4920
3140
30C0
30C0
30C0
3080
ENDCHAR
STARTCHAR 0078
ENCODING 120
SWIDTH 495 0
DWIDTH 11 0
BBX 9 13 1 -1
BITMAP
4100
4100
2200
3600
1400
0800
1C00
1400
2200
6300
4100
8080
8080
ENDCHAR
STARTCHAR 0079
ENCODING 121
SWIDTH 450 0
DWIDTH 10 0
BBX 8 19 1 -7
BITMAP
81
81
81
81
81
81
81
81
81
81
83
43
3D
01
01
81
81
42
3C
ENDCHAR
STARTCHAR 007A
ENCODING 122
SWIDTH 450 0
DWIDTH 10 0
BBX 8 13 1 -1
BITMAP
FF
03
02
04
04
08
18
10
20
60
40
80
FF
ENDCHAR
STARTCHAR 007B
ENCODING 123
SWIDTH 180 0
DWIDTH 4 0
BBX 4 21 0 -3
BITMAP
30
40
40
40
40
40
40
40
40
40
80
40
40
40
40
40
40
40
40
40
30
ENDCHAR
STARTCHAR 007C
ENCODING 124
SWIDTH 135 0
DWIDTH 3 0
BBX 1 22 1 -2
BITMAP
80
80
80
80
80
80
80
80
80
80
80
80
80
80
80
80
80
80
80
80
80
80
ENDCHAR
STARTCHAR 007D
ENCODING 125
SWIDTH 180 0
DWIDTH 4 0
BBX 4 21 0 -3
BITMAP
C0
20
20
20
20
20
20
20
20
20
10
20
20
20
20
20
20
20
20
20
C0
ENDCHAR
STARTCHAR 007E
ENCODING 126
SWIDTH 450 0
DWIDTH 10 0
BBX 8 2 1 6
BITMAP
71
8F
ENDCHAR
STARTCHAR 00A0
ENCODING 160
SWIDTH 270 0
DWIDTH 6 0
BBX 0 0 0 0
BITMAP
ENDCHAR
STARTCHAR 00A5
ENCODING 165
SWIDTH 405 0
DWIDTH 9 0
BBX 9 19 0 -1
BITMAP
4100
4100
2200
2200
1400
1C00
FF80
0800
0800
0800
0800
0800
FF80
0800
0800
0800
0800
0800
0800
ENDCHAR
STARTCHAR 00A9
ENCODING 169
SWIDTH 675 0
DWIDTH 15 0
BBX 13 19 1 -1
BITMAP
0F80
1040
2020
4010
4710
4890
9048
9048
9008
9008
9008
9048
8848
4890
4710
4010
2020
1040
0F80
ENDCHAR
STARTCHAR 00B0
ENCODING 176
SWIDTH 270 0
DWIDTH 6 0
BBX 4 4 1 15
BITMAP
60
90
90
60
ENDCHAR
STARTCHAR 00B7
ENCODING 183
SWIDTH 765 0
DWIDTH 17 0
BBX 1 1 8 6
BITMAP
80
ENDCHAR
STARTCHAR 2014
ENCODING 8212
SWIDTH 810 0
DWIDTH 18 0
BBX 12 1 3 6
BITMAP
FFF0
ENDCHAR
STARTCHAR 2018
ENCODING 8216
SWIDTH 765 0
DWIDTH 17 0
BBX 2 3 14 16
BITMAP
40
80
80
ENDCHAR
STARTCHAR 2019
ENCODING 8217
SWIDTH 765 0
DWIDTH 17 0
BBX 2 4 1 15
BITMAP
40
40
80
80
ENDCHAR
STARTCHAR 201C
ENCODING 8220
SWIDTH 720 0
DWIDTH 16 0
BBX 4 4 11 15
BITMAP
40
90
A0
A0
ENDCHAR
STARTCHAR 201D
ENCODING 8221
SWIDTH 720 0
DWIDTH 16 0
BBX 4 4 0 15
BITMAP
50
50
A0
A0
ENDCHAR
STARTCHAR 2022
ENCODING 8226
SWIDTH 765 0
DWIDTH 17 0
BBX 1 1 8 6
BITMAP
80
ENDCHAR
STARTCHAR 2026
ENCODING 8230
SWIDTH 765 0
DWIDTH 17 0
BBX 15 1 1 6
BITMAP
8102
ENDCHAR
STARTCHAR 205D
ENCODING 8285
SWIDTH 720 0
DWIDTH 16 0
BBX 1 13 5 5
BITMAP
80
00
00
00
00
00
80
00
00
00
00
00
80
ENDCHAR
STARTCHAR 20AC
ENCODING 8364
SWIDTH 540 0
DWIDTH 12 0
BBX 11 18 0 0
BITMAP
0380
0440
0820
0820
1000
1000
FFE0
1000
1000
1000
FFE0
1000
1000
0800
0820
0820
0440
0380
ENDCHAR
STARTCHAR 2122
ENCODING 8482
SWIDTH 495 0
DWIDTH 11 0
BBX 9 5 1 14
BITMAP
FD80
4D80
4D80
4A80
4880
ENDCHAR
STARTCHAR 22EF
ENCODING 8943
SWIDTH 765 0
DWIDTH 17 0
BBX 15 1 1 6
BITMAP
8102
ENDCHAR
STARTCHAR 2F00
ENCODING 12032
SWIDTH 720 0
DWIDTH 16 0
BBX 14 1 1 10
BITMAP
FFFC
ENDCHAR
STARTCHAR 2F01
ENCODING 12033
SWIDTH 765 0
DWIDTH 17 0
BBX 1 22 8 -2
BITMAP
80
80
80
80
80
80
80
80
80
80
80
80
80
80
80
80
80
80
80
80
80
80
ENDCHAR
STARTCHAR 2F02
ENCODING 12034
SWIDTH 720 0
DWIDTH 16 0
BBX 4 6 6 7
BITMAP
80
40
40
20
30
10
ENDCHAR
STARTCHAR 2F03
ENCODING 12035
SWIDTH 765 0
DWIDTH 17 0
BBX 6 21 3 -2
BITMAP
04
04
04
04
04
04
04
04
04
04
04
04
04
08
08
08
10
10
20
40
80
ENDCHAR
STARTCHAR 2F04
ENCODING 12036
SWIDTH 765 0
DWIDTH 17 0
BBX 13 20 3 -2
BITMAP
7FE0
0060
0040
0080
0080
0100
0100
0200
0400
0400
0800
0800
1000
2000
2000
4000
4000
8000
8008
7FF8
ENDCHAR
STARTCHAR 2F06
ENCODING 12038
SWIDTH 765 0
DWIDTH 17 0
BBX 15 17 1 -1
BITMAP
7FF8
0000
0000
0000
0000
0000
0000
0000
0000
0000
0000
0000
0000
0000
0000
0000
FFFE
ENDCHAR
STARTCHAR 2F07
ENCODING 12039
SWIDTH 810 0
DWIDTH 18 0
BBX 16 5 1 15
BITMAP
0100
0100
0100
0100
FFFF
ENDCHAR
STARTCHAR 2F08
ENCODING 12040
SWIDTH 720 0
DWIDTH 16 0
BBX 14 22 1 -2
BITMAP
0200
0200
0200
0200
0200
0200
0200
0600
0500
0500
0500
0480
0880
0840
0840
1060
1020
1030
2010
4018
4008
8004
ENDCHAR
STARTCHAR 2F09
ENCODING 12041
SWIDTH 765 0
DWIDTH 17 0
BBX 14 21 2 -2
BITMAP
1080
1080
1080
1080
1080
1080
1080
1080
1080
1080
1080
1080
2080
2080
2080
2080
4080
4080
8080
8088
007C
ENDCHAR
STARTCHAR 2F0A
ENCODING 12042
SWIDTH 765 0
DWIDTH 17 0
BBX 15 20 1 -1
BITMAP
0100
0100
0100
0100
0180
0180
0180
0140
0240
0240
0620
0420
0410
0810
0810
1008
2008
4004
4006
8002
ENDCHAR
STARTCHAR 2F0B
ENCODING 12043
SWIDTH 765 0
DWIDTH 17 0
BBX 15 20 1 -1
BITMAP
0480
0440
0440
0440
0440
0440
0420
0820
0820
0820
0810
0810
1010
1018
1008
2008
200C
4004
4004
8002
ENDCHAR
STARTCHAR 2F0C
ENCODING 12044
SWIDTH 720 0
DWIDTH 16 0
BBX 12 20 2 -3
BITMAP
FFF0
8010
8010
8010
8010
8010
8010
8010
8010
8010
8010
8010
8010
8010
8010
8010
8010
8010
8010
8010
ENDCHAR
STARTCHAR 2F0D
ENCODING 12045
SWIDTH 765 0
DWIDTH 17 0
BBX 13 3 2 14
BITMAP
FFF8
8008
8008
ENDCHAR
STARTCHAR 2F0E
ENCODING 12046
SWIDTH 765 0
DWIDTH 17 0
BBX 4 16 1 2
BITMAP
80
80
40
20
20
00
00
00
00
10
10
20
20
40
C0
80
ENDCHAR
STARTCHAR 2F0F
ENCODING 12047
SWIDTH 765 0
DWIDTH 17 0
BBX 15 20 1 -2
BITMAP
1FC0
1040
1040
1040
1040
1040
1040
1040
1040
1040
1040
1040
2040
2040
2040
2040
4040
4040
8044
803E
ENDCHAR
STARTCHAR 2F10
ENCODING 12048
SWIDTH 765 0
DWIDTH 17 0
BBX 13 18 2 0
BITMAP
8008
8008
8008
8008
8008
8008
8008
8008
8008
8008
8008
8008
8008
8008
8008
8008
8008
FFF8
ENDCHAR
STARTCHAR 2F11
ENCODING 12049
SWIDTH 765 0
DWIDTH 17 0
BBX 14 20 1 -2
BITMAP
3FFC
0204
0204
0204
0204
0204
0204
0204
0404
0404
0404
0404
0404
0804
0804
1004
1004
2004
4004
8004
ENDCHAR
STARTCHAR 2F12
ENCODING 12050
SWIDTH 765 0
DWIDTH 17 0
BBX 13 21 2 -2
BITMAP
0400
0400
0400
0400
7FF8
0408
0408
0408
0408
0408
0408
0808
0808
0808
0808
1008
1008
2008
4008
4008
8008
ENDCHAR
STARTCHAR 2F13
ENCODING 12051
SWIDTH 765 0
DWIDTH 17 0
BBX 13 21 1 -2
BITMAP
1000
1000
1000
3FF8
2008
2008
4008
8008
8008
0008
0008
0008
0008
0008
0008
0008
0008
0008
0008
0008
0008
ENDCHAR
STARTCHAR 2F14
ENCODING 12052
SWIDTH 720 0
DWIDTH 16 0
BBX 11 21 4 -2
BITMAP
8000
8000
8000
8000
8040
8080
8100
8200
8400
8800
B000
C000
8000
8000
8000
8000
8000
8000
8000
8040
FFE0
ENDCHAR
STARTCHAR 2F15
ENCODING 12053
SWIDTH 720 0
DWIDTH 16 0
BBX 13 19 2 -1
BITMAP
FFF8
8000
8000
8000
8000
8000
8000
8000
8000
8000
8000
8000
8000
8000
8000
8000
8000
8000
FFF8
ENDCHAR
STARTCHAR 2F17
ENCODING 12055
SWIDTH 765 0
DWIDTH 17 0
BBX 15 22 1 -2
BITMAP
0100
0100
0100
0100
0100
0100
0100
0100
0100
FFFE
0100
0100
0100
0100
0100
0100
0100
0100
0100
0100
0100
0100
ENDCHAR
STARTCHAR 2F18
ENCODING 12056
SWIDTH 765 0
DWIDTH 17 0
BBX 8 22 7 -2
BITMAP
80
80
80
80
80
80
80
A0
90
88
84
82
81
80
80
80
80
80
80
80
80
80
ENDCHAR
STARTCHAR 2F19
ENCODING 12057
SWIDTH 765 0
DWIDTH 17 0
BBX 6 19 9 -2
BITMAP
FC
84
84
84
84
84
84
84
84
84
84
84
84
84
84
80
80
80
80
ENDCHAR
STARTCHAR 2F1A
ENCODING 12058
SWIDTH 765 0
DWIDTH 17 0
BBX 15 20 1 -3
BITMAP
1FFE
1000
1000
1000
1000
1000
1000
1000
1000
1000
1000
1000
2000
2000
2000
2000
4000
4000
4000
8000
ENDCHAR
STARTCHAR 2F1B
ENCODING 12059
SWIDTH 720 0
DWIDTH 16 0
BBX 14 21 1 -2
BITMAP
0200
0200
0200
0400
0400
0400
0400
0800
0800
0800
0800
1040
1040
2020
2010
2010
4008
4018
81E8
FE04
0004
ENDCHAR
STARTCHAR 2F1C
ENCODING 12060
SWIDTH 765 0
DWIDTH 17 0
BBX 16 20 0 -2
BITMAP
7FF8
1010
1010
1010
0830
0820
0460
0440
02C0
0280
0180
0180
0380
0640
0460
0830
1018
200C
4006
8001
ENDCHAR
STARTCHAR 2F1D
ENCODING 12061
SWIDTH 765 0
DWIDTH 17 0
BBX 11 18 3 -1
BITMAP
FFE0
8020
8020
8020
8020
8020
8020
8020
8020
8020
8020
8020
8020
8020
8020
8020
8020
FFE0
ENDCHAR
STARTCHAR 2F1E
ENCODING 12062
SWIDTH 765 0
DWIDTH 17 0
BBX 13 19 2 -1
BITMAP
FFF8
8008
8008
8008
8008
8008
8008
8008
8008
8008
8008
8008
8008
8008
8008
8008
8008
8008
FFF8
ENDCHAR
STARTCHAR 2F1F
ENCODING 12063
SWIDTH 765 0
DWIDTH 17 0
BBX 15 20 1 0
BITMAP
0100
0100
0100
0100
0100
0100
7FF8
0100
0100
0100
0100
0100
0100
0100
0100
0100
0100
0100
0100
FFFE
ENDCHAR
STARTCHAR 2F20
ENCODING 12064
SWIDTH 810 0
DWIDTH 18 0
BBX 14 20 2 0
BITMAP
0200
0200
0200
0200
0200
0200
0200
FFFC
0200
0200
0200
0200
0200
0200
0200
0200
0200
0200
0200
FFF8
ENDCHAR
STARTCHAR 2F21
ENCODING 12065
SWIDTH 810 0
DWIDTH 18 0
BBX 16 22 1 -3
BITMAP
0400
0400
0400
0C00
0FF8
0810
1810
1830
1420
2460
4240
42C0
0180
0180
0380
0640
0420
0810
100C
2006
4003
8000
ENDCHAR
STARTCHAR 2F23
ENCODING 12067
SWIDTH 720 0
DWIDTH 16 0
BBX 13 22 1 -3
BITMAP
0400
0400
0400
0FF8
0808
0818
1010
1010
2030
3020
4820
4440
8240
0280
0180
0100
0200
0600
0C00
1800
2000
4000
ENDCHAR
STARTCHAR 2F24
ENCODING 12068
SWIDTH 765 0
DWIDTH 17 0
BBX 14 22 2 -1
BITMAP
0200
0200
0200
0200
0200
0200
FFFC
0200
0200
0300
0300
0300
0480
0480
0440
0840
0860
1020
2010
4018
800C
0004
ENDCHAR
STARTCHAR 2F25
ENCODING 12069
SWIDTH 765 0
DWIDTH 17 0
BBX 15 21 1 -2
BITMAP
0200
0200
0200
0400
0400
FFFE
0820
0820
0860
0840
1040
1040
1080
0C80
0300
0380
02C0
0420
0810
3008
4004
ENDCHAR
STARTCHAR 2F26
ENCODING 12070
SWIDTH 765 0
DWIDTH 17 0
BBX 15 20 1 -3
BITMAP
1FF0
0030
0020
0040
00C0
0080
0100
0100
FFFE
0100
0100
0100
0100
0100
0100
0100
0100
0100
0100
0100
ENDCHAR
STARTCHAR 2F27
ENCODING 12071
SWIDTH 675 0
DWIDTH 15 0
BBX 13 6 1 13
BITMAP
0200
0200
FFF8
8008
8008
8008
ENDCHAR
STARTCHAR 2F28
ENCODING 12072
SWIDTH 765 0
DWIDTH 17 0
BBX 15 22 1 -2
BITMAP
0040
0040
0040
0040
0040
0040
FFFE
0040
0040
0040
2040
1040
0840
0C40
0440
0040
0040
0040
0040
0040
0040
0040
ENDCHAR
STARTCHAR 2F29
ENCODING 12073
SWIDTH 720 0
DWIDTH 16 0
BBX 14 22 1 -2
BITMAP
0100
0100
0100
0100
0100
0100
0900
0920
1110
1110
2108
2108
4104
8104
8100
0100
0100
0100
0100
0100
0100
0100
ENDCHAR
STARTCHAR 2F2A
ENCODING 12074
SWIDTH 720 0
DWIDTH 16 0
BBX 15 21 1 -1
BITMAP
0400
0400
0400
0400
0400
FFFC
0480
0480
0480
0480
0480
0880
0880
0880
0880
1080
1080
2080
4080
8084
007E
ENDCHAR
STARTCHAR 2F2B
ENCODING 12075
SWIDTH 765 0
DWIDTH 17 0
BBX 14 20 1 -2
BITMAP
1FFC
1004
1004
1004
1004
1004
1FFC
1000
1000
1000
1000
1000
1000
2000
2000
2000
4000
4000
8000
8000
ENDCHAR
STARTCHAR 2F2C
ENCODING 12076
SWIDTH 765 0
DWIDTH 17 0
BBX 13 22 2 -2
BITMAP
0200
0200
0200
0200
8208
8208
8208
8208
8208
8208
8208
8208
FFF8
0200
0200
0200
0200
0200
0200
0200
0200
0200
ENDCHAR
STARTCHAR 2F2D
ENCODING 12077
SWIDTH 720 0
DWIDTH 16 0
BBX 11 20 2 0
BITMAP
0400
0400
0400
0400
0400
8420
8420
8420
8420
8420
8420
8420
8420
8420
8420
8420
8420
8420
8420
FFE0
ENDCHAR
STARTCHAR 2F2E
ENCODING 12078
SWIDTH 765 0
DWIDTH 17 0
BBX 13 21 2 -2
BITMAP
0880
1988
1988
1118
1110
2310
2220
4220
4440
8440
8880
8880
8440
4440
4220
2220
2310
1110
1110
1988
1988
ENDCHAR
STARTCHAR 2F2F
ENCODING 12079
SWIDTH 720 0
DWIDTH 16 0
BBX 14 19 1 -1
BITMAP
7FF8
0100
0100
0100
0100
0100
0100
0100
0100
0100
0100
0100
0100
0100
0100
0100
0100
0100
FFFC
ENDCHAR
STARTCHAR 2F30
ENCODING 12080
SWIDTH 720 0
DWIDTH 16 0
BBX 12 19 3 -1
BITMAP
FFC0
0040
0040
0040
0040
0040
0040
FFC0
8000
8000
8000
8000
8000
8000
8000
8000
8000
8020
7FF0
ENDCHAR
STARTCHAR 2F31
ENCODING 12081
SWIDTH 675 0
DWIDTH 15 0
BBX 11 22 2 -2
BITMAP
0400
0400
0400
0400
0400
FFE0
8420
8420
8420
8420
8420
8420
8420
8420
8420
8420
8420
8420
0400
0400
0400
0400
ENDCHAR
STARTCHAR 2F32
ENCODING 12082
SWIDTH 765 0
DWIDTH 17 0
BBX 15 20 1 -2
BITMAP
3FF8
0100
0100
0100
0100
0100
0100
FFFE
0100
0100
0100
0100
0100
0100
0100
0100
0100
0100
0100
0100
ENDCHAR
STARTCHAR 2F33
ENCODING 12083
SWIDTH 720 0
DWIDTH 16 0
BBX 12 21 2 -1
BITMAP
0400
0C00
0800
0800
1000
1000
2080
4100
4100
FE00
E200
0400
0400
0800
1840
1040
2020
4020
83F0
FC10
0010
ENDCHAR
STARTCHAR 2F34
ENCODING 12084
SWIDTH 720 0
DWIDTH 16 0
BBX 14 20 1 -2
BITMAP
0080
0080
0080
3FFC
2000
2000
2000
2000
2000
2000
2000
2000
2000
2000
4000
4000
4000
4000
8000
8000
ENDCHAR
STARTCHAR 2F35
ENCODING 12085
SWIDTH 765 0
DWIDTH 17 0
BBX 15 20 1 -2
BITMAP
7800
0800
1000
1000
1000
2000
2000
3800
0800
0800
0800
0800
5000
5000
3000
3000
3000
4C00
83FE
8000
ENDCHAR
STARTCHAR 2F36
ENCODING 12086
SWIDTH 765 0
DWIDTH 17 0
BBX 15 21 1 -1
BITMAP
0820
0820
0820
0820
0820
0820
0820
0820
FFFE
0820
0820
0820
0820
0820
1020
1020
1020
2020
2020
4020
8020
ENDCHAR
STARTCHAR 2F37
ENCODING 12087
SWIDTH 810 0
DWIDTH 18 0
BBX 16 21 1 -1
BITMAP
0200
0220
0210
0208
0200
023E
1FF0
FB00
0100
0100
0100
0100
0180
0080
0080
0040
0040
0020
0010
0008
0007
ENDCHAR
STARTCHAR 2F38
ENCODING 12088
SWIDTH 765 0
DWIDTH 17 0
BBX 12 20 2 -3
BITMAP
FFE0
0020
0020
0020
0020
7FE0
4000
4000
4000
4000
7FF0
0010
0010
0010
0010
0010
0010
0010
0010
0010
ENDCHAR
STARTCHAR 2F39
ENCODING 12089
SWIDTH 765 0
DWIDTH 17 0
BBX 11 19 3 -1
BITMAP
FFE0
0020
0020
0020
0020
0020
0020
0020
0020
7FE0
0020
0020
0020
0020
0020
0020
0020
0020
FFE0
ENDCHAR
STARTCHAR 2F3A
ENCODING 12090
SWIDTH 765 0
DWIDTH 17 0
BBX 12 21 3 -2
BITMAP
0080
0100
0200
0C00
1000
2000
0000
0060
00C0
0300
0600
1800
6000
0000
0010
0060
00C0
0300
0C00
3000
C000
ENDCHAR
STARTCHAR 2F3B
ENCODING 12091
SWIDTH 765 0
DWIDTH 17 0
BBX 6 21 0 -2
BITMAP
08
08
10
20
44
08
08
10
30
50
90
10
10
10
10
10
10
10
10
10
10
ENDCHAR
STARTCHAR 2F3C
ENCODING 12092
SWIDTH 765 0
DWIDTH 17 0
BBX 14 20 2 1
BITMAP
0200
0100
0180
0080
0880
0800
0800
0810
4810
4808
8808
8808
8804
8804
0800
0800
0800
0820
0820
0FF0
ENDCHAR
STARTCHAR 2F3D
ENCODING 12093
SWIDTH 810 0
DWIDTH 18 0
BBX 16 21 1 -1
BITMAP
0240
0220
0210
0210
0200
023E
1FF0
FB00
0100
0108
0118
0110
01A0
00A0
00C0
00C0
0140
0220
0C30
3008
0007
ENDCHAR
STARTCHAR 2F3F
ENCODING 12095
SWIDTH 765 0
DWIDTH 17 0
BBX 15 21 1 -2
BITMAP
0030
01E0
3F00
0100
0100
0100
3FF0
0100
0100
0100
0100
FFFE
0100
0100
0100
0100
0100
0100
0100
0100
0100
ENDCHAR
STARTCHAR 2F40
ENCODING 12096
SWIDTH 765 0
DWIDTH 17 0
BBX 15 22 1 -3
BITMAP
0100
0100
0100
FFFE
0100
0100
0100
3FF0
1030
0820
0820
0440
02C0
0280
0100
0280
0440
0820
1018
200C
4002
8000
ENDCHAR
STARTCHAR 2F41
ENCODING 12097
SWIDTH 720 0
DWIDTH 16 0
BBX 14 21 2 -2
BITMAP
0200
0200
0200
03F8
0200
0200
0200
7FE0
2060
1040
10C0
0880
0580
0500
0200
0500
0880
1040
2020
4018
800C
ENDCHAR
STARTCHAR 2F42
ENCODING 12098
SWIDTH 720 0
DWIDTH 16 0
BBX 14 21 1 -2
BITMAP
0200
0200
0200
FFFC
2040
1040
10C0
1080
0880
0980
0500
0700
0200
0700
0500
0880
10C0
1060
2030
4018
800C
ENDCHAR
STARTCHAR 2F43
ENCODING 12099
SWIDTH 765 0
DWIDTH 17 0
BBX 14 22 2 -2
BITMAP
0080
0080
2080
1080
0880
0480
4480
2080
3080
1880
0080
00FC
1F80
F080
0080
0080
0080
0080
0080
0080
0080
0080
ENDCHAR
STARTCHAR 2F44
ENCODING 12100
SWIDTH 765 0
DWIDTH 17 0
BBX 15 22 1 -2
BITMAP
0008
0070
1F80
1000
1000
1000
1000
1000
1FFE
1020
1020
1020
1020
1020
2020
2020
2020
2020
4020
4020
8020
0020
ENDCHAR
STARTCHAR 2F45
ENCODING 12101
SWIDTH 765 0
DWIDTH 17 0
BBX 15 22 1 -2
BITMAP
0100
0100
0100
FFFE
0800
0800
0800
0800
0FF0
0810
0810
0810
0810
0810
1010
1010
1010
2010
2010
4010
4010
8010
ENDCHAR
STARTCHAR 2F46
ENCODING 12102
SWIDTH 765 0
DWIDTH 17 0
BBX 15 20 1 -2
BITMAP
3FF8
0100
0100
0100
0100
0100
7FFE
0140
0240
0240
0240
0240
0440
0440
0840
0840
1042
2042
407E
8000
ENDCHAR
STARTCHAR 2F47
ENCODING 12103
SWIDTH 720 0
DWIDTH 16 0
BBX 10 19 3 -1
BITMAP
FFC0
8040
8040
8040
8040
8040
8040
8040
FFC0
8040
8040
8040
8040
8040
8040
8040
8040
8040
FFC0
ENDCHAR
STARTCHAR 2F48
ENCODING 12104
SWIDTH 765 0
DWIDTH 17 0
BBX 11 19 3 -1
BITMAP
FFE0
8020
8020
8020
8020
8020
8020
8020
8020
FFA0
8020
8020
8020
8020
8020
8020
8020
8020
FFE0
ENDCHAR
STARTCHAR 2F49
ENCODING 12105
SWIDTH 765 0
DWIDTH 17 0
BBX 13 20 1 -2
BITMAP
1FF8
1008
1008
1008
1008
1008
1FF8
1008
1008
1008
1008
1FF8
1008
2008
2008
2008
2008
4008
4008
8008
ENDCHAR
STARTCHAR 2F4A
ENCODING 12106
SWIDTH 765 0
DWIDTH 17 0
BBX 16 22 0 -3
BITMAP
0100
0100
0100
0100
7FFE
0540
0540
0920
0920
0920
0920
0910
1110
1118
1108
210C
2104
4106
4103
8101
0100
0100
ENDCHAR
STARTCHAR 2F4B
ENCODING 12107
SWIDTH 720 0
DWIDTH 16 0
BBX 14 21 1 -2
BITMAP
1000
1000
1000
3FF8
2018
2210
4220
8220
8200
0200
0500
0500
0480
0480
0840
0860
1020
1030
2018
4008
000C
ENDCHAR
STARTCHAR 2F4C
ENCODING 12108
SWIDTH 765 0
DWIDTH 17 0
BBX 15 21 1 -2
BITMAP
0080
0080
0080
0080
0080
1080
1080
1080
10FC
1080
1080
1080
1080
1080
1080
1080
1080
1080
1080
1080
FFFE
ENDCHAR
STARTCHAR 2F4D
ENCODING 12109
SWIDTH 720 0
DWIDTH 16 0
BBX 14 20 1 -2
BITMAP
FFFC
0400
0C00
0800
0FF0
1810
1030
1020
3020
2860
4440
84C0
0280
0180
0300
0200
0400
1800
2000
4000
ENDCHAR
STARTCHAR 2F4E
ENCODING 12110
SWIDTH 810 0
DWIDTH 18 0
BBX 15 21 2 -2
BITMAP
1FE0
1020
1020
1020
1020
2020
2020
403C
0000
3FF0
1030
0820
0840
04C0
0380
0100
06C0
0C60
1038
200C
C002
ENDCHAR
STARTCHAR 2F4F
ENCODING 12111
SWIDTH 765 0
DWIDTH 17 0
BBX 15 21 1 -2
BITMAP
1FF0
1110
1110
1110
1110
1110
1110
FFFE
1110
1110
1110
1110
1110
1210
1FFC
0210
0410
0810
0810
1010
2000
ENDCHAR
STARTCHAR 2F50
ENCODING 12112
SWIDTH 765 0
DWIDTH 17 0
BBX 13 20 3 -1
BITMAP
8200
8200
8200
8210
8220
8260
8240
FA80
8300
8200
8200
8200
8200
8200
8200
8200
8200
8200
8210
83F8
ENDCHAR
STARTCHAR 2F51
ENCODING 12113
SWIDTH 765 0
DWIDTH 17 0
BBX 15 21 1 -3
BITMAP
0010
01E0
7E00
0200
0200
0200
0270
7F80
0200
0200
0200
020C
07F8
FE00
0200
0200
0200
0200
0200
0204
03FE
ENDCHAR
STARTCHAR 2F52
ENCODING 12114
SWIDTH 765 0
DWIDTH 17 0
BBX 13 20 3 -1
BITMAP
01E0
7E00
8400
8400
8400
8400
8400
8400
FFF0
8400
8200
8200
8200
8200
8300
8100
8180
8080
8048
8038
ENDCHAR
STARTCHAR 2F53
ENCODING 12115
SWIDTH 810 0
DWIDTH 18 0
BBX 16 21 1 -1
BITMAP
1800
1800
1FFC
1000
1000
2000
2FF8
4000
8000
BFF0
0010
0010
0010
0010
0010
0010
0010
0010
0008
000C
0007
ENDCHAR
STARTCHAR 2F54
ENCODING 12116
SWIDTH 765 0
DWIDTH 17 0
BBX 15 22 1 -2
BITMAP
0100
0100
0100
0100
0104
0108
F990
09A0
0940
0940
1940
1120
1120
1120
2110
2118
4108
410C
8106
0102
0100
0100
ENDCHAR
STARTCHAR 2F55
ENCODING 12117
SWIDTH 765 0
DWIDTH 17 0
BBX 15 22 1 -2
BITMAP
0100
0100
0100
0100
0100
0108
1108
1308
2310
2290
62A0
4280
0240
0440
0440
0820
0820
1010
1018
2008
4004
8002
ENDCHAR
STARTCHAR 2F56
ENCODING 12118
SWIDTH 765 0
DWIDTH 17 0
BBX 16 22 0 -2
BITMAP
0018
00F0
1F20
1120
1120
1110
1110
1110
1110
1110
1110
1108
1108
2108
2108
210C
2104
2104
4106
4102
8103
8000
ENDCHAR
STARTCHAR 2F57
ENCODING 12119
SWIDTH 765 0
DWIDTH 17 0
BBX 13 21 2 -1
BITMAP
0880
0840
0840
1020
1010
2010
2008
4028
9060
0840
08C0
0480
0580
0300
0300
0700
0480
0840
1020
2018
4008
ENDCHAR
STARTCHAR 2F58
ENCODING 12120
SWIDTH 720 0
DWIDTH 16 0
BBX 13 22 2 -2
BITMAP
0040
20C0
1980
0500
0300
0580
08C0
3060
4020
0040
0040
2040
1080
1180
0900
0600
0600
0D00
1880
3060
4030
8008
ENDCHAR
STARTCHAR 2F59
ENCODING 12121
SWIDTH 765 0
DWIDTH 17 0
BBX 12 21 2 -2
BITMAP
1010
1010
1010
1010
1010
1010
1FF0
0010
0010
0010
0010
FFF0
0810
0810
1810
1810
1010
3010
2010
4010
8010
ENDCHAR
STARTCHAR 2F5A
ENCODING 12122
SWIDTH 765 0
DWIDTH 17 0
BBX 14 21 1 -1
BITMAP
0040
1040
1040
1040
1040
1040
1FFC
1000
1000
1000
1000
1FF0
1010
1010
2010
2010
2010
4010
4010
8010
8010
ENDCHAR
STARTCHAR 2F5B
ENCODING 12123
SWIDTH 720 0
DWIDTH 16 0
BBX 14 20 1 -3
BITMAP
7FFC
0040
2040
2040
2040
2040
2040
3FFC
0440
0C40
0840
0840
0840
1040
1040
2040
2040
4040
8040
8040
ENDCHAR
STARTCHAR 2F5C
ENCODING 12124
SWIDTH 765 0
DWIDTH 17 0
BBX 15 22 1 -2
BITMAP
0100
0100
1100
1100
1100
1FF8
2100
2100
4100
0100
0100
0100
FFFE
0100
0100
0100
0100
0100
0100
0100
0100
0100
ENDCHAR
STARTCHAR 2F5D
ENCODING 12125
SWIDTH 720 0
DWIDTH 16 0
BBX 14 22 1 -1
BITMAP
0200
0240
0240
0220
0220
0200
0200
FFFC
0200
0200
0280
0280
0280
0440
0440
0440
0820
1030
1010
2008
400C
0004
ENDCHAR
STARTCHAR 2F5E
ENCODING 12126
SWIDTH 765 0
DWIDTH 17 0
BBX 15 21 1 -3
BITMAP
0100
0100
0100
FFFE
0200
0200
0400
0440
0840
1080
2080
3F80
0100
0100
0200
0440
0440
0820
1010
21F0
3E08
ENDCHAR
STARTCHAR 2F5F
ENCODING 12127
SWIDTH 765 0
DWIDTH 17 0
BBX 15 19 1 -1
BITMAP
7FFC
0100
0100
0100
0100
0100
0100
0100
3FF0
0100
0100
0100
0120
0120
0110
0110
0110
0100
FFFE
ENDCHAR
STARTCHAR 2F60
ENCODING 12128
SWIDTH 765 0
DWIDTH 17 0
BBX 16 22 0 -2
BITMAP
0008
00F0
1F10
1110
1110
1110
1110
1110
1110
1110
1118
1108
1108
1108
2108
214C
2244
2224
4226
4472
8793
8000
ENDCHAR
STARTCHAR 2F61
ENCODING 12129
SWIDTH 765 0
DWIDTH 17 0
BBX 15 20 1 -3
BITMAP
FFFC
0800
1000
1000
1000
1FC0
1040
1040
1040
1440
1240
1340
1140
2040
2040
2040
2040
2040
2044
203E
ENDCHAR
STARTCHAR 2F62
ENCODING 12130
SWIDTH 765 0
DWIDTH 17 0
BBX 15 21 1 -2
BITMAP
0810
0810
0810
0810
0810
FFFE
0810
0810
0810
0810
0810
0810
0FF0
0810
0810
0810
0810
0810
0810
0810
0FF0
ENDCHAR
STARTCHAR 2F63
ENCODING 12131
SWIDTH 765 0
DWIDTH 17 0
BBX 14 20 2 0
BITMAP
1200
1200
1200
2200
3FF0
2200
4200
4200
8200
8200
0200
3FE0
0200
0200
0200
0200
0200
0200
0200
FFFC
ENDCHAR
STARTCHAR 2F64
ENCODING 12132
SWIDTH 765 0
DWIDTH 17 0
BBX 13 20 1 -3
BITMAP
3FF8
2108
2108
2108
2108
3FF8
2108
2108
2108
2108
2108
3FF8
2108
4108
4108
4108
4108
8108
8108
8108
ENDCHAR
STARTCHAR 2F65
ENCODING 12133
SWIDTH 675 0
DWIDTH 15 0
BBX 11 19 2 -1
BITMAP
FFE0
8420
8420
8420
8420
8420
8420
8420
FFE0
8420
8420
8420
8420
8420
8420
8420
8420
8420
FFE0
ENDCHAR
STARTCHAR 2F66
ENCODING 12134
SWIDTH 765 0
DWIDTH 17 0
BBX 15 19 1 -2
BITMAP
7FFC
0084
0084
0084
1080
1080
1080
1080
10FC
1080
1080
3080
3080
3080
2880
4480
4680
4380
81FE
ENDCHAR
STARTCHAR 2F67
ENCODING 12135
SWIDTH 720 0
DWIDTH 16 0
BBX 16 20 0 -2
BITMAP
0020
0020
0FFF
0800
0800
4800
4800
2800
0800
0800
1800
6800
D000
1000
1000
1000
2000
2000
2000
4000
ENDCHAR
STARTCHAR 2F69
ENCODING 12137
SWIDTH 765 0
DWIDTH 17 0
BBX 11 21 3 0
BITMAP
0400
0C00
0800
FFE0
8020
8020
8020
8020
8020
8020
8020
FFE0
8020
8020
8020
8020
8020
8020
8020
8020
FFE0
ENDCHAR
STARTCHAR 2F6A
ENCODING 12138
SWIDTH 765 0
DWIDTH 17 0
BBX 15 21 1 -2
BITMAP
0100
0100
0100
3FF8
2108
2108
2108
2100
3FF0
2810
2420
2420
2260
2240
2180
4080
41C0
4260
8410
880C
9002
ENDCHAR
STARTCHAR 2F6B
ENCODING 12139
SWIDTH 765 0
DWIDTH 17 0
BBX 15 19 1 -1
BITMAP
3FF8
2448
2448
2448
2448
2448
2448
2448
2448
2448
2448
2448
2448
2448
2448
2448
2448
2448
FFFE
ENDCHAR
STARTCHAR 2F6C
ENCODING 12140
SWIDTH 720 0
DWIDTH 16 0
BBX 10 20 3 -2
BITMAP
FFC0
8040
8040
8040
8040
8040
FFC0
8040
8040
8040
8040
8040
FFC0
8040
8040
8040
8040
8040
8040
FFC0
ENDCHAR
STARTCHAR 2F6D
ENCODING 12141
SWIDTH 765 0
DWIDTH 17 0
BBX 15 19 1 -2
BITMAP
1FF8
0010
0020
0140
0080
0040
7FFE
0242
0642
0442
0440
0C40
0840
0840
1040
1040
2040
4040
8040
ENDCHAR
STARTCHAR 2F6E
ENCODING 12142
SWIDTH 720 0
DWIDTH 16 0
BBX 14 21 1 -1
BITMAP
0800
0800
1000
1FF8
1100
2100
2100
4100
4100
0100
FFFC
0380
0280
0240
0240
0440
0420
0810
1018
2008
4004
ENDCHAR
STARTCHAR 2F6F
ENCODING 12143
SWIDTH 765 0
DWIDTH 17 0
BBX 14 19 1 -1
BITMAP
7FFC
0400
0400
0400
0800
0800
0800
1FF0
1810
2810
2810
4810
8810
8810
0810
0810
0810
0810
0FF0
ENDCHAR
STARTCHAR 2F70
ENCODING 12144
SWIDTH 765 0
DWIDTH 17 0
BBX 14 20 1 -3
BITMAP
1FF8
0000
0000
0000
0000
0000
0000
7FFC
0100
0100
0900
0920
1110
1108
1108
2104
4104
4100
8100
0100
ENDCHAR
STARTCHAR 2F72
ENCODING 12146
SWIDTH 810 0
DWIDTH 18 0
BBX 16 21 1 -1
BITMAP
0018
01E0
3F00
0100
0100
0100
0100
7FFE
0540
0540
0D20
0920
0930
0910
1118
1108
210C
2106
4103
8101
0100
ENDCHAR
STARTCHAR 2F73
ENCODING 12147
SWIDTH 765 0
DWIDTH 17 0
BBX 15 21 1 -2
BITMAP
0100
0100
7FFC
4004
4004
4404
0480
0440
0440
0440
0440
0820
0820
0830
1810
1010
1018
2008
400C
4004
8006
ENDCHAR
STARTCHAR 2F74
ENCODING 12148
SWIDTH 765 0
DWIDTH 17 0
BBX 15 20 1 -1
BITMAP
0100
0100
0100
7FFC
0000
0010
0010
1010
1030
1020
0820
0820
0840
0440
0440
0480
0480
0000
0000
FFFE
ENDCHAR
STARTCHAR 2F75
ENCODING 12149
SWIDTH 810 0
DWIDTH 18 0
BBX 16 21 1 -2
BITMAP
1820
1820
1040
1040
3F7F
2888
4888
4908
8908
8808
0808
0808
0808
0808
0808
0808
0808
0808
0808
0808
0808
ENDCHAR
STARTCHAR 2F76
ENCODING 12150
SWIDTH 810 0
DWIDTH 18 0
BBX 16 22 1 -3
BITMAP
0100
0108
2110
1110
0910
0D20
0500
0100
7FFE
0540
0520
0520
0920
0910
0910
1108
110C
2104
4102
4101
8100
0100
ENDCHAR
STARTCHAR 2F77
ENCODING 12151
SWIDTH 720 0
DWIDTH 16 0
BBX 14 21 1 -1
BITMAP
0200
0200
0400
0820
0840
1080
3F80
0300
0600
0420
0810
3030
3FC8
0108
0900
1920
1110
3108
2108
4104
8100
ENDCHAR
STARTCHAR 2F78
ENCODING 12152
SWIDTH 765 0
DWIDTH 17 0
BBX 15 21 1 -2
BITMAP
0800
0800
1000
1FF8
2100
2100
2100
4100
0100
0100
FFFE
0100
0100
2108
2108
2108
2108
2108
2108
2108
3FF8
ENDCHAR
STARTCHAR 2F79
ENCODING 12153
SWIDTH 765 0
DWIDTH 17 0
BBX 13 20 2 -3
BITMAP
FFF8
8008
8008
8428
8448
A548
9948
98C8
88C8
8888
98C8
94C8
9548
A528
A728
C228
C208
8008
8008
8008
ENDCHAR
STARTCHAR 2F7A
ENCODING 12154
SWIDTH 720 0
DWIDTH 16 0
BBX 14 22 1 -3
BITMAP
0040
0840
0480
0080
7FFC
0100
0100
0100
3FF0
0100
0100
0100
0100
FFFC
0100
0100
0100
0100
0100
0100
0100
0100
ENDCHAR
STARTCHAR 2F7B
ENCODING 12155
SWIDTH 765 0
DWIDTH 17 0
BBX 13 20 2 -2
BITMAP
FDF8
0408
0408
0488
4488
4448
2468
0408
0408
2428
2428
2448
4448
4488
C488
8508
0408
0408
0408
0408
ENDCHAR
STARTCHAR 2F7C
ENCODING 12156
SWIDTH 765 0
DWIDTH 17 0
BBX 15 21 1 -2
BITMAP
0200
0208
3FE8
0210
0210
0220
0260
FFFE
0180
0200
0C00
0810
1820
28C0
CB00
0C00
0800
0800
0808
0808
0FFC
ENDCHAR
STARTCHAR 2F7D
ENCODING 12157
SWIDTH 765 0
DWIDTH 17 0
BBX 15 20 1 -3
BITMAP
FFFE
0300
0200
0200
0400
3FF8
2448
2448
2448
2448
2448
2448
2448
2448
2448
2448
2448
2448
2448
2448
ENDCHAR
STARTCHAR 2F7E
ENCODING 12158
SWIDTH 810 0
DWIDTH 18 0
BBX 15 22 2 -2
BITMAP
0100
0100
0100
7FFC
0100
0100
0100
3FF8
0100
0100
0100
FFFC
0D40
0940
0920
1920
1110
2118
210C
4104
8106
0100
ENDCHAR
STARTCHAR 2F7F
ENCODING 12159
SWIDTH 720 0
DWIDTH 16 0
BBX 14 20 1 -3
BITMAP
7FFC
0820
0820
0820
0FE0
0820
0820
0820
0820
0FE0
0820
0820
0820
083C
0FE0
F020
0020
0020
0020
0020
ENDCHAR
STARTCHAR 2F80
ENCODING 12160
SWIDTH 810 0
DWIDTH 18 0
BBX 16 22 1 -2
BITMAP
0100
0100
0100
1FF8
0118
0118
FFFF
0118
0118
1FF8
0100
0100
0100
1FFC
0100
0100
0100
FFFC
0100
0100
0100
0100
ENDCHAR
STARTCHAR 2F81
ENCODING 12161
SWIDTH 720 0
DWIDTH 16 0
BBX 12 21 2 -2
BITMAP
0200
0200
0200
FFF0
8210
8210
8510
8490
88D0
9250
A210
8210
8610
8510
8890
8850
9050
A010
8010
8010
8010
ENDCHAR
STARTCHAR 2F82
ENCODING 12162
SWIDTH 765 0
DWIDTH 17 0
BBX 13 19 3 -1
BITMAP
FFF0
8200
8200
8200
8200
8200
FFE0
8020
8020
8020
8020
8020
FFE0
8200
8200
8200
8200
8200
FFF8
ENDCHAR
STARTCHAR 2F83
ENCODING 12163
SWIDTH 765 0
DWIDTH 17 0
BBX 11 21 3 0
BITMAP
0400
0C00
0800
FFE0
8020
8020
8020
8020
8020
FFE0
8020
8020
8020
8020
FFE0
8020
8020
8020
8020
8020
FFE0
ENDCHAR
STARTCHAR 2F84
ENCODING 12164
SWIDTH 720 0
DWIDTH 16 0
BBX 14 19 1 -2
BITMAP
7FFC
0200
0600
0440
0820
0810
1070
3F88
0008
0100
0100
0100
3FF8
0100
0100
0100
0100
0100
FFFC
ENDCHAR
STARTCHAR 2F85
ENCODING 12165
SWIDTH 720 0
DWIDTH 16 0
BBX 12 20 2 -1
BITMAP
0800
71F0
8010
8010
8010
8010
8010
8010
8010
F9F0
8010
8010
8010
8010
8010
8010
8010
8010
8010
FFF0
ENDCHAR
STARTCHAR 2F86
ENCODING 12166
SWIDTH 765 0
DWIDTH 17 0
BBX 15 21 1 -1
BITMAP
0038
03C0
7F00
0100
0100
0100
FFFE
0100
0100
0100
0100
3FF0
2010
2010
2010
2010
2010
2010
2010
2010
3FF0
ENDCHAR
STARTCHAR 2F87
ENCODING 12167
SWIDTH 765 0
DWIDTH 17 0
BBX 15 22 1 -2
BITMAP
2010
2010
2010
2010
3DFE
4410
4410
4490
4490
A490
B890
8890
08FE
0810
1010
1010
1010
2010
4010
4010
8010
0010
ENDCHAR
STARTCHAR 2F88
ENCODING 12168
SWIDTH 765 0
DWIDTH 17 0
BBX 15 22 1 -3
BITMAP
0100
0100
0200
0FF0
0810
0A10
0910
0990
0890
0810
FFFE
1010
1210
1110
1190
1090
2090
2010
2010
2010
4010
0010
ENDCHAR
STARTCHAR 2F89
ENCODING 12169
SWIDTH 765 0
DWIDTH 17 0
BBX 13 20 3 -3
BITMAP
FFC0
8040
8040
8040
FFC0
8040
8040
8040
FFC0
8820
8820
8440
8680
8300
8100
8180
80C0
8060
8030
8018
ENDCHAR
STARTCHAR 2F8A
ENCODING 12170
SWIDTH 720 0
DWIDTH 16 0
BBX 14 21 1 0
BITMAP
0800
0800
1FC0
1040
2080
4080
7FF0
A110
2110
2110
2110
2110
3FF0
2000
2000
2000
2000
2000
2000
2008
1FFC
ENDCHAR
STARTCHAR 2F8C
ENCODING 12172
SWIDTH 765 0
DWIDTH 17 0
BBX 15 21 1 -2
BITMAP
0100
0100
0100
01FC
0100
0100
3FFE
2002
2102
2102
2100
2100
213C
27E0
3D00
2100
4100
4100
4100
8102
81FE
ENDCHAR
STARTCHAR 2F8D
ENCODING 12173
SWIDTH 765 0
DWIDTH 17 0
BBX 15 22 1 -1
BITMAP
0100
0100
0100
0100
0100
3FF8
2108
2108
2108
2108
2108
3FF8
0100
0100
0100
0120
0110
0108
0104
01FC
FE02
0002
ENDCHAR
STARTCHAR 2F8E
ENCODING 12174
SWIDTH 765 0
DWIDTH 17 0
BBX 15 20 1 0
BITMAP
0300
0200
0400
3FF8
2448
2448
2448
2448
2448
2448
2448
2448
2448
2448
2448
2448
2448
2448
2448
FFFE
ENDCHAR
STARTCHAR 2F8F
ENCODING 12175
SWIDTH 810 0
DWIDTH 18 0
BBX 16 21 1 -2
BITMAP
0800
09FC
1000
2000
4400
8800
0800
13FF
3008
5008
9008
1008
1008
1008
1008
1008
1008
1008
1008
1008
1008
ENDCHAR
STARTCHAR 2F90
ENCODING 12176
SWIDTH 765 0
DWIDTH 17 0
BBX 15 21 1 -2
BITMAP
0100
0100
0100
FFFE
0200
0200
0700
0500
0504
0C88
0C90
1460
1440
2420
4420
8410
0410
0408
040C
0404
0402
ENDCHAR
STARTCHAR 2F93
ENCODING 12179
SWIDTH 765 0
DWIDTH 17 0
BBX 12 21 2 -2
BITMAP
0800
1800
1FC0
1040
2080
3FF0
6110
A110
2110
2110
3FF0
2110
2110
2110
3FF0
2110
4110
4110
4110
8110
0110
ENDCHAR
STARTCHAR 2F94
ENCODING 12180
SWIDTH 765 0
DWIDTH 17 0
BBX 15 21 1 -1
BITMAP
0100
0100
FFFE
0000
0000
0000
3FF0
0000
0000
0000
3FF0
0000
0000
0000
1FF0
1010
1010
1010
1010
1010
1FF0
ENDCHAR
STARTCHAR 2F95
ENCODING 12181
SWIDTH 765 0
DWIDTH 17 0
BBX 15 21 1 -1
BITMAP
0440
0420
0810
0910
1108
1304
2284
4440
0420
0810
1008
200C
4FF2
8810
0810
0810
0810
0810
0810
0810
0FF0
ENDCHAR
STARTCHAR 2F96
ENCODING 12182
SWIDTH 765 0
DWIDTH 17 0
BBX 15 19 1 -2
BITMAP
7FFC
0000
0000
0000
1FF0
1010
1010
1010
1010
1010
1FF0
0000
0000
1020
0820
0840
0440
0080
FFFE
ENDCHAR
STARTCHAR 2F97
ENCODING 12183
SWIDTH 765 0
DWIDTH 17 0
BBX 14 20 1 -2
BITMAP
FFFC
0200
0600
0C08
0A10
1220
6340
87C0
0540
0940
11A0
21A0
C290
0498
0888
108C
2084
C180
0500
0300
ENDCHAR
STARTCHAR 2F98
ENCODING 12184
SWIDTH 720 0
DWIDTH 16 0
BBX 11 22 3 -1
BITMAP
0300
0200
0400
0C00
1220
7240
0980
0A00
0E00
1100
6100
0700
0880
3080
C180
0280
0C80
3080
C080
0180
0500
0300
ENDCHAR
STARTCHAR 2F9A
ENCODING 12186
SWIDTH 720 0
DWIDTH 16 0
BBX 14 21 1 -2
BITMAP
0100
0100
3FF8
0100
0100
0100
0100
FFFC
0440
0440
2450
2450
4448
4848
4844
8844
8840
1040
1040
2040
4040
ENDCHAR
STARTCHAR 2F9B
ENCODING 12187
SWIDTH 720 0
DWIDTH 16 0
BBX 14 20 1 -1
BITMAP
0100
0100
3FF8
0100
0100
0100
0100
FFFC
0000
0100
1100
1100
11F8
2100
2100
2100
3100
4900
4500
83FC
ENDCHAR
STARTCHAR 2F9C
ENCODING 12188
SWIDTH 765 0
DWIDTH 17 0
BBX 15 21 1 -2
BITMAP
1FF0
1010
1010
1010
1010
1010
1010
1FF0
0100
0100
1100
1100
11F8
1100
1100
3100
3100
4900
4500
83FE
8000
ENDCHAR
STARTCHAR 2F9D
ENCODING 12189
SWIDTH 765 0
DWIDTH 17 0
BBX 15 21 1 -2
BITMAP
0100
0200
1FF0
1010
1010
1FF0
1012
1016
1FF4
101C
1018
1018
FFF0
0030
0050
0090
0110
0210
0C10
1010
6010
ENDCHAR
STARTCHAR 2F9E
ENCODING 12190
SWIDTH 765 0
DWIDTH 17 0
BBX 15 22 1 -2
BITMAP
0100
0100
0100
FFFC
0100
0100
3FF0
2110
2110
3FF0
2110
2110
2110
3FF0
0100
0100
FFFE
0100
0100
0100
0100
0100
ENDCHAR
STARTCHAR 2F9F
ENCODING 12191
SWIDTH 765 0
DWIDTH 17 0
BBX 15 20 1 -1
BITMAP
0100
0100
7FF8
0020
0820
0840
0440
0480
FFFE
0100
0100
0100
0100
7FFC
0100
0100
0100
0100
0100
0100
ENDCHAR
STARTCHAR 2FA0
ENCODING 12192
SWIDTH 765 0
DWIDTH 17 0
BBX 15 20 1 -3
BITMAP
3FFC
2000
2000
27F8
2000
2000
2000
2000
3FFC
2400
2480
2488
2450
4460
4420
4430
4418
8408
8404
0402
ENDCHAR
STARTCHAR 2FA2
ENCODING 12194
SWIDTH 765 0
DWIDTH 17 0
BBX 13 20 3 -2
BITMAP
7FC0
4040
4040
4040
7FC0
0000
0000
FFE0
8420
8420
8420
8420
FFE0
8000
8000
8000
8000
8000
8010
7FF8
ENDCHAR
STARTCHAR 2FA3
ENCODING 12195
SWIDTH 765 0
DWIDTH 17 0
BBX 15 20 1 -2
BITMAP
FFFE
0240
0240
0240
3FF8
2248
2248
2248
2448
2448
2878
2808
2008
3FF8
2008
2008
2008
2008
2008
3FF8
ENDCHAR
STARTCHAR 2FA5
ENCODING 12197
SWIDTH 765 0
DWIDTH 17 0
BBX 15 20 1 -2
BITMAP
3FF0
2110
2110
2110
3FF0
2110
2110
2110
2110
3FF0
0100
0100
0100
3FF8
0100
0100
0100
0100
0100
FFFE
ENDCHAR
STARTCHAR 2FA6
ENCODING 12198
SWIDTH 810 0
DWIDTH 18 0
BBX 15 21 2 -2
BITMAP
0100
0300
0300
0680
0440
0820
1030
2018
4FEC
8106
0100
0100
0100
3FF8
0100
1110
1110
0920
0920
0940
FFFC
ENDCHAR
STARTCHAR 2FA9
ENCODING 12201
SWIDTH 765 0
DWIDTH 17 0
BBX 15 22 1 -1
BITMAP
0200
0200
1FF0
1010
1010
1FF0
1000
1000
1FF0
1010
1010
1FF0
0000
0100
0100
FFFE
0100
0100
0100
0100
0100
0100
ENDCHAR
STARTCHAR 2FAA
ENCODING 12202
SWIDTH 765 0
DWIDTH 17 0
BBX 15 22 1 -2
BITMAP
0100
0100
0100
3FF0
0110
0110
FFFE
0110
0110
3FF0
0100
2108
1110
19A0
0140
0540
0920
1110
3118
610E
C102
0100
ENDCHAR
STARTCHAR 2FAB
ENCODING 12203
SWIDTH 765 0
DWIDTH 17 0
BBX 15 22 1 -3
BITMAP
0440
0C40
0840
0840
1FFE
1040
3040
5040
9040
1FFC
1040
1040
1040
1040
1FFC
1040
1040
1040
1040
1FFE
1000
1000
ENDCHAR
STARTCHAR 2FAC
ENCODING 12204
SWIDTH 720 0
DWIDTH 16 0
BBX 14 20 1 -3
BITMAP
FFFC
0100
0100
0100
7FF8
4108
4108
5188
4948
4928
4128
4108
5188
5148
4948
4928
4108
4108
4108
4108
ENDCHAR
STARTCHAR 2FAE
ENCODING 12206
SWIDTH 765 0
DWIDTH 17 0
BBX 15 21 1 -2
BITMAP
0440
0440
0440
FC7E
0440
0440
0440
0440
7C7C
0440
0440
0440
0440
0440
FC7E
0440
0440
0440
0440
0440
0440
ENDCHAR
STARTCHAR 2FAF
ENCODING 12207
SWIDTH 765 0
DWIDTH 17 0
BBX 15 19 1 -1
BITMAP
FFFE
0100
0200
0200
3FF8
2448
2448
2448
27C8
2448
2448
2448
2448
27C8
2448
2448
2448
2448
3FF8
ENDCHAR
STARTCHAR 2FB0
ENCODING 12208
SWIDTH 765 0
DWIDTH 17 0
BBX 15 21 1 -2
BITMAP
0820
0820
7FFE
0820
0820
0FE0
0100
0100
3FF8
2108
2108
2108
3FF8
0100
0100
FFFE
0100
0100
0100
0100
0100
ENDCHAR
STARTCHAR 2FB2
ENCODING 12210
SWIDTH 765 0
DWIDTH 17 0
BBX 15 21 1 -2
BITMAP
0440
0440
0440
0440
7C7C
0440
0440
0440
0440
7C7C
0440
0440
0440
0440
7C7C
0440
0440
0440
0440
0440
FFFE
ENDCHAR
STARTCHAR 2FB3
ENCODING 12211
SWIDTH 765 0
DWIDTH 17 0
BBX 15 21 1 0
BITMAP
0100
0100
7FF8
0000
0820
0820
0440
0080
FFFE
0000
0000
1FF0
1010
1010
1010
1FF0
1010
1010
1010
1010
1FF0
ENDCHAR
STARTCHAR 2FB5
ENCODING 12213
SWIDTH 720 0
DWIDTH 16 0
BBX 15 21 0 -2
BITMAP
3FF0
2010
2050
21D0
2F10
2110
2110
2FD0
2950
2950
2950
2FD0
2110
2110
2110
4150
41F0
5E30
8010
800A
0006
ENDCHAR
STARTCHAR 2FB6
ENCODING 12214
SWIDTH 765 0
DWIDTH 17 0
BBX 15 20 1 -2
BITMAP
7FC4
0458
1C60
3460
E458
2444
2420
2418
FFCE
2440
244C
2448
2470
2460
4458
4444
4420
8430
841A
040E
ENDCHAR
STARTCHAR 2FB7
ENCODING 12215
SWIDTH 720 0
DWIDTH 16 0
BBX 13 21 2 -3
BITMAP
0400
0400
0A00
1180
2440
4430
BFC8
2040
2040
3FC0
2040
2040
3FC0
2010
2430
2220
21C0
2040
2020
2030
2010
ENDCHAR
STARTCHAR 2FB8
ENCODING 12216
SWIDTH 765 0
DWIDTH 17 0
BBX 15 21 1 -1
BITMAP
0820
0420
0440
FFFE
0100
0200
0200
1FF0
1010
1010
1010
1FF0
1010
1010
1010
1FF0
1010
1010
1010
1010
1FF0
ENDCHAR
STARTCHAR 2FB9
ENCODING 12217
SWIDTH 720 0
DWIDTH 16 0
BBX 14 21 1 -1
BITMAP
01E0
7E00
0200
0200
FFFC
0A80
0A40
1220
2218
420C
0004
1FE0
1020
1020
1020
1FE0
1020
1020
1020
1020
1FE0
ENDCHAR
STARTCHAR 2FBB
ENCODING 12219
SWIDTH 765 0
DWIDTH 17 0
BBX 13 20 2 -2
BITMAP
3FE0
2020
3E20
2220
2220
FFF8
8008
8008
3FE0
2020
2020
2020
3FE0
2020
2020
3FE0
2020
2020
2020
2020
ENDCHAR
STARTCHAR 2FBC
ENCODING 12220
SWIDTH 720 0
DWIDTH 16 0
BBX 14 21 1 -1
BITMAP
0100
0100
FFFC
0000
0000
1FE0
1020
1020
1FE0
0000
7FF8
4008
4008
4FC8
4848
4848
4848
4848
4FC8
4008
4008
ENDCHAR
STARTCHAR 2FBD
ENCODING 12221
SWIDTH 765 0
DWIDTH 17 0
BBX 16 21 0 -2
BITMAP
0004
3F0C
2008
2010
2020
3E00
2000
2002
3E04
2008
2010
2020
FF00
1000
1003
2402
2204
4208
4710
7960
0080
ENDCHAR
STARTCHAR 2FBE
ENCODING 12222
SWIDTH 765 0
DWIDTH 17 0
BBX 13 22 2 -2
BITMAP
8008
FFE8
9048
9048
9048
BDE8
9048
9048
9048
FFE8
8008
8008
8008
8008
8008
8008
8008
8008
8008
8008
8008
8008
ENDCHAR
STARTCHAR 2FBF
ENCODING 12223
SWIDTH 720 0
DWIDTH 16 0
BBX 12 20 2 -2
BITMAP
0480
9510
8B10
A650
A750
8910
9490
A250
8010
FFF0
0000
4000
4060
4180
4E00
7000
4000
4010
4010
7FF0
ENDCHAR
STARTCHAR 2FC0
ENCODING 12224
SWIDTH 720 0
DWIDTH 16 0
BBX 14 21 1 -3
BITMAP
FFFC
0000
0000
1FE0
1020
1020
1020
1FE0
0000
0000
7FF8
4848
4448
4488
5FF8
4108
4108
4108
4108
4108
4008
ENDCHAR
STARTCHAR 2FC1
ENCODING 12225
SWIDTH 765 0
DWIDTH 17 0
BBX 14 21 2 -2
BITMAP
0200
0400
7FF0
4210
4210
4210
7FF0
4210
4210
4210
7FF0
0600
0500
0520
0D60
0940
1998
11E8
2100
4108
81FC
ENDCHAR
STARTCHAR 2FC5
ENCODING 12229
SWIDTH 765 0
DWIDTH 17 0
BBX 15 21 1 -1
BITMAP
0080
0080
3FFC
2240
2240
3FFC
2244
2244
2244
3FFC
2000
2440
2440
2444
47F8
4440
4440
4440
8440
8444
047E
ENDCHAR
STARTCHAR 2FC6
ENCODING 12230
SWIDTH 765 0
DWIDTH 17 0
BBX 14 22 2 -3
BITMAP
0200
0200
FFF8
0200
1220
3240
2260
5A90
8F08
8A80
1240
2230
C80C
0FE0
0840
10C0
2980
4700
0380
0C40
1030
6000
ENDCHAR
STARTCHAR 2FC7
ENCODING 12231
SWIDTH 765 0
DWIDTH 17 0
BBX 15 23 1 -2
BITMAP
0080
0080
3FFE
2000
2000
2210
2210
2210
3F7E
2A54
2A54
2B54
2AD4
3254
5294
5292
6292
6292
4210
8210
8210
8210
0210
ENDCHAR
STARTCHAR 2FC9
ENCODING 12233
SWIDTH 765 0
DWIDTH 17 0
BBX 15 22 1 -2
BITMAP
0018
01F0
3F00
0100
7FFC
0700
0540
0930
1108
2304
C680
0C60
1110
212E
4522
0740
0100
0340
0520
1910
3108
0100
ENDCHAR
STARTCHAR 2FCA
ENCODING 12234
SWIDTH 765 0
DWIDTH 17 0
BBX 15 21 1 -2
BITMAP
3FF8
2108
2128
2968
2D48
2588
2108
3FF8
0100
0100
7FF8
0100
0100
0100
FFFE
0000
2800
2888
4488
C444
8444
ENDCHAR
STARTCHAR 2FCB
ENCODING 12235
SWIDTH 765 0
DWIDTH 17 0
BBX 16 21 0 -1
BITMAP
2248
1258
1A50
0240
FFFF
0100
0920
0520
0540
3FFC
2704
2704
2744
2544
2524
2524
2924
2904
2104
2104
2104
ENDCHAR
STARTCHAR 2FCD
ENCODING 12237
SWIDTH 720 0
DWIDTH 16 0
BBX 13 21 1 -2
BITMAP
0FC0
0840
4FC8
4848
4848
4FC8
4848
4848
4FC8
4008
7CF8
0480
0480
FCF8
2488
2488
6488
4488
4488
8488
0080
ENDCHAR
STARTCHAR 2FCE
ENCODING 12238
SWIDTH 720 0
DWIDTH 16 0
BBX 15 21 0 -1
BITMAP
0810
FF10
0810
08FE
0810
7F10
0010
7EFC
4244
4244
4244
4228
7E28
0228
0210
2410
3428
384C
1E84
E082
0002
ENDCHAR
STARTCHAR 2FCF
ENCODING 12239
SWIDTH 765 0
DWIDTH 17 0
BBX 14 21 2 -2
BITMAP
1800
63E0
8020
8020
FBE0
8020
8020
FFE0
0000
8420
A520
94A0
94A0
8420
A520
94A0
94A0
8420
8410
8410
840C
ENDCHAR
STARTCHAR 2FD0
ENCODING 12240
SWIDTH 765 0
DWIDTH 17 0
BBX 15 22 1 -3
BITMAP
0100
0200
1FF0
1010
1FF0
1010
1FF0
1010
1FF0
0000
3FF8
2108
3FF8
2108
2108
3FF8
0000
FFFE
0840
0840
1040
1040
ENDCHAR
STARTCHAR 2FD3
ENCODING 12243
SWIDTH 720 0
DWIDTH 16 0
BBX 16 21 0 -2
BITMAP
0840
0840
7F7E
0040
2240
347C
0404
FF04
007C
7E40
4240
427C
7E40
427C
4240
4240
7E7E
4240
4240
4242
427F
ENDCHAR
STARTCHAR 2FD5
ENCODING 12245
SWIDTH 810 0
DWIDTH 18 0
BBX 15 20 2 -1
BITMAP
0300
0680
0C40
1030
2FDC
C006
7FB8
4CA8
4CA8
7FB8
0000
3FF0
2490
2490
2490
3FF0
2490
2490
2490
2490
ENDCHAR
STARTCHAR 3000
ENCODING 12288
SWIDTH 990 0
DWIDTH 22 0
BBX 0 0 0 0
BITMAP
ENDCHAR
STARTCHAR 3001
ENCODING 12289
SWIDTH 810 0
DWIDTH 18 0
BBX 3 4 1 -2
BITMAP
80
40
40
20
ENDCHAR
STARTCHAR 3002
ENCODING 12290
SWIDTH 765 0
DWIDTH 17 0
BBX 3 3 1 -2
BITMAP
E0
A0
E0
ENDCHAR
STARTCHAR 3005
ENCODING 12293
SWIDTH 765 0
DWIDTH 17 0
BBX 13 20 2 0
BITMAP
0800
0800
0800
1000
1FF8
1018
2010
2030
2020
4060
4040
8040
1080
0900
0500
0200
0100
0080
0080
0040
ENDCHAR
STARTCHAR 3007
ENCODING 12295
SWIDTH 720 0
DWIDTH 16 0
BBX 14 19 1 -1
BITMAP
0780
1860
3030
2010
4008
4008
8004
8004
8004
8004
8004
8004
8004
4008
4008
2010
3030
1860
0780
ENDCHAR
STARTCHAR 3008
ENCODING 12296
SWIDTH 765 0
DWIDTH 17 0
BBX 4 20 12 -1
BITMAP
10
10
20
20
20
40
40
40
80
80
80
80
40
40
40
20
20
20
10
10
ENDCHAR
STARTCHAR 3009
ENCODING 12297
SWIDTH 765 0
DWIDTH 17 0
BBX 4 20 1 -1
BITMAP
80
80
40
40
40
20
20
20
10
10
10
10
20
20
20
40
40
C0
80
80
ENDCHAR
STARTCHAR 300A
ENCODING 12298
SWIDTH 765 0
DWIDTH 17 0
BBX 7 20 9 -1
BITMAP
12
16
24
24
2C
48
48
50
90
B0
90
90
50
48
48
24
24
24
12
12
ENDCHAR
STARTCHAR 300B
ENCODING 12299
SWIDTH 765 0
DWIDTH 17 0
BBX 7 20 1 -1
BITMAP
90
90
48
48
68
24
24
14
12
1A
12
12
34
24
24
68
48
58
90
90
ENDCHAR
STARTCHAR 300C
ENCODING 12300
SWIDTH 720 0
DWIDTH 16 0
BBX 3 16 13 2
BITMAP
E0
80
80
80
80
80
80
80
80
80
80
80
80
80
80
80
ENDCHAR
STARTCHAR 300D
ENCODING 12301
SWIDTH 765 0
DWIDTH 17 0
BBX 3 16 1 0
BITMAP
20
20
20
20
20
20
20
20
20
20
20
20
20
20
20
E0
ENDCHAR
STARTCHAR 300E
ENCODING 12302
SWIDTH 765 0
DWIDTH 17 0
BBX 4 17 12 2
BITMAP
F0
F0
C0
C0
C0
C0
C0
C0
C0
C0
C0
C0
C0
C0
C0
C0
80
ENDCHAR
STARTCHAR 300F
ENCODING 12303
SWIDTH 765 0
DWIDTH 17 0
BBX 5 16 0 0
BITMAP
18
18
18
18
18
18
18
18
18
18
18
18
18
18
78
F8
ENDCHAR
STARTCHAR 3010
ENCODING 12304
SWIDTH 765 0
DWIDTH 17 0
BBX 2 20 14 -1
BITMAP
C0
C0
C0
80
80
80
80
80
80
80
80
80
80
80
80
80
80
C0
C0
C0
ENDCHAR
STARTCHAR 3011
ENCODING 12305
SWIDTH 765 0
DWIDTH 17 0
BBX 2 20 1 -1
BITMAP
C0
C0
C0
40
40
40
40
40
40
40
40
40
40
40
40
40
40
C0
C0
C0
ENDCHAR
STARTCHAR 3016
ENCODING 12310
SWIDTH 765 0
DWIDTH 17 0
BBX 3 20 13 -1
BITMAP
E0
A0
A0
C0
C0
C0
C0
C0
C0
C0
C0
C0
C0
C0
C0
C0
C0
A0
A0
E0
ENDCHAR
STARTCHAR 3017
ENCODING 12311
SWIDTH 765 0
DWIDTH 17 0
BBX 3 20 1 -1
BITMAP
E0
A0
A0
A0
60
60
60
60
60
60
60
60
60
60
60
60
A0
A0
A0
E0
ENDCHAR
STARTCHAR 306E
ENCODING 12398
SWIDTH 765 0
DWIDTH 17 0
BBX 13 19 2 -1
BITMAP
0F80
12C0
2220
4230
4210
4210
8208
8208
8208
8208
8208
8208
8208
8208
4410
4410
4420
2460
1880
ENDCHAR
STARTCHAR 30FB
ENCODING 12539
SWIDTH 765 0
DWIDTH 17 0
BBX 1 1 8 6
BITMAP
80
ENDCHAR
STARTCHAR 4E00
ENCODING 19968
SWIDTH 720 0
DWIDTH 16 0
BBX 14 1 1 10
BITMAP
FFFC
ENDCHAR
STARTCHAR 4E01
ENCODING 19969
SWIDTH 720 0
DWIDTH 16 0
BBX 14 20 1 -2
BITMAP
FFFC
0100
0100
0100
0100
0100
0100
0100
0100
0100
0100
0100
0100
0100
0100
0100
0100
0100
0100
0300
ENDCHAR
STARTCHAR 4E03
ENCODING 19971
SWIDTH 765 0
DWIDTH 17 0
BBX 14 21 2 0
BITMAP
0400
0400
0400
0400
0400
0438
07C0
3C00
E400
0400
0400
0400
0400
0400
0400
0400
0400
0400
0400
0408
07FC
ENDCHAR
STARTCHAR 4E07
ENCODING 19975
SWIDTH 765 0
DWIDTH 17 0
BBX 14 20 2 -3
BITMAP
FFFC
0800
0800
0800
0800
0800
0FF0
0810
0810
0810
1810
1010
1010
1010
3010
2010
6010
4010
8010
0010
ENDCHAR
STARTCHAR 4E08
ENCODING 19976
SWIDTH 765 0
DWIDTH 17 0
BBX 13 21 2 -1
BITMAP
0080
0080
0080
0080
FFF8
0080
0080
0080
1080
1080
0880
0900
0500
0300
0300
0300
0480
0840
1060
2018
4008
ENDCHAR
STARTCHAR 4E09
ENCODING 19977
SWIDTH 765 0
DWIDTH 17 0
BBX 14 19 1 -1
BITMAP
3FF8
0000
0000
0000
0000
0000
0000
0000
0000
1FF0
0000
0000
0000
0000
0000
0000
0000
0000
FFFC
ENDCHAR
STARTCHAR 4E0A
ENCODING 19978
SWIDTH 720 0
DWIDTH 16 0
BBX 14 20 1 0
BITMAP
0200
0200
0200
0200
0200
0200
03F8
0200
0200
0200
0200
0200
0200
0200
0200
0200
0200
0200
0200
FFFC
ENDCHAR
STARTCHAR 4E0B
ENCODING 19979
SWIDTH 720 0
DWIDTH 16 0
BBX 14 20 1 -2
BITMAP
FFFC
0200
0200
0200
0200
0280
0240
0220
0220
0210
0208
0208
0200
0200
0200
0200
0200
0200
0200
0200
ENDCHAR
STARTCHAR 4E0C
ENCODING 19980
SWIDTH 765 0
DWIDTH 17 0
BBX 15 20 1 -2
BITMAP
FFFE
0820
0820
0820
0820
0820
0820
0820
0820
0820
1020
1020
1020
1020
2020
2020
2020
4020
8020
8020
ENDCHAR
STARTCHAR 4E0D
ENCODING 19981
SWIDTH 720 0
DWIDTH 16 0
BBX 13 20 2 -2
BITMAP
FFF8
0600
0400
0400
0C00
0A00
0A00
1240
1220
2210
4208
8208
0200
0200
0200
0200
0200
0200
0200
0200
ENDCHAR
STARTCHAR 4E0E
ENCODING 19982
SWIDTH 765 0
DWIDTH 17 0
BBX 13 21 2 -2
BITMAP
1000
1000
1000
1000
1FF8
1000
1000
1000
1FF8
0008
0008
0008
0008
0008
FFC8
0008
0008
0008
0008
0008
0008
ENDCHAR
STARTCHAR 4E10
ENCODING 19984
SWIDTH 765 0
DWIDTH 17 0
BBX 15 20 1 -3
BITMAP
FFFE
0100
0100
2100
21F8
2100
2100
2100
2100
3FF8
0008
0008
0008
0008
0008
0008
0008
0008
0008
0008
ENDCHAR
STARTCHAR 4E11
ENCODING 19985
SWIDTH 765 0
DWIDTH 17 0
BBX 15 20 1 -2
BITMAP
1FF8
0308
0208
0208
0208
0208
0208
0208
1FF8
0208
0208
0608
0608
0408
0408
0408
0408
0408
0408
FFFE
ENDCHAR
STARTCHAR 4E13
ENCODING 19987
SWIDTH 765 0
DWIDTH 17 0
BBX 15 21 1 -2
BITMAP
0100
0100
7FF8
0200
0200
0200
0200
FFFE
0400
0400
0800
0FF0
0010
0020
0020
0840
0440
0280
0180
00C0
0060
ENDCHAR
STARTCHAR 4E14
ENCODING 19988
SWIDTH 765 0
DWIDTH 17 0
BBX 15 20 1 -1
BITMAP
1FF0
1010
1010
1010
1010
1010
1FF0
1010
1010
1010
1010
1010
1FF0
1010
1010
1010
1010
1010
1010
FFFE
ENDCHAR
STARTCHAR 4E15
ENCODING 19989
SWIDTH 810 0
DWIDTH 18 0
BBX 16 20 1 -2
BITMAP
7FFE
0080
0100
0100
0300
0280
0680
0490
0890
1088
1084
6086
0082
0080
0080
0080
0080
0080
0000
FFFF
ENDCHAR
STARTCHAR 4E16
ENCODING 19990
SWIDTH 765 0
DWIDTH 17 0
BBX 15 21 1 -1
BITMAP
0210
0210
1210
1210
1210
1210
FFFE
1210
1210
1210
1210
1210
1210
1210
13F0
1000
1000
1000
1000
1000
1FFC
ENDCHAR
STARTCHAR 4E18
ENCODING 19992
SWIDTH 765 0
DWIDTH 17 0
BBX 15 21 1 -1
BITMAP
0008
0070
0F80
1000
1000
1000
1000
1000
1FFC
1020
1020
1020
1020
1020
1020
1020
1020
1020
1020
1020
FFFE
ENDCHAR
STARTCHAR 4E19
ENCODING 19993
SWIDTH 765 0
DWIDTH 17 0
BBX 15 21 1 -3
BITMAP
FFFE
0100
0100
0100
0100
3FF8
2108
2108
2208
2208
2388
24C8
2448
2828
2038
2008
2008
2008
2008
2008
2008
ENDCHAR
STARTCHAR 4E1A
ENCODING 19994
SWIDTH 765 0
DWIDTH 17 0
BBX 15 20 1 -1
BITMAP
0440
0440
0440
0440
0448
4448
4448
2448
2448
2450
1450
1450
1460
0460
0440
0440
0440
0440
0440
FFFE
ENDCHAR
STARTCHAR 4E1B
ENCODING 19995
SWIDTH 765 0
DWIDTH 17 0
BBX 16 21 0 -2
BITMAP
0820
0820
0820
0820
0820
0820
0820
0820
0C70
0C50
0C50
1A50
1288
1288
108C
2104
4204
4206
0000
0000
FFFF
ENDCHAR
STARTCHAR 4E1C
ENCODING 19996
SWIDTH 720 0
DWIDTH 16 0
BBX 14 22 1 -3
BITMAP
0400
0400
0400
FFFC
0800
0800
1900
1100
1100
3100
3FF8
0100
0100
0900
1920
1110
1110
2108
4108
4104
8100
0100
ENDCHAR
STARTCHAR 4E1D
ENCODING 19997
SWIDTH 720 0
DWIDTH 16 0
BBX 14 21 1 -2
BITMAP
0820
0820
1860
1040
1040
2288
2288
4510
4510
7DF0
0820
0820
1040
1040
2080
4288
7DF0
0000
0000
0000
FFFC
ENDCHAR
STARTCHAR 4E1E
ENCODING 19998
SWIDTH 765 0
DWIDTH 17 0
BBX 15 20 1 -3
BITMAP
3FE0
0060
00C0
0084
0108
7918
09A0
0940
1940
1140
1120
1110
2118
2108
4104
4102
8100
0100
0000
FFFE
ENDCHAR
STARTCHAR 4E22
ENCODING 20002
SWIDTH 765 0
DWIDTH 17 0
BBX 15 21 1 -2
BITMAP
0018
01E0
7F00
0100
0100
3FF8
0100
0100
0100
0100
FFFE
0200
0200
0440
0440
0820
0810
1010
1078
2F88
3808
ENDCHAR
STARTCHAR 4E24
ENCODING 20004
SWIDTH 720 0
DWIDTH 16 0
BBX 14 20 1 -3
BITMAP
FFFC
0440
0440
0440
7FF8
4448
4448
4448
4448
4448
46A8
4AA8
4AA8
4928
5208
4208
4008
4008
4008
4008
ENDCHAR
STARTCHAR 4E25
ENCODING 20005
SWIDTH 765 0
DWIDTH 17 0
BBX 16 20 1 -2
BITMAP
3FFE
0220
1224
1224
0A28
0A20
0220
1FFF
1000
1000
1000
1000
1000
2000
2000
2000
4000
4000
8000
8000
ENDCHAR
STARTCHAR 4E27
ENCODING 20007
SWIDTH 765 0
DWIDTH 17 0
BBX 15 21 1 -2
BITMAP
0100
0100
0100
7FFC
0110
1110
0920
0920
0100
FFFE
0800
0B04
0908
0898
08A0
0840
0820
0810
0818
080C
0806
ENDCHAR
STARTCHAR 4E28
ENCODING 20008
SWIDTH 765 0
DWIDTH 17 0
BBX 1 22 8 -2
BITMAP
80
80
80
80
80
80
80
80
80
80
80
80
80
80
80
80
80
80
80
80
80
80
ENDCHAR
STARTCHAR 4E2A
ENCODING 20010
SWIDTH 765 0
DWIDTH 17 0
BBX 15 22 1 -2
BITMAP
0100
0300
0300
0680
0440
0820
1810
1118
210C
4102
8100
0100
0100
0100
0100
0100
0100
0100
0100
0100
0100
0100
ENDCHAR
STARTCHAR 4E2B
ENCODING 20011
SWIDTH 720 0
DWIDTH 16 0
BBX 12 21 2 -2
BITMAP
8010
4010
4020
2040
1040
1080
0200
0200
0200
0200
0200
0200
0200
0200
0200
0200
0200
0200
0200
0200
0200
ENDCHAR
STARTCHAR 4E2C
ENCODING 20012
SWIDTH 765 0
DWIDTH 17 0
BBX 9 22 3 -2
BITMAP
0080
0080
0080
0080
4080
2080
1080
0880
0080
0080
0180
0280
0480
1880
6080
C080
0080
0080
0080
0080
0080
0080
ENDCHAR
STARTCHAR 4E2D
ENCODING 20013
SWIDTH 765 0
DWIDTH 17 0
BBX 13 22 2 -2
BITMAP
0200
0200
0200
0200
0200
FFF8
8208
8208
8208
8208
8208
FFF8
0200
0200
0200
0200
0200
0200
0200
0200
0200
0200
ENDCHAR
STARTCHAR 4E30
ENCODING 20016
SWIDTH 765 0
DWIDTH 17 0
BBX 15 22 1 -2
BITMAP
0100
0100
0100
0100
7FFC
0100
0100
0100
0100
3FF8
0100
0100
0100
FFFE
0100
0100
0100
0100
0100
0100
0100
0100
ENDCHAR
STARTCHAR 4E32
ENCODING 20018
SWIDTH 765 0
DWIDTH 17 0
BBX 13 22 2 -2
BITMAP
0200
0200
0200
7FF0
4210
4210
4210
7FF0
0200
0200
0200
FFF8
8208
8208
8208
FFF8
0200
0200
0200
0200
0200
0200
ENDCHAR
STARTCHAR 4E34
ENCODING 20020
SWIDTH 720 0
DWIDTH 16 0
BBX 14 22 1 -2
BITMAP
1100
1100
1100
11FC
1200
9200
9240
9420
9830
9000
9000
93FC
9244
9244
9244
9244
9244
1244
1244
1244
13FC
1000
ENDCHAR
STARTCHAR 4E36
ENCODING 20022
SWIDTH 720 0
DWIDTH 16 0
BBX 4 6 6 7
BITMAP
80
40
40
20
30
10
ENDCHAR
STARTCHAR 4E38
ENCODING 20024
SWIDTH 765 0
DWIDTH 17 0
BBX 15 21 2 -1
BITMAP
0800
0800
0800
0800
7FE0
0820
0820
0820
4820
3820
0820
0C20
1220
1020
1020
1020
2020
2020
4020
8024
003E
ENDCHAR
STARTCHAR 4E39
ENCODING 20025
SWIDTH 765 0
DWIDTH 17 0
BBX 15 20 1 -2
BITMAP
0FF0
0810
0810
0A10
0910
0990
0890
0810
0810
FFFE
0810
0810
1010
1010
1010
1010
2010
2010
4010
8010
ENDCHAR
STARTCHAR 4E3A
ENCODING 20026
SWIDTH 720 0
DWIDTH 16 0
BBX 13 21 1 -1
BITMAP
4400
2400
3400
1400
0400
7FF8
0408
0408
0408
0408
0508
0488
0888
0848
0808
0808
1008
1008
2008
4008
8008
ENDCHAR
STARTCHAR 4E3B
ENCODING 20027
SWIDTH 720 0
DWIDTH 16 0
BBX 14 20 1 -1
BITMAP
0200
0100
0000
7FF8
0100
0100
0100
0100
0100
0100
3FF0
0100
0100
0100
0100
0100
0100
0100
0100
FFFC
ENDCHAR
STARTCHAR 4E3D
ENCODING 20029
SWIDTH 765 0
DWIDTH 17 0
BBX 15 20 1 -3
BITMAP
FFFE
0000
0000
0000
7EFC
4284
4284
4284
5284
52A4
52A4
52A4
4A94
4284
4284
4284
4284
4284
4284
4284
ENDCHAR
STARTCHAR 4E3E
ENCODING 20030
SWIDTH 720 0
DWIDTH 16 0
BBX 14 21 1 -1
BITMAP
0210
2130
1120
0040
FFFC
0840
1920
1130
2118
5FEC
8104
0100
0100
0100
FFFC
0100
0100
0100
0100
0100
0100
ENDCHAR
STARTCHAR 4E3F
ENCODING 20031
SWIDTH 765 0
DWIDTH 17 0
BBX 6 21 3 -2
BITMAP
04
04
04
04
04
04
04
04
04
04
04
04
04
08
08
08
10
10
20
40
80
ENDCHAR
STARTCHAR 4E43
ENCODING 20035
SWIDTH 765 0
DWIDTH 17 0
BBX 14 20 1 -3
BITMAP
7FF8
0818
0810
0820
0860
0840
08FC
0804
0804
0804
0804
1004
1004
1004
1004
2004
2004
4004
8004
8004
ENDCHAR
STARTCHAR 4E45
ENCODING 20037
SWIDTH 765 0
DWIDTH 17 0
BBX 14 21 2 -2
BITMAP
0800
0800
0800
1FC0
1040
1080
2080
2080
4100
4180
0280
0280
0440
0440
0820
1020
1030
2010
4018
8008
0004
ENDCHAR
STARTCHAR 4E47
ENCODING 20039
SWIDTH 765 0
DWIDTH 17 0
BBX 15 21 1 -3
BITMAP
0008
00F0
0F00
3100
0100
0100
0100
0102
017C
0FC0
F900
0100
0100
0100
0100
0100
0100
0100
0100
0104
01FE
ENDCHAR
STARTCHAR 4E48
ENCODING 20040
SWIDTH 765 0
DWIDTH 17 0
BBX 13 21 2 -1
BITMAP
0200
0200
0400
0400
04C0
08C0
0880
1180
1180
2100
4300
8200
0600
0440
0840
0820
1010
2010
41F0
7E08
0008
ENDCHAR
STARTCHAR 4E49
ENCODING 20041
SWIDTH 765 0
DWIDTH 17 0
BBX 15 21 1 0
BITMAP
0200
0208
1118
1110
1010
1010
0820
0820
0460
0440
02C0
0280
0100
0100
0280
0440
0430
0818
100C
6002
8000
ENDCHAR
STARTCHAR 4E4B
ENCODING 20043
SWIDTH 765 0
DWIDTH 17 0
BBX 14 21 2 0
BITMAP
0200
0200
0200
7FF0
0030
0020
0040
00C0
0080
0180
0300
0200
0600
0C00
0800
1800
3000
2000
6000
F000
8FFC
ENDCHAR
STARTCHAR 4E4C
ENCODING 20044
SWIDTH 720 0
DWIDTH 16 0
BBX 13 20 1 -1
BITMAP
0200
0400
1FE0
1020
1020
1020
1020
1020
1000
1FF8
0008
0008
0008
0008
FFE8
0008
0008
0008
0008
0008
ENDCHAR
STARTCHAR 4E4D
ENCODING 20045
SWIDTH 765 0
DWIDTH 17 0
BBX 15 21 1 -1
BITMAP
0800
0800
1000
1FFE
2200
2200
4200
8200
03F8
0200
0200
0200
0200
03FC
0200
0200
0200
0200
0200
0200
0200
ENDCHAR
STARTCHAR 4E4E
ENCODING 20046
SWIDTH 765 0
DWIDTH 17 0
BBX 15 21 1 -1
BITMAP
00F0
7F00
0100
0108
2110
1110
0920
0920
0100
FFFE
0100
0100
0100
0100
0100
0100
0100
0100
0100
0100
0100
ENDCHAR
STARTCHAR 4E4F
ENCODING 20047
SWIDTH 765 0
DWIDTH 17 0
BBX 15 21 1 -2
BITMAP
0008
0078
0F80
3000
0100
0100
0100
3FF8
0018
0030
0060
0040
0080
0100
0200
0400
0C00
1800
3000
7000
CFFE
ENDCHAR
STARTCHAR 4E50
ENCODING 20048
SWIDTH 720 0
DWIDTH 16 0
BBX 14 21 1 -1
BITMAP
0070
0F80
3000
2000
2100
2100
2100
2100
2100
3FFC
0100
0900
1920
1110
1110
2108
2108
4104
8104
8100
0100
ENDCHAR
STARTCHAR 4E52
ENCODING 20050
SWIDTH 765 0
DWIDTH 17 0
BBX 15 21 1 -1
BITMAP
0030
00E0
0700
0800
0800
0800
0FFC
0840
0840
0840
0840
0840
0840
FFFE
0000
0400
0400
0800
1000
2000
4000
ENDCHAR
STARTCHAR 4E53
ENCODING 20051
SWIDTH 765 0
DWIDTH 17 0
BBX 15 21 1 -1
BITMAP
0030
00E0
0700
0800
0800
0800
0FFC
0840
0840
0840
0840
0840
0840
FFFE
0000
0040
0020
0010
0008
000C
0004
ENDCHAR
STARTCHAR 4E54
ENCODING 20052
SWIDTH 810 0
DWIDTH 18 0
BBX 15 22 2 -2
BITMAP
0010
01E0
7E00
0200
0200
0200
FFFC
0480
0840
0860
1030
2018
484C
8846
0840
0840
0840
1040
1040
2040
2040
4040
ENDCHAR
STARTCHAR 4E56
ENCODING 20054
SWIDTH 720 0
DWIDTH 16 0
BBX 14 22 1 -2
BITMAP
0010
01E0
7F00
0100
0100
FFFC
0100
0100
0920
0920
792C
0930
0920
0920
3920
C928
093C
0100
0100
0100
0100
0100
ENDCHAR
STARTCHAR 4E58
ENCODING 20056
SWIDTH 810 0
DWIDTH 18 0
BBX 15 21 2 -1
BITMAP
00F0
7F00
0100
0100
FFFC
0100
0920
7928
0930
0920
3920
CBA8
0BBC
0540
0D20
0920
1110
2108
410C
8106
0100
ENDCHAR
STARTCHAR 4E59
ENCODING 20057
SWIDTH 765 0
DWIDTH 17 0
BBX 13 20 3 -2
BITMAP
7FE0
0060
0040
0080
0080
0100
0100
0200
0400
0400
0800
0800
1000
2000
2000
4000
4000
8000
8008
7FF8
ENDCHAR
STARTCHAR 4E5C
ENCODING 20060
SWIDTH 720 0
DWIDTH 16 0
BBX 14 21 1 -1
BITMAP
1000
1000
1000
1010
10F0
1390
1E10
7010
D010
1010
1010
1010
1010
1010
1000
1000
1000
1000
1000
1004
0FFC
ENDCHAR
STARTCHAR 4E5D
ENCODING 20061
SWIDTH 810 0
DWIDTH 18 0
BBX 15 21 2 -1
BITMAP
0800
0800
0800
0800
7FE0
0820
0820
0820
0820
0820
0820
0820
1020
1020
1020
2020
2020
4020
4020
8024
003E
ENDCHAR
STARTCHAR 4E5E
ENCODING 20062
SWIDTH 810 0
DWIDTH 18 0
BBX 16 22 1 -2
BITMAP
0800
0800
0800
1FFE
1000
3000
2000
4000
9FF0
0030
0060
0040
0080
0100
0300
0600
0400
0800
1800
1000
1002
0FFF
ENDCHAR
STARTCHAR 4E5F
ENCODING 20063
SWIDTH 765 0
DWIDTH 17 0
BBX 15 21 1 -2
BITMAP
0100
0100
1100
1118
1178
1388
1F08
3908
D108
1108
1108
1108
1108
1108
1100
1100
1000
1000
1000
1004
0FFE
ENDCHAR
STARTCHAR 4E60
ENCODING 20064
SWIDTH 765 0
DWIDTH 17 0
BBX 11 20 3 -2
BITMAP
FFE0
0020
0020
2020
1020
0820
0820
0420
0020
0120
0220
0420
0820
3020
E020
8020
0020
0020
0020
0020
ENDCHAR
STARTCHAR 4E61
ENCODING 20065
SWIDTH 720 0
DWIDTH 16 0
BBX 12 21 2 -1
BITMAP
0400
0400
0800
0840
1080
2180
4100
7E00
0410
0C10
1820
1020
20C0
7F80
0080
0100
0200
0400
1800
2000
C000
ENDCHAR
STARTCHAR 4E66
ENCODING 20070
SWIDTH 765 0
DWIDTH 17 0
BBX 14 22 1 -3
BITMAP
0200
0200
0210
0208
3FEC
0220
0220
0220
0220
0220
FFFC
0204
0204
0204
0204
0204
0204
0204
0204
0204
0200
0200
ENDCHAR
STARTCHAR 4E69
ENCODING 20073
SWIDTH 765 0
DWIDTH 17 0
BBX 15 21 1 -1
BITMAP
1040
1040
1040
1040
1F40
1040
1040
1040
1040
1040
FE40
8240
8240
8240
8240
8240
8240
8240
8240
8244
FE3E
ENDCHAR
STARTCHAR 4E70
ENCODING 20080
SWIDTH 720 0
DWIDTH 16 0
BBX 14 20 1 -2
BITMAP
3FF8
0008
2108
1108
0900
2500
3100
1100
0900
0100
FFFC
0200
0200
0300
04C0
0C20
0810
1008
2004
C000
ENDCHAR
STARTCHAR 4E71
ENCODING 20081
SWIDTH 810 0
DWIDTH 18 0
BBX 16 21 1 -1
BITMAP
0320
0E20
3820
0820
0820
0820
FFA0
0820
0820
0820
0820
7F20
4120
4120
4120
4120
4120
4120
4120
4122
7F1F
ENDCHAR
STARTCHAR 4E73
ENCODING 20083
SWIDTH 765 0
DWIDTH 17 0
BBX 15 22 1 -1
BITMAP
00A0
07A0
1C20
60A0
0920
4D20
2E20
0020
7F20
0320
0620
0CA0
0F20
3820
C820
0820
0820
0820
0820
0822
083E
0800
ENDCHAR
STARTCHAR 4E7E
ENCODING 20094
SWIDTH 720 0
DWIDTH 16 0
BBX 16 20 0 -1
BITMAP
0820
0860
FF40
087E
0880
7E80
4200
427C
7E04
4208
4208
7E10
0810
0820
0820
FFC0
0840
0880
0882
087F
ENDCHAR
STARTCHAR 4E86
ENCODING 20102
SWIDTH 765 0
DWIDTH 17 0
BBX 12 20 2 -2
BITMAP
FFF0
0030
0060
00C0
0180
0300
0200
0200
0200
0200
0200
0200
0200
0200
0200
0200
0200
0200
0200
0200
ENDCHAR
STARTCHAR 4E88
ENCODING 20104
SWIDTH 765 0
DWIDTH 17 0
BBX 14 19 1 -2
BITMAP
3FF8
0010
0460
0280
0100
0180
FFFC
0104
0104
0104
0100
0100
0100
0100
0100
0100
0100
0100
0100
ENDCHAR
STARTCHAR 4E89
ENCODING 20105
SWIDTH 765 0
DWIDTH 17 0
BBX 15 21 1 -2
BITMAP
0800
0800
1FC0
1040
2080
4080
7FF8
0108
0108
0108
FFFE
0108
0108
0108
3FF8
0100
0100
0100
0100
0100
0100
ENDCHAR
STARTCHAR 4E8B
ENCODING 20107
SWIDTH 765 0
DWIDTH 17 0
BBX 16 22 0 -2
BITMAP
0100
0100
7FFE
0100
0100
1FF0
1110
1110
1FF0
0100
0100
3FF8
0108
0108
FFFF
0108
0108
3FF8
0100
0100
0100
0100
ENDCHAR
STARTCHAR 4E8C
ENCODING 20108
SWIDTH 765 0
DWIDTH 17 0
BBX 15 17 1 -1
BITMAP
7FF8
0000
0000
0000
0000
0000
0000
0000
0000
0000
0000
0000
0000
0000
0000
0000
FFFE
ENDCHAR
STARTCHAR 4E8D
ENCODING 20109
SWIDTH 765 0
DWIDTH 17 0
BBX 15 20 1 -3
BITMAP
3FF8
0000
0000
0000
0000
0000
FFFE
0100
0100
0100
0100
0100
0100
0100
0100
0100
0100
0100
0100
0100
ENDCHAR
STARTCHAR 4E8E
ENCODING 20110
SWIDTH 720 0
DWIDTH 16 0
BBX 14 20 1 -2
BITMAP
3FF8
0200
0200
0200
0200
0200
0200
FFFC
0200
0200
0200
0200
0200
0200
0200
0200
0200
0200
0200
0200
ENDCHAR
STARTCHAR 4E8F
ENCODING 20111
SWIDTH 765 0
DWIDTH 17 0
BBX 15 20 1 -3
BITMAP
3FF8
0000
0000
0000
0000
FFFE
0800
0800
0800
0800
0FF0
0010
0010
0010
0010
0010
0010
0010
0010
0010
ENDCHAR
STARTCHAR 4E91
ENCODING 20113
SWIDTH 720 0
DWIDTH 16 0
BBX 14 20 1 -3
BITMAP
3FF0
0000
0000
0000
0000
0000
0000
FFFC
0400
0400
0400
0800
0840
0840
1020
1020
2010
20F0
7F08
0008
ENDCHAR
STARTCHAR 4E92
ENCODING 20114
SWIDTH 765 0
DWIDTH 17 0
BBX 15 19 1 -1
BITMAP
FFFC
0800
0800
0800
0800
0FE0
0820
0820
0820
0820
0820
0820
0FE0
0020
0020
0020
0020
0020
FFFE
ENDCHAR
STARTCHAR 4E93
ENCODING 20115
SWIDTH 765 0
DWIDTH 17 0
BBX 15 20 1 -2
BITMAP
3FF8
0000
0000
0000
0000
0000
FFFE
0820
0820
0820
0820
0820
1020
1020
1020
1020
2020
2020
4020
8020
ENDCHAR
STARTCHAR 4E94
ENCODING 20116
SWIDTH 765 0
DWIDTH 17 0
BBX 15 19 1 -1
BITMAP
7FFC
0200
0200
0200
0200
0200
0200
1FF0
0210
0210
0210
0410
0410
0410
0410
0410
0410
0410
FFFE
ENDCHAR
STARTCHAR 4E95
ENCODING 20117
SWIDTH 765 0
DWIDTH 17 0
BBX 15 21 1 -3
BITMAP
0420
0420
0420
0420
7FFC
0420
0420
0420
0420
0420
0420
FFFE
0420
0820
0820
0820
1020
1020
2020
4020
0020
ENDCHAR
STARTCHAR 4E98
ENCODING 20120
SWIDTH 765 0
DWIDTH 17 0
BBX 15 19 1 -1
BITMAP
7FFC
0000
0000
0000
1FF0
1010
1010
1010
1010
1FF0
1010
1010
1010
1010
1FF0
0000
0000
0000
FFFE
ENDCHAR
STARTCHAR 4E9A
ENCODING 20122
SWIDTH 720 0
DWIDTH 16 0
BBX 14 19 1 -2
BITMAP
7FF8
0480
0480
0480
0488
4488
4498
2490
2490
2490
24A0
14A0
14C0
14C0
0480
0480
0480
0480
FFFC
ENDCHAR
STARTCHAR 4E9B
ENCODING 20123
SWIDTH 765 0
DWIDTH 17 0
BBX 15 20 1 -1
BITMAP
0440
0440
2444
2448
2750
2460
2440
2440
2440
2440
2544
2E7E
F000
0000
0000
3FF0
0000
0000
0000
FFFE
ENDCHAR
STARTCHAR 4E9F
ENCODING 20127
SWIDTH 765 0
DWIDTH 17 0
BBX 15 20 1 -1
BITMAP
1FF0
0020
0040
0080
0100
7D7C
4508
4548
4528
4518
4518
4518
4518
4524
7D24
0144
0100
0100
0000
FFFE
ENDCHAR
STARTCHAR 4EA0
ENCODING 20128
SWIDTH 810 0
DWIDTH 18 0
BBX 16 5 1 15
BITMAP
0100
0100
0100
0100
FFFF
ENDCHAR
STARTCHAR 4EA1
ENCODING 20129
SWIDTH 765 0
DWIDTH 17 0
BBX 15 21 1 -2
BITMAP
0100
0100
0100
0100
FFFE
0800
0800
0800
0800
0800
0800
0800
0800
0800
0800
0800
0800
0800
0800
0800
0FFC
ENDCHAR
STARTCHAR 4EA2
ENCODING 20130
SWIDTH 765 0
DWIDTH 17 0
BBX 15 20 1 -2
BITMAP
0100
0100
FFFC
0000
0000
0000
0FE0
0820
0820
0820
0820
0820
0820
0820
1020
1020
1020
2024
2024
403E
ENDCHAR
STARTCHAR 4EA4
ENCODING 20132
SWIDTH 765 0
DWIDTH 17 0
BBX 15 22 1 -1
BITMAP
0100
0100
FFFE
0000
0840
1820
1010
2010
2048
4840
0880
0480
0280
0100
0300
0680
0440
0860
1030
201C
4004
8000
ENDCHAR
STARTCHAR 4EA5
ENCODING 20133
SWIDTH 810 0
DWIDTH 18 0
BBX 15 21 2 -1
BITMAP
0100
0100
FFFE
0400
0440
0840
1080
2080
3F10
0130
0220
0460
0840
1080
6180
8340
0620
0C10
1008
200C
C004
ENDCHAR
STARTCHAR 4EA6
ENCODING 20134
SWIDTH 765 0
DWIDTH 17 0
BBX 15 22 1 -2
BITMAP
0100
0100
0100
FFFE
0440
0440
0440
0440
2440
2440
2448
4444
4442
8842
8840
0840
0840
1040
1040
2040
4040
8040
ENDCHAR
STARTCHAR 4EA7
ENCODING 20135
SWIDTH 765 0
DWIDTH 17 0
BBX 15 21 1 -2
BITMAP
0080
0080
3FFE
0000
0410
0410
0220
0000
1FFE
1000
1000
1000
1000
1000
1000
2000
2000
2000
4000
4000
8000
ENDCHAR
STARTCHAR 4EA8
ENCODING 20136
SWIDTH 765 0
DWIDTH 17 0
BBX 15 21 1 -2
BITMAP
0100
0100
FFFE
0000
0000
1FE0
1020
1020
1FE0
0000
3FF0
0020
0040
0080
0100
0100
0100
0100
0100
0100
0100
ENDCHAR
STARTCHAR 4EA9
ENCODING 20137
SWIDTH 765 0
DWIDTH 17 0
BBX 15 21 1 0
BITMAP
0100
0100
FFFE
0000
0000
0000
3FF0
2110
2110
2110
2110
2110
2110
3FF0
2110
2110
2110
2110
2110
2110
3FF0
ENDCHAR
STARTCHAR 4EAB
ENCODING 20139
SWIDTH 765 0
DWIDTH 17 0
BBX 15 22 1 -3
BITMAP
0100
0100
FFFC
0000
0000
1FF0
1010
1010
1FF0
0000
0000
1FF0
0020
00C0
0100
FFFE
0100
0100
0100
0100
0100
0100
ENDCHAR
STARTCHAR 4EAC
ENCODING 20140
SWIDTH 765 0
DWIDTH 17 0
BBX 15 23 1 -2
BITMAP
0100
0100
FFFE
0000
0000
0000
1FF0
1010
1010
1010
1010
1010
1FF0
0100
0900
1920
1110
3108
2108
4104
4104
8100
0100
ENDCHAR
STARTCHAR 4EAD
ENCODING 20141
SWIDTH 720 0
DWIDTH 16 0
BBX 14 22 1 -3
BITMAP
0100
0100
FFFC
0000
0000
1FE0
1020
1020
1FE0
0000
0000
FFFC
8004
8004
3FF0
0100
0100
0100
0100
0100
0100
0100
ENDCHAR
STARTCHAR 4EAE
ENCODING 20142
SWIDTH 720 0
DWIDTH 16 0
BBX 14 22 1 -2
BITMAP
0200
0200
FFFC
0000
0000
1FE0
1020
1020
1FE0
0000
FFFC
8004
8004
0FC0
0840
0840
0840
1040
1040
2044
207C
C000
ENDCHAR
STARTCHAR 4EB2
ENCODING 20146
SWIDTH 720 0
DWIDTH 16 0
BBX 14 22 1 -2
BITMAP
0100
0100
3FF8
0000
0000
0040
0480
0080
FFFC
0100
0100
0100
7FF8
0100
0900
0920
1910
1110
2108
210C
4104
8100
ENDCHAR
STARTCHAR 4EB3
ENCODING 20147
SWIDTH 765 0
DWIDTH 17 0
BBX 15 20 1 -1
BITMAP
0200
FFF8
0000
1FE0
1020
1020
1FE0
0000
FFF8
8028
80E8
0F00
1200
020C
03F0
FE00
0200
0200
0204
03FE
ENDCHAR
STARTCHAR 4EB5
ENCODING 20149
SWIDTH 810 0
DWIDTH 18 0
BBX 15 22 2 -3
BITMAP
0200
0200
FFFC
0000
1080
1080
7FF0
1090
1790
1990
F150
121C
1408
1200
0408
0818
1920
28C0
4820
8810
080C
0806
ENDCHAR
STARTCHAR 4EBA
ENCODING 20154
SWIDTH 720 0
DWIDTH 16 0
BBX 14 22 1 -2
BITMAP
0200
0200
0200
0200
0200
0200
0200
0600
0500
0500
0500
0480
0880
0840
0840
1060
1020
1030
2010
4018
4008
8004
ENDCHAR
STARTCHAR 4EBB
ENCODING 20155
SWIDTH 720 0
DWIDTH 16 0
BBX 6 22 0 -2
BITMAP
04
0C
08
08
10
10
30
30
50
90
10
10
10
10
10
10
10
10
10
10
10
10
ENDCHAR
STARTCHAR 4EBF
ENCODING 20159
SWIDTH 765 0
DWIDTH 17 0
BBX 16 22 0 -1
BITMAP
0800
0800
0BFC
1004
1008
1008
3010
3010
5030
9020
1060
1040
10C0
1080
1180
1100
1100
1200
1200
1202
13FF
1000
ENDCHAR
STARTCHAR 4EC0
ENCODING 20160
SWIDTH 765 0
DWIDTH 17 0
BBX 16 22 0 -2
BITMAP
0420
0C20
0820
0820
1020
1020
3020
3020
57FF
9020
1020
1020
1020
1020
1020
1020
1020
1020
1020
1020
1020
1020
ENDCHAR
STARTCHAR 4EC1
ENCODING 20161
SWIDTH 765 0
DWIDTH 17 0
BBX 15 22 1 -3
BITMAP
0C00
0C00
0800
1BFC
1000
3000
3000
5000
9000
1000
1000
1000
1000
1000
1000
1000
1000
1000
1000
17FE
1000
1000
ENDCHAR
STARTCHAR 4EC2
ENCODING 20162
SWIDTH 720 0
DWIDTH 16 0
BBX 15 21 0 -2
BITMAP
0440
0C40
0840
0840
13FE
1042
3042
5042
9042
1042
1042
1042
1082
1082
1082
1082
1102
1102
1202
1402
1402
ENDCHAR
STARTCHAR 4EC3
ENCODING 20163
SWIDTH 765 0
DWIDTH 17 0
BBX 16 22 0 -1
BITMAP
0800
0800
0BFF
1010
1010
1010
3010
3010
5010
9010
1010
1010
1010
1010
1010
1010
1010
1010
1010
1010
1010
1030
ENDCHAR
STARTCHAR 4EC4
ENCODING 20164
SWIDTH 765 0
DWIDTH 17 0
BBX 15 21 1 -2
BITMAP
3FFE
2000
2040
2040
2040
2040
2040
2040
20A0
20A0
20A0
20A0
2110
4110
4110
4208
4208
4404
8404
8806
1002
ENDCHAR
STARTCHAR 4EC5
ENCODING 20165
SWIDTH 765 0
DWIDTH 17 0
BBX 16 21 0 -1
BITMAP
0800
0BFC
0904
1104
1104
3088
3088
5088
9088
1050
1050
1030
1020
1030
1050
1058
1088
1104
1106
1202
1401
ENDCHAR
STARTCHAR 4EC6
ENCODING 20166
SWIDTH 720 0
DWIDTH 16 0
BBX 15 22 1 -2
BITMAP
0440
0C40
0840
0840
1040
1040
3040
5040
5070
9048
1044
1046
1040
1040
1040
1040
1040
1040
1040
1040
1040
1040
ENDCHAR
STARTCHAR 4EC7
ENCODING 20167
SWIDTH 720 0
DWIDTH 16 0
BBX 16 21 0 -1
BITMAP
0C80
0880
0880
1080
17F8
3088
3088
5088
9088
1088
1088
1088
1108
1108
1108
1108
1208
1208
1408
140A
180F
ENDCHAR
STARTCHAR 4EC9
ENCODING 20169
SWIDTH 810 0
DWIDTH 18 0
BBX 16 21 1 -1
BITMAP
0800
09F8
0908
1108
1108
3108
3108
5108
9108
1108
1108
1108
1108
1108
1208
1208
1208
1208
1408
140A
100F
ENDCHAR
STARTCHAR 4ECA
ENCODING 20170
SWIDTH 765 0
DWIDTH 17 0
BBX 14 22 2 -3
BITMAP
0200
0400
0600
0900
1880
1040
2420
4430
8218
000C
0000
7FE0
0020
0040
0040
00C0
0080
0180
0100
0300
0200
0200
ENDCHAR
STARTCHAR 4ECB
ENCODING 20171
SWIDTH 720 0
DWIDTH 16 0
BBX 14 21 1 -1
BITMAP
0200
0200
0500
0480
0840
1020
1030
2018
4844
8840
0840
0840
0840
0840
1040
1040
1040
2040
2040
4040
0040
ENDCHAR
STARTCHAR 4ECD
ENCODING 20173
SWIDTH 765 0
DWIDTH 17 0
BBX 16 20 0 0
BITMAP
0BFC
0884
1084
1084
3084
3088
508F
9081
1081
1081
1081
1081
1101
1101
1101
1101
1201
1201
1401
1001
ENDCHAR
STARTCHAR 4ECE
ENCODING 20174
SWIDTH 765 0
DWIDTH 17 0
BBX 16 21 0 -2
BITMAP
0410
0410
0410
0410
0410
0410
0410
0410
0C30
0C28
0A28
0A28
0928
1144
1144
1044
2086
2082
4102
8203
8200
ENDCHAR
STARTCHAR 4ED1
ENCODING 20177
SWIDTH 765 0
DWIDTH 17 0
BBX 14 21 1 -1
BITMAP
0100
0300
0280
0440
0440
0820
1010
2008
4804
8804
0830
0860
0880
0B00
0C00
0800
0800
0800
0800
0810
0FF8
ENDCHAR
STARTCHAR 4ED3
ENCODING 20179
SWIDTH 765 0
DWIDTH 17 0
BBX 14 21 2 -2
BITMAP
0200
0200
0500
0C80
08C0
1060
2030
4018
9FCC
1044
1040
1040
1040
1040
1040
1040
1000
1000
1000
1010
0FF8
ENDCHAR
STARTCHAR 4ED4
ENCODING 20180
SWIDTH 720 0
DWIDTH 16 0
BBX 15 21 0 -2
BITMAP
1000
13F8
1008
2010
2030
2020
6040
A040
A040
2FFE
2040
2040
2040
2040
2040
2040
2040
2040
2040
2040
2040
ENDCHAR
STARTCHAR 4ED5
ENCODING 20181
SWIDTH 720 0
DWIDTH 16 0
BBX 15 21 0 -1
BITMAP
0C20
0820
0820
1820
1020
1020
3020
57FE
9020
1020
1020
1020
1020
1020
1020
1020
1020
1020
1020
13FE
1000
ENDCHAR
STARTCHAR 4ED6
ENCODING 20182
SWIDTH 765 0
DWIDTH 17 0
BBX 16 21 0 -2
BITMAP
0420
0C20
0920
0920
112C
113C
31E4
53A4
9724
1124
1124
1124
1124
1124
1120
1120
1100
1100
1102
1102
10FF
ENDCHAR
STARTCHAR 4ED7
ENCODING 20183
SWIDTH 720 0
DWIDTH 16 0
BBX 15 21 0 -2
BITMAP
0410
0C10
0810
0810
17FE
1010
3010
5010
9210
1210
1110
1130
10A0
10E0
1060
1060
10F0
1098
110C
1206
1402
ENDCHAR
STARTCHAR 4ED8
ENCODING 20184
SWIDTH 765 0
DWIDTH 17 0
BBX 15 22 1 -2
BITMAP
0408
0C08
0808
0808
1008
1008
37FE
5008
5008
9008
1208
1108
1188
1088
1088
1008
1008
1008
1008
1008
1008
1008
ENDCHAR
STARTCHAR 4ED9
ENCODING 20185
SWIDTH 720 0
DWIDTH 16 0
BBX 14 22 1 -3
BITMAP
0840
0840
1040
1040
2040
2040
6444
A444
2444
2444
2444
2444
2444
2444
2444
2444
2444
2444
2444
2444
27FC
2000
ENDCHAR
STARTCHAR 4EDD
ENCODING 20189
SWIDTH 765 0
DWIDTH 17 0
BBX 14 21 2 -2
BITMAP
0200
0600
0500
0880
08C0
1060
2030
4018
800C
3FE4
0200
0200
0200
0200
0200
0200
0200
0200
0200
0200
FFFC
ENDCHAR
STARTCHAR 4EDE
ENCODING 20190
SWIDTH 720 0
DWIDTH 16 0
BBX 14 22 1 -1
BITMAP
0400
0400
0BFC
0844
1044
1044
3044
5244
9244
9244
1244
1444
1084
1084
1084
1084
1104
1104
1204
1204
1404
1004
ENDCHAR
STARTCHAR 4EDF
ENCODING 20191
SWIDTH 765 0
DWIDTH 17 0
BBX 16 22 0 -3
BITMAP
0400
040C
0870
09A0
1020
1020
3020
3020
5020
97FF
1020
1020
1020
1020
1020
1020
1020
1020
1020
1020
1020
1020
ENDCHAR
STARTCHAR 4EE1
ENCODING 20193
SWIDTH 765 0
DWIDTH 17 0
BBX 16 21 0 -1
BITMAP
0500
0900
0900
0BFE
1200
1400
3400
53F8
9018
1010
1030
1060
1040
10C0
1080
1100
1300
1200
1202
11FF
1000
ENDCHAR
STARTCHAR 4EE3
ENCODING 20195
SWIDTH 765 0
DWIDTH 17 0
BBX 15 21 1 -1
BITMAP
0480
0C80
0890
1888
1088
3080
3086
51FC
97C0
1040
1040
1040
1040
1040
1060
1020
1020
1020
1010
101A
100E
ENDCHAR
STARTCHAR 4EE4
ENCODING 20196
SWIDTH 810 0
DWIDTH 18 0
BBX 15 21 2 -2
BITMAP
0300
0300
0480
0C40
0820
1230
2118
C10E
0006
0000
3FE0
0020
0040
0040
0880
0480
0280
0300
0180
0080
0040
ENDCHAR
STARTCHAR 4EE5
ENCODING 20197
SWIDTH 765 0
DWIDTH 17 0
BBX 14 22 2 -2
BITMAP
0040
9040
9040
8840
8840
8440
8440
8080
8080
8080
8080
8080
8100
8140
8120
8220
8210
8418
8408
8808
1004
2000
ENDCHAR
STARTCHAR 4EE8
ENCODING 20200
SWIDTH 720 0
DWIDTH 16 0
BBX 15 21 0 -2
BITMAP
0400
0800
0BFE
1000
1000
3000
3000
5000
9000
1000
11FC
1000
1000
1000
1000
1000
1000
1000
1000
17FE
1000
ENDCHAR
STARTCHAR 4EEA
ENCODING 20202
SWIDTH 720 0
DWIDTH 16 0
BBX 16 22 0 -2
BITMAP
0480
0480
0840
0864
1024
1204
3204
3108
5108
9108
1098
10D0
1050
1060
1020
1050
1058
1088
1104
1206
1403
1400
ENDCHAR
STARTCHAR 4EEB
ENCODING 20203
SWIDTH 765 0
DWIDTH 17 0
BBX 15 22 1 -2
BITMAP
0400
0C20
0840
0840
1040
1080
3098
5118
9210
9210
1410
1020
1020
1040
1048
1088
1084
1104
1302
123E
17C2
1002
ENDCHAR
STARTCHAR 4EEC
ENCODING 20204
SWIDTH 720 0
DWIDTH 16 0
BBX 15 22 0 -1
BITMAP
0A00
0900
09BE
1002
1202
1202
3202
3202
5202
9202
1202
1202
1202
1202
1202
1202
1202
1202
1202
1202
1202
1202
ENDCHAR
STARTCHAR 4EEE
ENCODING 20206
SWIDTH 765 0
DWIDTH 17 0
BBX 16 22 0 -1
BITMAP
040C
0C70
0980
0900
1100
1100
3100
51FC
9184
1144
1148
1148
1128
1130
1210
1230
1228
1248
1444
1482
1903
1900
ENDCHAR
STARTCHAR 4EF0
ENCODING 20208
SWIDTH 765 0
DWIDTH 17 0
BBX 16 21 0 -2
BITMAP
0820
08C0
0B1F
1211
1211
3211
3211
5211
9211
1211
1211
1211
1211
1211
1211
1211
1010
1010
1010
1010
1010
ENDCHAR
STARTCHAR 4EF2
ENCODING 20210
SWIDTH 720 0
DWIDTH 16 0
BBX 15 22 0 -2
BITMAP
0420
0C20
0820
0820
1020
13FE
3222
3222
5222
9222
1222
1222
1222
13FE
1020
1020
1020
1020
1020
1020
1020
1020
ENDCHAR
STARTCHAR 4EF3
ENCODING 20211
SWIDTH 720 0
DWIDTH 16 0
BBX 15 21 0 -3
BITMAP
1220
1220
1220
2220
2226
2224
622C
63A8
A230
2220
2220
2220
2220
2220
2220
2220
2220
2220
2220
2224
223E
ENDCHAR
STARTCHAR 4EF5
ENCODING 20213
SWIDTH 765 0
DWIDTH 17 0
BBX 16 21 0 -1
BITMAP
0480
0C80
0900
11FE
1120
3220
5220
5420
9020
1020
17FF
1020
1020
1020
1020
1020
1020
1020
1020
1020
1020
ENDCHAR
STARTCHAR 4EF6
ENCODING 20214
SWIDTH 720 0
DWIDTH 16 0
BBX 15 22 1 -2
BITMAP
0040
0840
0A40
1240
1240
23FC
2440
6440
A840
2840
2040
2FFE
2040
2040
2040
2040
2040
2040
2040
2040
2040
2040
ENDCHAR
STARTCHAR 4EF7
ENCODING 20215
SWIDTH 765 0
DWIDTH 17 0
BBX 16 22 0 -2
BITMAP
0420
0C60
0860
0850
1088
110C
3106
3203
5488
9088
1088
1088
1088
1088
1088
1108
1108
1108
1208
1208
1408
1008
ENDCHAR
STARTCHAR 4EFB
ENCODING 20219
SWIDTH 720 0
DWIDTH 16 0
BBX 15 22 0 -1
BITMAP
0400
0C04
0878
09A0
1020
1020
3020
3020
5020
9020
17FE
1020
1020
1020
1020
1020
1020
1020
1020
1020
13FE
1000
ENDCHAR
STARTCHAR 4EFD
ENCODING 20221
SWIDTH 765 0
DWIDTH 17 0
BBX 16 21 0 -2
BITMAP
0480
08A0
0890
1110
1108
1108
3204
5206
9403
13FA
1088
1088
1088
1088
1088
1108
1108
1108
1208
1208
1408
ENDCHAR
STARTCHAR 4EFF
ENCODING 20223
SWIDTH 720 0
DWIDTH 16 0
BBX 15 22 1 -1
BITMAP
0840
0840
1040
17FE
2100
2100
6100
A100
21F8
2108
2108
2108
2108
2108
2208
2208
2208
2208
2408
2408
2808
2800
ENDCHAR
STARTCHAR 4F01
ENCODING 20225
SWIDTH 810 0
DWIDTH 18 0
BBX 15 21 2 -2
BITMAP
0200
0200
0700
0480
0880
1060
1030
2118
C10C
0106
0100
1100
11F0
1100
1100
1100
1100
1100
1100
1100
FFFC
ENDCHAR
STARTCHAR 4F09
ENCODING 20233
SWIDTH 720 0
DWIDTH 16 0
BBX 16 21 0 -2
BITMAP
0420
0420
0C20
0BFE
1000
1000
30F8
5088
9088
1088
1088
1088
1088
1088
1088
1108
1108
1108
1208
120A
140F
ENDCHAR
STARTCHAR 4F0A
ENCODING 20234
SWIDTH 765 0
DWIDTH 17 0
BBX 16 22 0 -2
BITMAP
0800
0800
09FE
0842
1042
1042
37FF
3042
5042
9042
1042
13FE
1040
1080
1080
1080
1100
1100
1100
1200
1400
1000
ENDCHAR
STARTCHAR 4F0D
ENCODING 20237
SWIDTH 765 0
DWIDTH 17 0
BBX 15 21 1 0
BITMAP
1000
17FC
1100
2100
2100
6100
A100
27F0
2110
2110
2110
2110
2110
2110
2310
2210
2210
2210
2210
2FFE
2000
ENDCHAR
STARTCHAR 4F0E
ENCODING 20238
SWIDTH 765 0
DWIDTH 17 0
BBX 16 22 0 -2
BITMAP
0420
0420
0820
0BFE
1020
1020
3020
5020
93FC
1108
1108
1088
1050
1050
1020
1020
1050
1088
110C
1106
1203
1400
ENDCHAR
STARTCHAR 4F0F
ENCODING 20239
SWIDTH 720 0
DWIDTH 16 0
BBX 15 22 0 -1
BITMAP
0C40
0C50
0850
1848
1048
1040
37FE
5040
9040
1060
1060
10A0
10A0
1090
1090
1110
1108
1208
1204
1406
1802
1800
ENDCHAR
STARTCHAR 4F10
ENCODING 20240
SWIDTH 765 0
DWIDTH 17 0
BBX 16 22 0 -2
BITMAP
0440
0C50
0848
0844
1044
1040
307E
57C0
5040
9040
1042
1044
1044
1068
1038
1030
1020
1050
1098
110D
1207
1000
ENDCHAR
STARTCHAR 4F11
ENCODING 20241
SWIDTH 765 0
DWIDTH 17 0
BBX 16 22 1 -2
BITMAP
0440
0440
0840
0840
1040
17FE
3150
5150
9148
9148
1148
1148
1248
1244
1244
1246
1442
1443
1040
1040
1040
1040
ENDCHAR
STARTCHAR 4F17
ENCODING 20247
SWIDTH 765 0
DWIDTH 17 0
BBX 15 21 1 -2
BITMAP
0100
0200
0300
0480
0840
0820
1010
2858
484E
8842
0840
0840
0860
18A0
14A0
1490
2710
2308
4208
420C
8406
ENDCHAR
STARTCHAR 4F18
ENCODING 20248
SWIDTH 720 0
DWIDTH 16 0
BBX 16 21 0 -1
BITMAP
0C90
0888
0888
1084
1080
37FE
3090
5090
9090
1090
1090
1090
1110
1110
1110
1110
1210
1210
1410
1412
181F
ENDCHAR
STARTCHAR 4F19
ENCODING 20249
SWIDTH 765 0
DWIDTH 17 0
BBX 16 22 0 -2
BITMAP
0420
0420
0C20
0820
0826
1226
3224
3224
5264
9268
1268
1050
1050
10D0
10C8
1088
1088
1104
1104
1206
1203
1401
ENDCHAR
STARTCHAR 4F1A
ENCODING 20250
SWIDTH 765 0
DWIDTH 17 0
BBX 15 21 1 -1
BITMAP
0100
0300
0680
0440
0860
1030
1018
2FCC
4006
8000
0000
7FF8
0200
0600
0400
0C40
0820
1020
23D0
3C18
0008
ENDCHAR
STARTCHAR 4F1B
ENCODING 20251
SWIDTH 765 0
DWIDTH 17 0
BBX 16 21 0 -1
BITMAP
0400
0DFE
0900
0900
1102
1144
3144
5124
9114
1118
1108
1118
1114
1124
1126
1142
1182
1180
1100
11FF
1000
ENDCHAR
STARTCHAR 4F1E
ENCODING 20254
SWIDTH 765 0
DWIDTH 17 0
BBX 15 22 1 -2
BITMAP
0100
0300
0280
0440
0820
0930
1118
2104
4112
9110
0920
0940
0140
FFFE
0100
0100
0100
0100
0100
0100
0100
0100
ENDCHAR
STARTCHAR 4F1F
ENCODING 20255
SWIDTH 720 0
DWIDTH 16 0
BBX 15 22 0 -2
BITMAP
0420
0C20
0820
0FFE
1020
1020
3020
53FC
5020
9020
1020
17FE
1022
1022
1022
1022
1022
1022
1022
1020
1020
1020
ENDCHAR
STARTCHAR 4F20
ENCODING 20256
SWIDTH 765 0
DWIDTH 17 0
BBX 16 22 1 -2
BITMAP
0420
0C20
0860
0840
1BFC
1040
30C0
3080
57FF
9080
1180
1100
1100
11FC
1008
1008
1010
1190
1060
1020
1030
1018
ENDCHAR
STARTCHAR 4F22
ENCODING 20258
SWIDTH 765 0
DWIDTH 17 0
BBX 16 21 0 -2
BITMAP
0400
0FFF
0808
0808
1108
1108
3108
5108
91FF
1048
1048
1048
1088
1088
1088
1108
1108
1208
1208
1408
1008
ENDCHAR
STARTCHAR 4F24
ENCODING 20260
SWIDTH 765 0
DWIDTH 17 0
BBX 16 22 0 -2
BITMAP
0480
0C80
0980
09FF
1100
1240
3240
5440
9040
13FE
1042
1042
1042
1042
1042
1082
1082
1082
1102
1102
1202
1400
ENDCHAR
STARTCHAR 4F25
ENCODING 20261
SWIDTH 765 0
DWIDTH 17 0
BBX 15 21 1 -3
BITMAP
0900
190C
1108
3110
2110
6120
6140
A100
2FFE
2140
2140
2120
2120
2120
2110
2110
2108
2108
210C
2104
2102
ENDCHAR
STARTCHAR 4F26
ENCODING 20262
SWIDTH 720 0
DWIDTH 16 0
BBX 14 22 1 -1
BITMAP
08C0
18C0
10C0
1120
3120
2210
6408
6804
A200
2200
2210
2220
2240
2380
2200
2200
2200
2200
2208
2208
23F8
2000
ENDCHAR
STARTCHAR 4F27
ENCODING 20263
SWIDTH 720 0
DWIDTH 16 0
BBX 14 22 1 -2
BITMAP
08C0
18C0
10A0
1120
2310
2208
640C
A804
23F0
2210
2210
2210
2210
2210
2210
2200
2200
2200
2200
2208
21FC
2000
ENDCHAR
STARTCHAR 4F2A
ENCODING 20266
SWIDTH 765 0
DWIDTH 17 0
BBX 15 22 1 -3
BITMAP
0C40
0840
0A40
1940
1140
3040
37FE
5042
9042
1042
1042
1052
1092
108A
108A
1082
1102
1102
1202
1202
1402
0002
ENDCHAR
STARTCHAR 4F2B
ENCODING 20267
SWIDTH 765 0
DWIDTH 17 0
BBX 16 21 0 -1
BITMAP
0C20
0C20
0820
1BFE
1202
3202
3202
5000
9000
1000
1000
1000
1000
1000
1000
1000
1000
1000
1000
17FF
1000
ENDCHAR
STARTCHAR 4F2F
ENCODING 20271
SWIDTH 765 0
DWIDTH 17 0
BBX 14 22 1 -1
BITMAP
0840
1840
1080
13FC
2204
2204
6204
A204
2204
2204
2204
23FC
2204
2204
2204
2204
2204
2204
2204
2204
23FC
2000
ENDCHAR
STARTCHAR 4F30
ENCODING 20272
SWIDTH 720 0
DWIDTH 16 0
BBX 15 21 0 -1
BITMAP
0C20
0C20
0820
1020
17FE
3020
3020
5020
9020
1020
11FC
1104
1104
1104
1104
1104
1104
1104
1104
1104
11FC
ENDCHAR
STARTCHAR 4F32
ENCODING 20274
SWIDTH 720 0
DWIDTH 16 0
BBX 15 22 0 -2
BITMAP
0C00
0FFE
0A02
0A02
1202
1202
33FE
5200
9240
1240
1242
1244
1248
1250
1460
1440
1440
1440
1440
1842
187E
1000
ENDCHAR
STARTCHAR 4F34
ENCODING 20276
SWIDTH 765 0
DWIDTH 17 0
BBX 16 22 0 -2
BITMAP
0420
0420
0E24
0A24
0924
11A8
10A8
3020
53FE
9020
1020
1020
1020
17FF
1020
1020
1020
1020
1020
1020
1020
1020
ENDCHAR
STARTCHAR 4F36
ENCODING 20278
SWIDTH 720 0
DWIDTH 16 0
BBX 15 21 1 -2
BITMAP
10C0
10C0
11A0
2120
2210
2408
6484
A842
A040
2000
27F8
2008
2010
2010
2020
2220
2120
20C0
2040
2020
2030
ENDCHAR
STARTCHAR 4F38
ENCODING 20280
SWIDTH 720 0
DWIDTH 16 0
BBX 15 22 0 -2
BITMAP
0420
0C20
0820
0820
1820
13FE
3222
3222
5222
93FE
1222
1222
1222
1222
13FE
1020
1020
1020
1020
1020
1020
1020
ENDCHAR
STARTCHAR 4F3A
ENCODING 20282
SWIDTH 720 0
DWIDTH 16 0
BBX 14 21 1 -2
BITMAP
1000
17FC
1004
2004
2004
6FF4
6004
A004
2004
23E4
2224
2224
2224
2224
2224
2224
23E4
2004
2004
2004
2004
ENDCHAR
STARTCHAR 4F3C
ENCODING 20284
SWIDTH 810 0
DWIDTH 18 0
BBX 16 22 1 -2
BITMAP
0804
0804
0A04
1204
1244
1244
3244
3224
5204
9204
1208
1208
1208
1208
1210
1214
1214
1222
1222
1041
1081
1080
ENDCHAR
STARTCHAR 4F3D
ENCODING 20285
SWIDTH 810 0
DWIDTH 18 0
BBX 16 22 1 -3
BITMAP
0A00
0A00
0A00
1A00
121F
17D1
3251
3251
5251
9251
1251
1251
1251
1251
1251
1651
1651
1451
1451
1451
185F
1840
ENDCHAR
STARTCHAR 4F43
ENCODING 20291
SWIDTH 720 0
DWIDTH 16 0
BBX 15 22 0 -2
BITMAP
0400
0C00
0BFE
0A22
1222
1222
3222
3222
5222
9222
1222
13FE
1222
1222
1222
1222
1222
1222
1222
1222
13FE
1000
ENDCHAR
STARTCHAR 4F46
ENCODING 20294
SWIDTH 765 0
DWIDTH 17 0
BBX 15 22 1 -1
BITMAP
0800
1800
1BF8
1208
3208
2208
6208
E208
23F8
2208
2208
2208
2208
2208
2208
23F8
2000
2000
2000
2000
2FFE
2000
ENDCHAR
STARTCHAR 4F4D
ENCODING 20301
SWIDTH 810 0
DWIDTH 18 0
BBX 16 21 1 -2
BITMAP
0C20
0820
0820
13FE
1000
3004
5004
9104
1104
1108
1088
1088
1088
1088
1090
1090
1050
1000
1000
17FF
1000
ENDCHAR
STARTCHAR 4F4E
ENCODING 20302
SWIDTH 765 0
DWIDTH 17 0
BBX 16 21 0 -1
BITMAP
0800
080E
09F0
1210
1210
3210
3210
5210
93FF
1210
1210
1210
1210
1210
1210
1208
1208
1208
1248
1224
1223
ENDCHAR
STARTCHAR 4F4F
ENCODING 20303
SWIDTH 765 0
DWIDTH 17 0
BBX 16 22 0 -2
BITMAP
0440
0440
0C20
0820
0BFE
1020
3020
3020
5020
9020
1020
1020
13FC
1020
1020
1020
1020
1020
1020
1020
17FF
1000
ENDCHAR
STARTCHAR 4F50
ENCODING 20304
SWIDTH 810 0
DWIDTH 18 0
BBX 16 22 1 -2
BITMAP
0080
0880
0880
0880
17FF
1080
3100
5100
5100
9100
1100
11FC
1210
1210
1210
1210
1410
1410
1410
1010
13FF
1000
ENDCHAR
STARTCHAR 4F51
ENCODING 20305
SWIDTH 765 0
DWIDTH 17 0
BBX 16 21 0 -2
BITMAP
0420
0C20
0820
0840
13FF
1040
3040
5080
9080
1080
10FE
1182
1282
1282
1282
1482
1082
1082
1082
1082
10FE
ENDCHAR
STARTCHAR 4F53
ENCODING 20307
SWIDTH 720 0
DWIDTH 16 0
BBX 15 22 0 -2
BITMAP
0C20
0C20
0820
0820
1020
17FE
30A8
30A8
50A8
90A8
10AC
112C
1124
1124
1124
1226
12FE
1422
1822
1820
1020
1020
ENDCHAR
STARTCHAR 4F55
ENCODING 20309
SWIDTH 720 0
DWIDTH 16 0
BBX 16 22 0 -1
BITMAP
0800
0800
0FFF
1004
1004
1004
3004
33E4
5224
9224
1224
1224
1224
1224
1224
13E4
1004
1004
1004
1004
1004
1004
ENDCHAR
STARTCHAR 4F57
ENCODING 20311
SWIDTH 765 0
DWIDTH 17 0
BBX 15 21 1 -3
BITMAP
0400
0C20
0820
0BFE
1202
1202
3202
5080
9080
1086
108C
1098
10A0
10C0
1080
1080
1080
1080
1080
1082
10FE
ENDCHAR
STARTCHAR 4F58
ENCODING 20312
SWIDTH 765 0
DWIDTH 17 0
BBX 15 21 1 -3
BITMAP
0100
0300
0280
0440
0440
0820
1018
27E4
4002
8000
0000
7FFE
0100
0900
0920
1110
1108
2108
2104
4104
8100
ENDCHAR
STARTCHAR 4F59
ENCODING 20313
SWIDTH 765 0
DWIDTH 17 0
BBX 15 21 1 -3
BITMAP
0100
0300
0280
0440
0440
0820
1010
2FEC
4106
0102
0100
7FFE
0100
0900
0920
1910
1110
2108
2104
4104
8100
ENDCHAR
STARTCHAR 4F5A
ENCODING 20314
SWIDTH 765 0
DWIDTH 17 0
BBX 16 22 0 -2
BITMAP
0420
0C20
0920
0920
1120
11FE
3220
3220
5020
9020
17FF
1070
1050
1050
1048
10C8
1088
1084
1104
1102
1203
1401
ENDCHAR
STARTCHAR 4F5B
ENCODING 20315
SWIDTH 720 0
DWIDTH 16 0
BBX 15 21 0 -3
BITMAP
0890
0890
0890
1BFE
1092
1092
3092
53FE
9290
1290
1290
13FE
1092
1112
1112
1112
1112
1212
1210
1410
1010
ENDCHAR
STARTCHAR 4F5C
ENCODING 20316
SWIDTH 720 0
DWIDTH 16 0
BBX 15 21 0 -2
BITMAP
0500
0500
0900
09FE
1240
1240
3440
5440
907C
1040
1040
1040
1040
107E
1040
1040
1040
1040
1040
1040
1040
ENDCHAR
STARTCHAR 4F5D
ENCODING 20317
SWIDTH 720 0
DWIDTH 16 0
BBX 15 21 0 -1
BITMAP
0400
0500
0900
09FE
1102
1202
3202
5402
95E2
1122
1122
1122
1122
1122
1122
11E2
1002
1002
1002
1002
1002
ENDCHAR
STARTCHAR 4F5E
ENCODING 20318
SWIDTH 810 0
DWIDTH 18 0
BBX 16 21 1 -1
BITMAP
0800
0BFC
0800
1000
1000
37FE
5000
5040
90C0
1080
17FF
1188
1108
1110
1310
10F0
1020
1058
108C
1106
1602
ENDCHAR
STARTCHAR 4F5F
ENCODING 20319
SWIDTH 765 0
DWIDTH 17 0
BBX 16 21 1 -2
BITMAP
0480
0880
08FC
1108
1188
3290
5250
9460
9070
1078
109C
110E
1203
1420
1020
1010
1080
1040
1020
1030
1010
ENDCHAR
STARTCHAR 4F60
ENCODING 20320
SWIDTH 765 0
DWIDTH 17 0
BBX 16 22 1 -1
BITMAP
0C80
0880
0880
09FE
1102
1104
3204
3224
5420
9420
1120
1120
1124
1222
1222
1223
1420
1020
1020
1020
1020
1020
ENDCHAR
STARTCHAR 4F63
ENCODING 20323
SWIDTH 675 0
DWIDTH 15 0
BBX 14 21 0 -1
BITMAP
1800
1FFC
1444
3444
2444
2444
6444
A7FC
A444
2444
2444
2444
27FC
2444
2844
2844
2844
2844
3044
3044
3004
ENDCHAR
STARTCHAR 4F64
ENCODING 20324
SWIDTH 720 0
DWIDTH 16 0
BBX 15 21 0 -2
BITMAP
1000
17FE
1300
2300
2300
23F0
6210
A210
A210
2210
2290
2290
2250
2210
2210
2210
2210
2210
2212
2212
220E
ENDCHAR
STARTCHAR 4F65
ENCODING 20325
SWIDTH 810 0
DWIDTH 18 0
BBX 15 21 2 -2
BITMAP
0200
0200
0500
0500
0880
1040
2030
4018
8FEC
0006
0400
0410
2210
2230
1320
1120
0840
0840
0080
0080
FFFC
ENDCHAR
STARTCHAR 4F67
ENCODING 20327
SWIDTH 765 0
DWIDTH 17 0
BBX 16 22 0 -1
BITMAP
0440
0440
0840
087C
1040
1040
3040
5040
97FF
1000
1040
1040
1040
1050
1048
1044
1042
1042
1040
1040
1040
1040
ENDCHAR
STARTCHAR 4F69
ENCODING 20329
SWIDTH 720 0
DWIDTH 16 0
BBX 16 21 0 -1
BITMAP
1000
17FC
1404
2404
27F4
2444
6444
A5F4
A554
2554
2554
2554
2554
2554
2554
2954
2954
2844
2844
2843
2003
ENDCHAR
STARTCHAR 4F6C
ENCODING 20332
SWIDTH 765 0
DWIDTH 17 0
BBX 16 21 0 -1
BITMAP
0440
0440
0C40
0BFC
1044
1048
3048
5050
93FF
1060
1040
1080
1184
1288
14B0
10C0
1080
1080
1080
1084
10FE
ENDCHAR
STARTCHAR 4F6F
ENCODING 20335
SWIDTH 765 0
DWIDTH 17 0
BBX 16 21 0 -1
BITMAP
0508
0508
0890
0890
13FE
1020
3020
5020
9020
13FC
1020
1020
1020
17FF
1020
1020
1020
1020
1020
1020
1020
ENDCHAR
STARTCHAR 4F70
ENCODING 20336
SWIDTH 720 0
DWIDTH 16 0
BBX 15 21 0 -1
BITMAP
1000
17FE
1060
2040
2040
23FC
6204
A204
A204
2204
2204
2204
23FC
2204
2204
2204
2204
2204
2204
2204
23FC
ENDCHAR
STARTCHAR 4F73
ENCODING 20339
SWIDTH 720 0
DWIDTH 16 0
BBX 14 21 1 -2
BITMAP
1840
1040
17F8
2040
2040
6040
A040
2040
2FFC
2000
2040
2040
2040
27FC
2040
2040
2040
2040
2040
2FFC
2000
ENDCHAR
STARTCHAR 4F74
ENCODING 20340
SWIDTH 765 0
DWIDTH 17 0
BBX 16 21 0 -2
BITMAP
0400
0FFE
0884
0884
1084
3084
30FC
5084
9084
1084
10FC
1084
1084
1084
1084
10BF
13E4
1004
1004
1004
1004
ENDCHAR
STARTCHAR 4F76
ENCODING 20342
SWIDTH 720 0
DWIDTH 16 0
BBX 16 22 0 -2
BITMAP
0400
0C20
0820
0820
1820
17FF
3020
3020
5020
93FF
1000
1000
1000
11FC
1104
1104
1104
1104
1104
1104
1104
11FC
ENDCHAR
STARTCHAR 4F7B
ENCODING 20347
SWIDTH 765 0
DWIDTH 17 0
BBX 16 21 1 -3
BITMAP
0490
0890
0890
0892
1496
1294
3298
5190
9090
1090
1198
1294
1296
1492
1092
1110
1110
1110
1210
1212
141F
ENDCHAR
STARTCHAR 4F7C
ENCODING 20348
SWIDTH 765 0
DWIDTH 17 0
BBX 15 21 1 -2
BITMAP
0C20
0820
0BFE
1000
1080
3088
3104
5204
920A
1508
1090
1090
1050
1020
1020
1050
1050
1088
1104
1206
1402
ENDCHAR
STARTCHAR 4F7E
ENCODING 20350
SWIDTH 765 0
DWIDTH 17 0
BBX 17 21 0 -1
BITMAP
081000
089000
088800
110800
110C00
120600
340200
51FD80
910400
910400
110400
11FC00
110400
110400
110400
11FC00
110400
110400
110400
110400
110400
ENDCHAR
STARTCHAR 4F7F
ENCODING 20351
SWIDTH 765 0
DWIDTH 17 0
BBX 16 22 0 -1
BITMAP
0820
0820
0820
1FFF
1020
1020
33FE
5222
5222
9222
1222
13FE
1020
1020
1140
10C0
1040
10E0
10B0
110C
1206
1001
ENDCHAR
STARTCHAR 4F83
ENCODING 20355
SWIDTH 720 0
DWIDTH 16 0
BBX 15 22 0 -1
BITMAP
1000
1000
17F8
2408
2408
2408
6408
6408
A7F8
2248
2248
2248
2248
2248
2248
2448
2448
2448
2848
284C
304E
3000
ENDCHAR
STARTCHAR 4F84
ENCODING 20356
SWIDTH 720 0
DWIDTH 16 0
BBX 15 21 0 -1
BITMAP
1000
17FC
1080
2080
2100
2110
6208
A418
A7E4
2044
2040
2040
2040
27FC
2040
2040
2040
2040
2040
2FFE
2000
ENDCHAR
STARTCHAR 4F88
ENCODING 20360
SWIDTH 765 0
DWIDTH 17 0
BBX 15 22 1 -2
BITMAP
0440
0440
08FE
0904
118C
1288
3050
5020
9040
11A0
1640
107E
1082
1104
1184
124C
1028
1010
1020
1040
1180
1600
ENDCHAR
STARTCHAR 4F89
ENCODING 20361
SWIDTH 765 0
DWIDTH 17 0
BBX 16 22 0 -3
BITMAP
0420
0C20
0860
0BFF
1850
10C8
3088
3104
517A
9201
1000
13FF
1080
1080
1080
10FC
1004
1004
1004
1004
1004
1004
ENDCHAR
STARTCHAR 4F8B
ENCODING 20363
SWIDTH 765 0
DWIDTH 17 0
BBX 15 21 1 -2
BITMAP
1002
17E2
2212
2212
2212
23D2
6252
A452
2452
24D2
2A92
2892
2092
2092
2112
2112
2102
2202
2202
2402
2002
ENDCHAR
STARTCHAR 4F8D
ENCODING 20365
SWIDTH 810 0
DWIDTH 18 0
BBX 16 21 1 -1
BITMAP
0C20
0820
0BFE
1020
1020
3020
5020
97FF
1010
1010
1010
17FE
1010
1210
1110
1090
1090
1010
1010
1010
1010
ENDCHAR
STARTCHAR 4F8F
ENCODING 20367
SWIDTH 765 0
DWIDTH 17 0
BBX 16 22 0 -2
BITMAP
0C20
0C20
0920
0920
1120
11FC
3220
3220
5020
9020
17FE
10B0
11A8
1128
1128
1124
1224
1224
1422
1823
1823
1020
ENDCHAR
STARTCHAR 4F91
ENCODING 20369
SWIDTH 765 0
DWIDTH 17 0
BBX 16 21 0 -2
BITMAP
0440
0C40
08C0
0BFF
1080
1100
3100
51FC
9104
1304
1504
15FC
1104
1104
1104
11FC
1104
1104
1104
1104
1104
ENDCHAR
STARTCHAR 4F94
ENCODING 20372
SWIDTH 810 0
DWIDTH 18 0
BBX 16 21 1 -1
BITMAP
0440
0880
0880
1908
1204
33FE
3022
5120
9120
11FC
1220
1420
1420
1020
17FF
1020
1020
1020
1020
1020
1020
ENDCHAR
STARTCHAR 4F97
ENCODING 20375
SWIDTH 720 0
DWIDTH 16 0
BBX 15 21 0 -2
BITMAP
0800
0BFE
0A02
1202
12FE
3202
3202
5202
92FA
128A
128A
128A
128A
128A
128A
12FA
1202
1202
1202
1202
1202
ENDCHAR
STARTCHAR 4F9B
ENCODING 20379
SWIDTH 810 0
DWIDTH 18 0
BBX 16 21 1 -2
BITMAP
0488
0888
0888
1888
13FE
3088
3088
5088
9088
1088
1088
1088
17FF
1000
1080
1088
1084
1104
1102
1202
1402
ENDCHAR
STARTCHAR 4F9D
ENCODING 20381
SWIDTH 765 0
DWIDTH 17 0
BBX 16 21 1 -2
BITMAP
0820
0820
0820
0BFE
1040
1040
3040
5040
90A2
10A4
11A8
1290
1290
1498
1088
1088
108C
1084
1086
1082
1081
ENDCHAR
STARTCHAR 4FA0
ENCODING 20384
SWIDTH 810 0
DWIDTH 18 0
BBX 16 21 1 -2
BITMAP
0420
0420
0820
0BFE
1020
1020
3224
5124
9128
1028
1020
17FF
1060
1040
1050
10D0
1088
1088
1104
1206
1403
ENDCHAR
STARTCHAR 4FA3
ENCODING 20387
SWIDTH 720 0
DWIDTH 16 0
BBX 14 22 1 -1
BITMAP
0800
1BF8
1208
1208
2208
2208
6208
A208
23F8
2000
2000
27FC
2404
2404
2404
2404
2404
2404
2404
2404
27FC
2000
ENDCHAR
STARTCHAR 4FA5
ENCODING 20389
SWIDTH 720 0
DWIDTH 16 0
BBX 15 21 0 -1
BITMAP
0D00
0D00
089C
0BE0
16C4
104C
3078
5020
90F2
130E
1000
17FE
1110
1110
1110
1110
1210
1210
1210
1412
101E
ENDCHAR
STARTCHAR 4FA6
ENCODING 20390
SWIDTH 765 0
DWIDTH 17 0
BBX 15 21 1 -2
BITMAP
0C40
0840
087E
1040
1040
33FC
5204
9244
9244
1244
1244
1244
1244
1244
1244
1080
1090
1088
1104
1202
1002
ENDCHAR
STARTCHAR 4FA7
ENCODING 20391
SWIDTH 810 0
DWIDTH 18 0
BBX 16 22 1 -3
BITMAP
0801
0BE1
0A21
1A29
12A9
12A9
32A9
32A9
52A9
92A9
12A9
12A9
12A9
1089
1109
1109
1141
1121
1221
1211
1401
1001
ENDCHAR
STARTCHAR 4FA8
ENCODING 20392
SWIDTH 765 0
DWIDTH 17 0
BBX 16 21 0 -1
BITMAP
0C0C
08F0
0920
1020
1040
33FF
3050
5088
9088
1104
128A
1289
1488
1088
1088
1108
1108
1108
1208
1208
1408
ENDCHAR
STARTCHAR 4FA9
ENCODING 20393
SWIDTH 765 0
DWIDTH 17 0
BBX 15 21 1 -2
BITMAP
0440
0C40
08C0
08A0
1110
1108
320C
5406
55FA
9000
1000
1000
17FE
1080
1080
1080
1110
1108
1204
123C
13C2
ENDCHAR
STARTCHAR 4FAA
ENCODING 20394
SWIDTH 765 0
DWIDTH 17 0
BBX 17 21 0 0
BITMAP
082000
082000
0BFF00
188800
109800
305000
302000
502000
905800
108E00
130380
148800
108800
108800
108800
108800
110800
110800
120800
120800
140800
ENDCHAR
STARTCHAR 4FAC
ENCODING 20396
SWIDTH 765 0
DWIDTH 17 0
BBX 16 21 1 -2
BITMAP
0820
0820
0840
13FE
1242
3242
3080
5080
90A6
11A4
11A8
1190
1290
1490
1488
1888
108C
1084
1086
1082
1081
ENDCHAR
STARTCHAR 4FAE
ENCODING 20398
SWIDTH 720 0
DWIDTH 16 0
BBX 16 21 0 -2
BITMAP
0500
0500
09FE
0A00
1200
15FC
3504
5124
9124
1104
17FF
1104
1124
1124
1114
1104
11FE
1004
1004
1004
1004
ENDCHAR
STARTCHAR 4FAF
ENCODING 20399
SWIDTH 810 0
DWIDTH 18 0
BBX 16 22 1 -1
BITMAP
0800
09F8
0808
1808
1008
17FF
3000
7100
5100
91FE
1220
1020
1020
17FF
1030
1050
1048
1088
1084
1106
1202
1401
ENDCHAR
STARTCHAR 4FB5
ENCODING 20405
SWIDTH 720 0
DWIDTH 16 0
BBX 15 22 0 -1
BITMAP
1800
1BF8
1008
1008
23F8
2008
27F8
6000
A000
27FE
2402
2000
23F8
2210
2110
20A0
2040
20A0
2110
220C
2402
2800
ENDCHAR
STARTCHAR 4FBF
ENCODING 20415
SWIDTH 765 0
DWIDTH 17 0
BBX 16 22 0 -1
BITMAP
0800
0800
0BFF
0820
1020
11FE
3122
3122
5122
91FE
1122
1122
11FE
1020
1120
1140
10C0
1040
10A0
1098
110E
1203
ENDCHAR
STARTCHAR 4FC3
ENCODING 20419
SWIDTH 765 0
DWIDTH 17 0
BBX 15 22 1 -1
BITMAP
0C00
0FFC
0A04
1A04
1204
1204
3204
5204
93FC
1020
1020
1320
1220
123E
1220
1220
1220
1620
1520
18A0
187E
1000
ENDCHAR
STARTCHAR 4FC4
ENCODING 20420
SWIDTH 765 0
DWIDTH 17 0
BBX 16 21 0 -2
BITMAP
0C50
08D0
0994
1892
1092
3090
37FF
5090
9090
1090
10B2
10D2
1094
139C
169C
1088
1098
1098
10AC
10A5
10C3
ENDCHAR
STARTCHAR 4FC5
ENCODING 20421
SWIDTH 765 0
DWIDTH 17 0
BBX 15 22 1 -2
BITMAP
1040
1050
1050
1048
2048
2FFE
2040
6040
A044
244C
2268
2270
20E0
2150
2150
2248
244C
2444
2846
2040
2040
2040
ENDCHAR
STARTCHAR 4FCA
ENCODING 20426
SWIDTH 765 0
DWIDTH 17 0
BBX 15 22 1 -3
BITMAP
0440
0440
0880
0908
1204
13FA
3002
7108
9104
1286
1582
11FC
1108
1308
1298
1490
1460
1060
1090
110C
1206
1402
ENDCHAR
STARTCHAR 4FCE
ENCODING 20430
SWIDTH 810 0
DWIDTH 18 0
BBX 16 21 1 -1
BITMAP
1000
10FC
1084
1084
3084
2884
2C84
44FC
4284
9084
1084
1084
2084
30FC
2884
2484
4484
4284
4284
8084
83FF
ENDCHAR
STARTCHAR 4FCF
ENCODING 20431
SWIDTH 765 0
DWIDTH 17 0
BBX 14 22 1 -2
BITMAP
0840
1844
1444
1248
3348
2150
67FC
6404
A404
2404
2404
27FC
2404
2404
2404
27FC
2404
2404
2404
2404
2404
2404
ENDCHAR
STARTCHAR 4FD0
ENCODING 20432
SWIDTH 720 0
DWIDTH 16 0
BBX 15 22 0 -2
BITMAP
1002
10C2
1302
3502
2112
2112
2112
6FF2
A512
A512
2592
2552
2572
2912
2912
2912
3112
2102
2102
2102
2102
2102
ENDCHAR
STARTCHAR 4FD1
ENCODING 20433
SWIDTH 720 0
DWIDTH 16 0
BBX 15 21 0 -2
BITMAP
0400
0FFC
0808
0850
1020
1030
33FE
5222
9222
1222
13FE
1222
1222
1222
13FE
1222
1222
1222
1222
1222
1222
ENDCHAR
STARTCHAR 4FD7
ENCODING 20439
SWIDTH 720 0
DWIDTH 16 0
BBX 15 21 0 -1
BITMAP
0400
0C90
0888
090C
1124
1266
3460
50D0
9090
1108
1104
1202
1402
11F8
1108
1108
1108
1108
1108
1108
11F8
ENDCHAR
STARTCHAR 4FD8
ENCODING 20440
SWIDTH 720 0
DWIDTH 16 0
BBX 15 22 0 -1
BITMAP
1000
1018
11E0
1284
2048
2248
2210
6000
A3F8
A018
2030
2020
2040
2FFE
2040
2040
2040
2040
2040
2040
2040
2040
ENDCHAR
STARTCHAR 4FDA
ENCODING 20442
SWIDTH 765 0
DWIDTH 17 0
BBX 16 22 0 -1
BITMAP
0800
09FC
0924
0924
1124
1124
31FC
7124
9124
1124
11FC
1020
1020
1020
13FE
1020
1020
1020
1020
1020
17FF
1000
ENDCHAR
STARTCHAR 4FDC
ENCODING 20444
SWIDTH 765 0
DWIDTH 17 0
BBX 16 21 0 -2
BITMAP
0420
0C20
0BFC
0A24
1224
13FC
3224
5224
93FC
1000
1000
17FF
1100
1100
11FC
1004
1004
1004
1004
1004
1004
ENDCHAR
STARTCHAR 4FDD
ENCODING 20445
SWIDTH 675 0
DWIDTH 15 0
BBX 15 22 0 -2
BITMAP
1000
13F8
1208
1208
2208
2208
2208
63F8
A040
A040
2040
2FFE
2160
2150
2150
2250
2248
2448
2444
2846
2042
2040
ENDCHAR
STARTCHAR 4FDE
ENCODING 20446
SWIDTH 765 0
DWIDTH 17 0
BBX 15 21 1 -1
BITMAP
0300
0300
04C0
0820
1018
2FC6
C000
0008
3E08
2248
2248
3E48
2248
2248
2248
3E48
2248
2248
2208
2208
2208
ENDCHAR
STARTCHAR 4FDF
ENCODING 20447
SWIDTH 765 0
DWIDTH 17 0
BBX 15 21 1 -1
BITMAP
0440
0880
0880
1108
120C
33F4
5104
5100
91FC
1240
1240
1440
1040
17FE
1060
1090
1090
1108
1104
1206
1402
ENDCHAR
STARTCHAR 4FE1
ENCODING 20449
SWIDTH 765 0
DWIDTH 17 0
BBX 16 22 0 -2
BITMAP
0400
0420
0C20
0BFF
0800
1000
1000
31FE
5000
9000
11FE
1000
1000
1000
11FC
1104
1104
1104
1104
1104
1104
11FC
ENDCHAR
STARTCHAR 4FE3
ENCODING 20451
SWIDTH 720 0
DWIDTH 16 0
BBX 15 22 0 -2
BITMAP
0C00
0DF8
0908
1908
1108
3108
31F8
5000
9000
13FC
1040
1040
1040
17FE
10A0
10A0
1090
1110
1108
1204
1402
1800
ENDCHAR
STARTCHAR 4FE6
ENCODING 20454
SWIDTH 765 0
DWIDTH 17 0
BBX 15 22 1 -2
BITMAP
0440
0C40
0840
1BFE
1040
10C0
33FC
5080
9180
17FE
1100
1108
1208
13FE
1408
1508
1888
18C8
1048
1008
1008
1008
ENDCHAR
STARTCHAR 4FE8
ENCODING 20456
SWIDTH 765 0
DWIDTH 17 0
BBX 16 22 0 -3
BITMAP
0800
0800
0BFF
1848
124A
124A
314C
314C
5048
93FF
1200
1200
1200
1200
1200
1200
1200
1400
1400
1400
1800
1800
ENDCHAR
STARTCHAR 4FE9
ENCODING 20457
SWIDTH 720 0
DWIDTH 16 0
BBX 15 22 0 -1
BITMAP
1000
1FFE
1090
2090
2090
2090
27FE
6492
A492
A492
2492
2492
2592
25AA
256A
256A
2622
2402
2402
2402
2402
2402
ENDCHAR
STARTCHAR 4FEA
ENCODING 20458
SWIDTH 720 0
DWIDTH 16 0
BBX 15 21 0 -2
BITMAP
1000
1FFE
1000
2000
27BE
24A2
64A2
A4A2
A6A2
26AA
27AA
25AA
25A2
24A2
24A2
24A2
24A2
24A2
24A2
24A2
24A2
ENDCHAR
STARTCHAR 4FED
ENCODING 20461
SWIDTH 765 0
DWIDTH 17 0
BBX 15 22 1 -2
BITMAP
0440
0C40
08E0
08A0
1090
1108
320C
5206
95F2
1000
1080
1088
1048
1248
1248
1158
1110
1110
1000
1000
17FE
1000
ENDCHAR
STARTCHAR 4FEE
ENCODING 20462
SWIDTH 765 0
DWIDTH 17 0
BBX 16 22 0 -2
BITMAP
0C40
0C40
087E
1886
10C4
132C
3338
5238
9224
1242
1399
1230
1264
128C
1218
1231
1242
1184
1008
1030
1040
1180
ENDCHAR
STARTCHAR 4FEF
ENCODING 20463
SWIDTH 765 0
DWIDTH 17 0
BBX 16 21 0 0
BITMAP
0810
0810
0BFF
1A00
1222
1222
3242
5242
927F
12C2
1342
1352
1252
124A
124A
1242
1242
1442
1442
1442
1042
ENDCHAR
STARTCHAR 4FF1
ENCODING 20465
SWIDTH 810 0
DWIDTH 18 0
BBX 16 22 1 -1
BITMAP
0400
0DFC
0904
0904
1104
11FC
3104
3104
51FC
9104
1104
11FC
1104
1104
1104
17FF
1090
1088
1104
1104
1202
1402
ENDCHAR
STARTCHAR 4FF3
ENCODING 20467
SWIDTH 765 0
DWIDTH 17 0
BBX 16 22 0 -2
BITMAP
0888
0888
0888
0888
178F
1088
3088
5088
5088
978F
1088
1088
1088
1088
1088
178F
1088
1088
1088
1088
1088
1088
ENDCHAR
STARTCHAR 4FF8
ENCODING 20472
SWIDTH 765 0
DWIDTH 17 0
BBX 16 21 0 -1
BITMAP
0020
0820
0BFE
0860
1060
13FC
3040
50C0
97FE
1090
1128
1124
12FE
1423
1020
1020
13FE
1020
1020
1020
1020
ENDCHAR
STARTCHAR 4FFA
ENCODING 20474
SWIDTH 765 0
DWIDTH 17 0
BBX 16 21 0 -1
BITMAP
0840
0840
0FFE
1050
1088
30A8
3124
5222
95FF
1124
1124
1124
11FC
1124
1124
11FC
1020
1020
1020
1022
103F
ENDCHAR
STARTCHAR 4FFE
ENCODING 20478
SWIDTH 765 0
DWIDTH 17 0
BBX 16 22 0 -1
BITMAP
0420
0C20
0BFE
0A22
1222
1222
33FE
5222
9222
13FE
1040
10D0
1090
1110
17FF
1010
1010
1010
1010
1010
1010
1010
ENDCHAR
STARTCHAR 500C
ENCODING 20492
SWIDTH 720 0
DWIDTH 16 0
BBX 15 21 0 -1
BITMAP
0420
0C20
0BFE
1A02
1202
3202
31FC
5104
9104
1104
11FC
1100
1100
1100
11FE
1102
1102
1102
1102
1102
11FE
ENDCHAR
STARTCHAR 500D
ENCODING 20493
SWIDTH 810 0
DWIDTH 18 0
BBX 16 21 1 -1
BITMAP
0420
0C20
0BFE
1800
1100
3088
3090
5010
97FF
1000
1000
11FC
1104
1104
1104
1104
1104
1104
1104
1104
11FC
ENDCHAR
STARTCHAR 500F
ENCODING 20495
SWIDTH 765 0
DWIDTH 17 0
BBX 16 22 1 -2
BITMAP
0840
0840
08FC
1084
10C8
3528
3410
5410
942C
14C6
1519
1414
1434
15FF
1430
1430
1468
104C
1044
1082
1102
1000
ENDCHAR
STARTCHAR 5012
ENCODING 20498
SWIDTH 765 0
DWIDTH 17 0
BBX 15 22 1 -2
BITMAP
1002
1002
1FC2
3302
2212
2212
2492
6492
AF52
A052
2112
2112
2FD2
2112
2112
2112
2112
2102
2102
21C2
2E02
2002
ENDCHAR
STARTCHAR 5014
ENCODING 20500
SWIDTH 720 0
DWIDTH 16 0
BBX 15 22 0 -2
BITMAP
0C00
0FFE
0A02
1A02
1202
13FE
3200
5210
9292
1292
1292
1292
1292
12FE
1210
1492
1492
1492
1492
1892
18FE
1000
ENDCHAR
STARTCHAR 5018
ENCODING 20504
SWIDTH 720 0
DWIDTH 16 0
BBX 15 21 0 -2
BITMAP
0422
0A22
0A24
0928
1128
1020
33FE
5202
9202
12F2
1292
1292
1292
1292
1292
12F2
1202
1202
1202
1202
1202
ENDCHAR
STARTCHAR 5019
ENCODING 20505
SWIDTH 675 0
DWIDTH 15 0
BBX 15 21 0 -1
BITMAP
1000
10F8
1008
2008
2408
27FE
64C0
A480
A4FC
2520
2520
2420
27FE
2430
2430
2448
2448
2044
2084
2102
2202
ENDCHAR
STARTCHAR 501A
ENCODING 20506
SWIDTH 765 0
DWIDTH 17 0
BBX 15 21 1 -2
BITMAP
0040
1040
1040
17FC
2080
20A0
6110
6208
A400
2FFE
2008
2008
27C8
2448
2448
2448
2448
27C8
2008
2008
2008
ENDCHAR
STARTCHAR 501C
ENCODING 20508
SWIDTH 720 0
DWIDTH 16 0
BBX 14 22 1 -1
BITMAP
0800
1FFC
1404
1444
2444
25F4
6444
A444
2444
25FC
2404
2404
25F4
2514
2514
2514
2514
29F4
2804
2804
3004
1000
ENDCHAR
STARTCHAR 501F
ENCODING 20511
SWIDTH 765 0
DWIDTH 17 0
BBX 16 22 0 -2
BITMAP
0488
0C88
0888
0BFE
1088
1088
3088
5088
97FF
1000
1000
11FC
1104
1104
1104
11FC
1104
1104
1104
1104
11FC
1000
ENDCHAR
STARTCHAR 5021
ENCODING 20513
SWIDTH 720 0
DWIDTH 16 0
BBX 15 21 0 0
BITMAP
0400
0DFC
0904
0904
11FC
1104
3104
5104
91FC
1000
1000
13FE
1202
1202
1202
13FE
1202
1202
1202
1202
13FE
ENDCHAR
STARTCHAR 5025
ENCODING 20517
SWIDTH 765 0
DWIDTH 17 0
BBX 14 21 2 -1
BITMAP
1840
1040
17FC
2404
2504
6114
6108
A208
2400
2000
27F8
2040
2040
2040
2040
2040
2040
2040
2040
2FFC
2000
ENDCHAR
STARTCHAR 5026
ENCODING 20518
SWIDTH 675 0
DWIDTH 15 0
BBX 15 21 0 -1
BITMAP
1048
1248
1150
2040
27FC
2080
6080
AFFE
2110
2310
2208
25F4
2912
2910
2110
2110
2110
2100
2108
21FC
2000
ENDCHAR
STARTCHAR 5028
ENCODING 20520
SWIDTH 765 0
DWIDTH 17 0
BBX 16 21 0 -1
BITMAP
0400
05FE
0902
0902
1102
11FE
3100
5110
9110
11FF
1110
1110
1110
12FE
1282
1282
1282
1282
1482
1482
10FE
ENDCHAR
STARTCHAR 5029
ENCODING 20521
SWIDTH 765 0
DWIDTH 17 0
BBX 16 21 0 -2
BITMAP
0C20
0BFE
0820
1020
13FC
3020
3020
57FF
9000
1000
11FC
1104
11FC
1104
1104
11FC
1104
1104
1104
1104
1104
ENDCHAR
STARTCHAR 502A
ENCODING 20522
SWIDTH 765 0
DWIDTH 17 0
BBX 16 21 0 -2
BITMAP
0440
079C
0A04
0A04
1204
139C
7204
5204
9204
1204
13FC
1090
1090
1090
1090
1090
1110
1110
1110
1212
140F
ENDCHAR
STARTCHAR 502C
ENCODING 20524
SWIDTH 765 0
DWIDTH 17 0
BBX 16 22 0 -3
BITMAP
0440
0440
087E
0840
1040
13FC
3204
5204
93FC
1204
1204
1204
13FC
1020
1020
17FF
1020
1020
1020
1020
1020
1020
ENDCHAR
STARTCHAR 502D
ENCODING 20525
SWIDTH 765 0
DWIDTH 17 0
BBX 15 21 1 -1
BITMAP
1070
17C0
1040
2040
2FFC
2150
6250
A248
2446
2802
2080
2FFE
2110
2310
2220
21A0
2040
20B0
2108
2204
2C00
ENDCHAR
STARTCHAR 502E
ENCODING 20526
SWIDTH 720 0
DWIDTH 16 0
BBX 15 21 0 -2
BITMAP
0400
07FC
0A24
0A24
1224
13FC
3224
3224
5224
93FC
1020
1020
17FE
11B0
1128
1128
1328
1224
1224
1422
1022
ENDCHAR
STARTCHAR 503A
ENCODING 20538
SWIDTH 810 0
DWIDTH 18 0
BBX 16 22 1 -2
BITMAP
0420
0C20
0BFE
0820
1020
13FC
3020
5020
97FF
1000
13FC
1204
1224
1224
1224
1224
1040
1040
10CC
1186
1302
1400
ENDCHAR
STARTCHAR 503C
ENCODING 20540
SWIDTH 765 0
DWIDTH 17 0
BBX 16 21 0 -1
BITMAP
0820
0820
0FFE
1020
1020
31FC
5104
9104
11FC
1104
1104
1104
11FC
1104
1104
11FC
1104
1104
1104
17FF
1000
ENDCHAR
STARTCHAR 503E
ENCODING 20542
SWIDTH 720 0
DWIDTH 16 0
BBX 15 21 1 -1
BITMAP
1000
15FE
3410
2420
24FC
6484
6484
A794
2494
2494
2494
2494
2494
24A4
2420
2420
2428
2444
2444
2086
2102
ENDCHAR
STARTCHAR 5043
ENCODING 20547
SWIDTH 765 0
DWIDTH 17 0
BBX 16 21 0 -1
BITMAP
0800
0BFF
0A00
127E
1242
1242
327E
5242
927E
1200
1220
12FF
1224
1224
124C
1238
121E
1223
12C0
1200
13FF
ENDCHAR
STARTCHAR 5047
ENCODING 20551
SWIDTH 720 0
DWIDTH 16 0
BBX 15 21 0 -2
BITMAP
1000
17BC
1484
2484
2484
2484
67BC
A400
A400
247C
27C4
2424
2424
242C
2798
2418
2410
2418
242C
2444
2442
ENDCHAR
STARTCHAR 5048
ENCODING 20552
SWIDTH 765 0
DWIDTH 17 0
BBX 15 22 1 -3
BITMAP
0C00
0DFC
0904
0904
11FC
1104
3104
31FC
5080
9100
11FE
1302
1222
1422
1152
118A
1182
1102
11FE
1002
1002
1002
ENDCHAR
STARTCHAR 504C
ENCODING 20556
SWIDTH 720 0
DWIDTH 16 0
BBX 15 22 0 -2
BITMAP
1090
1090
17FE
2090
2090
2090
6040
6040
A7FE
2080
2180
2100
21F8
2308
2508
2508
2908
3108
2108
2108
21F8
2000
ENDCHAR
STARTCHAR 504E
ENCODING 20558
SWIDTH 765 0
DWIDTH 17 0
BBX 15 21 1 -1
BITMAP
1000
13F8
1248
1248
23F8
2248
6248
A248
A3F8
2000
2000
2FFE
2200
2248
2248
2230
2220
2210
2208
220C
2206
ENDCHAR
STARTCHAR 504F
ENCODING 20559
SWIDTH 720 0
DWIDTH 16 0
BBX 15 21 0 -2
BITMAP
1040
1040
17FC
1404
2404
2404
67FC
A400
A400
25FE
2552
2552
2552
2552
29FE
2952
2952
2952
2952
2152
2152
ENDCHAR
STARTCHAR 5055
ENCODING 20565
SWIDTH 720 0
DWIDTH 16 0
BBX 15 21 1 -1
BITMAP
1220
1224
222C
23E8
2230
2220
6220
A224
227E
2040
2080
23F8
2208
2208
2208
23F8
2208
2208
2208
23F8
2000
ENDCHAR
STARTCHAR 505A
ENCODING 20570
SWIDTH 720 0
DWIDTH 16 0
BBX 16 21 0 -1
BITMAP
1210
1210
1210
3210
2FFF
2222
6226
6264
A254
2F94
2894
2898
2888
2888
2888
2894
2894
28A4
2FA2
2043
2000
ENDCHAR
STARTCHAR 505C
ENCODING 20572
SWIDTH 765 0
DWIDTH 17 0
BBX 16 22 0 -3
BITMAP
0820
0820
0BFF
1000
1000
11FC
3104
3104
51FC
9000
17FF
1401
1401
1000
13FE
1020
1020
1020
1020
1020
1020
1020
ENDCHAR
STARTCHAR 5065
ENCODING 20581
SWIDTH 765 0
DWIDTH 17 0
BBX 16 22 0 -2
BITMAP
0008
0808
0FFE
088A
118A
117F
330A
530A
967E
1788
1088
1088
14FE
1488
1308
13FF
1108
1108
1108
12C8
143F
1000
ENDCHAR
STARTCHAR 506C
ENCODING 20588
SWIDTH 810 0
DWIDTH 18 0
BBX 16 21 1 -1
BITMAP
0880
0880
09FE
1152
1252
3252
30D2
50B2
9132
122A
1242
1082
1020
1020
1090
1280
1482
1481
1481
1088
107C
ENDCHAR
STARTCHAR 5076
ENCODING 20598
SWIDTH 720 0
DWIDTH 16 0
BBX 14 21 1 -1
BITMAP
1800
1BF8
1248
1248
23F8
2248
6248
6248
A3F8
2040
2040
27FC
2444
2444
2454
2474
27CC
240C
2404
2404
2404
ENDCHAR
STARTCHAR 5077
ENCODING 20599
SWIDTH 765 0
DWIDTH 17 0
BBX 16 21 0 -1
BITMAP
0460
0C60
08D0
0888
1104
32F3
3000
5002
93C2
1252
1252
13D2
1252
1252
1252
13D2
1252
1252
1242
1242
1242
ENDCHAR
STARTCHAR 507B
ENCODING 20603
SWIDTH 765 0
DWIDTH 17 0
BBX 15 22 1 -2
BITMAP
1048
1248
1150
2140
2FFC
2150
6250
A248
2446
2046
2080
2100
2FFE
2110
2110
2220
21A0
2040
20B0
2108
2204
2C00
ENDCHAR
STARTCHAR 507E
ENCODING 20606
SWIDTH 765 0
DWIDTH 17 0
BBX 15 21 1 -1
BITMAP
1040
1040
17F8
1040
2250
2210
6FFE
6210
A210
2210
27F8
2408
2448
2448
2448
2448
2488
20A0
2118
220C
2404
ENDCHAR
STARTCHAR 507F
ENCODING 20607
SWIDTH 765 0
DWIDTH 17 0
BBX 15 21 1 -1
BITMAP
1048
1248
1150
2040
27FC
2404
6404
A000
23F8
2000
2000
2000
2FFE
2080
2080
2100
2110
2208
2208
25F4
2604
ENDCHAR
STARTCHAR 5080
ENCODING 20608
SWIDTH 720 0
DWIDTH 16 0
BBX 16 21 0 -2
BITMAP
0040
1080
17FC
2444
2444
67FC
A444
A444
2444
27FC
20C0
2080
20A8
20A8
2128
2132
212E
2220
2422
243F
2800
ENDCHAR
STARTCHAR 5085
ENCODING 20613
SWIDTH 810 0
DWIDTH 18 0
BBX 16 21 1 -2
BITMAP
0C24
0824
0BFF
1020
13FE
3222
7222
53FE
9222
13FE
1222
1222
122A
1008
17FF
1008
1108
1088
1008
1008
1008
ENDCHAR
STARTCHAR 5088
ENCODING 20616
SWIDTH 720 0
DWIDTH 16 0
BBX 16 21 0 -2
BITMAP
0BFF
0850
0850
1050
13FE
3252
3252
5252
93FE
1020
1020
1020
17FF
10B0
10A8
11A8
1124
1126
1222
1421
1020
ENDCHAR
STARTCHAR 508D
ENCODING 20621
SWIDTH 765 0
DWIDTH 17 0
BBX 16 22 0 -2
BITMAP
0820
0820
0BFE
1888
1088
30D0
33FE
5202
9222
1020
17FF
1080
1080
1080
10FC
1084
1104
1104
1104
1204
1404
1004
ENDCHAR
STARTCHAR 5091
ENCODING 20625
SWIDTH 810 0
DWIDTH 18 0
BBX 16 22 1 -2
BITMAP
0904
0904
0B04
0BDF
1244
1654
3154
5194
509F
9104
1204
1420
1020
17FF
10A8
10A8
1124
1124
1222
1222
1421
1020
ENDCHAR
STARTCHAR 50A3
ENCODING 20643
SWIDTH 765 0
DWIDTH 17 0
BBX 15 21 2 -2
BITMAP
0080
17FC
1080
2080
2080
67F8
6180
AFFC
2320
2210
2250
2448
2C5C
2B52
2160
2040
2160
2250
2648
2444
2040
ENDCHAR
STARTCHAR 50A5
ENCODING 20645
SWIDTH 765 0
DWIDTH 17 0
BBX 16 21 0 -1
BITMAP
0820
0926
11A4
1028
17FF
3401
3401
51FC
9104
1104
1104
1104
11FC
1050
1050
1050
1090
1090
1110
1211
140F
ENDCHAR
STARTCHAR 50A7
ENCODING 20647
SWIDTH 810 0
DWIDTH 18 0
BBX 16 21 1 0
BITMAP
0820
0820
0BFE
1202
120A
3030
31C0
5100
9100
11FC
1110
1110
1110
1110
17FF
1000
1080
1108
1104
1202
1402
ENDCHAR
STARTCHAR 50A8
ENCODING 20648
SWIDTH 675 0
DWIDTH 15 0
BBX 15 21 0 -1
BITMAP
1020
1020
24FC
2424
242C
2028
6038
BDFE
A420
2440
24FC
2544
2644
2444
247C
2444
2444
2444
2444
247C
2000
ENDCHAR
STARTCHAR 50A9
ENCODING 20649
SWIDTH 765 0
DWIDTH 17 0
BBX 15 22 1 -3
BITMAP
1008
1048
1048
2048
2E7E
2248
62C8
6AC8
AB48
2A7E
2448
2448
2448
267E
2A48
2A48
2B48
3148
2048
207E
2040
2040
ENDCHAR
STARTCHAR 50AC
ENCODING 20652
SWIDTH 810 0
DWIDTH 18 0
BBX 16 21 1 -1
BITMAP
0820
0922
1122
1122
11FE
3000
3090
5090
91FE
1110
1310
1510
19FE
1110
1110
11FE
1110
1110
1110
11FF
1100
ENDCHAR
STARTCHAR 50B2
ENCODING 20658
SWIDTH 720 0
DWIDTH 16 0
BBX 15 22 0 -1
BITMAP
1110
1110
1FD0
3110
211E
27E4
6124
6124
A124
2FD4
2414
2418
2798
2488
2488
2498
2498
2894
28A4
28A6
28C2
2042
ENDCHAR
STARTCHAR 50BA
ENCODING 20666
SWIDTH 765 0
DWIDTH 17 0
BBX 16 22 1 -3
BITMAP
0900
0920
09DE
1266
1254
15D4
3C94
7288
5288
9104
12F4
1202
1401
13FE
1020
1020
1120
1124
1222
1422
1020
1020
ENDCHAR
STARTCHAR 50BB
ENCODING 20667
SWIDTH 765 0
DWIDTH 17 0
BBX 16 22 1 -1
BITMAP
0440
0880
0BFC
0A04
1294
1264
32D4
5204
93FC
1010
1188
1184
1286
15F8
1118
1290
1270
1420
1070
1098
1106
1603
ENDCHAR
STARTCHAR 50CF
ENCODING 20687
SWIDTH 720 0
DWIDTH 16 0
BBX 15 21 1 -1
BITMAP
1100
1100
13F0
1210
2420
2FF8
6448
A4C8
A7F8
2180
2288
2450
20F0
2130
2230
2C68
20A8
2324
2C26
2060
20C0
ENDCHAR
STARTCHAR 50D6
ENCODING 20694
SWIDTH 765 0
DWIDTH 17 0
BBX 15 22 1 -1
BITMAP
1040
1040
17FE
2040
23FC
2000
6000
63F8
A208
2208
23F8
2000
2110
21A0
2FFE
2000
23F8
2208
2208
2208
23F8
2000
ENDCHAR
STARTCHAR 50DA
ENCODING 20698
SWIDTH 765 0
DWIDTH 17 0
BBX 16 21 1 -2
BITMAP
0820
0860
0BFE
1050
128A
338C
3104
51FE
9705
1104
11FC
1104
1104
11FC
1020
1020
1124
1122
1222
1421
1020
ENDCHAR
STARTCHAR 50E6
ENCODING 20710
SWIDTH 765 0
DWIDTH 17 0
BBX 15 21 1 -3
BITMAP
1210
1210
1214
3FD4
2014
2010
27FE
6498
A498
2498
2498
2798
2218
2618
2628
26A8
2A28
2A28
324A
324A
224E
ENDCHAR
STARTCHAR 50E7
ENCODING 20711
SWIDTH 720 0
DWIDTH 16 0
BBX 15 21 0 -1
BITMAP
1008
1108
1090
27FE
2442
254A
654A
A552
A442
27FE
2000
2000
23FC
2204
2204
2204
23FC
2204
2204
2204
23FC
ENDCHAR
STARTCHAR 50EC
ENCODING 20716
SWIDTH 810 0
DWIDTH 18 0
BBX 16 22 1 -2
BITMAP
0890
0910
0910
19FF
1110
1310
3510
51FE
9110
1110
11FE
1110
1110
1110
11FF
1100
1000
1280
1292
1252
1649
0401
ENDCHAR
STARTCHAR 50ED
ENCODING 20717
SWIDTH 720 0
DWIDTH 16 0
BBX 16 21 0 -2
BITMAP
1000
1FBE
1108
3528
2528
27BE
6198
6294
A294
24A6
24C7
2BFC
2204
2204
2204
23FC
2204
2204
2204
2204
23FC
ENDCHAR
STARTCHAR 50EE
ENCODING 20718
SWIDTH 720 0
DWIDTH 16 0
BBX 15 22 0 -2
BITMAP
0040
1040
17FC
1010
2110
2120
6FFE
6000
A3F8
2248
2248
23F8
2248
2248
2248
23F8
2040
27FC
2040
2040
2FFE
2000
ENDCHAR
STARTCHAR 50F3
ENCODING 20723
SWIDTH 765 0
DWIDTH 17 0
BBX 16 21 1 -1
BITMAP
0800
0BFE
0850
1050
13FE
3252
3252
5252
93FE
1024
1124
10A8
10A0
17FF
10A8
10A8
1124
1124
1222
1421
1020
ENDCHAR
STARTCHAR 50F5
ENCODING 20725
SWIDTH 765 0
DWIDTH 17 0
BBX 16 21 0 -1
BITMAP
0800
0BFF
0800
11FE
1122
1122
31FE
5122
91FE
1000
13FF
1000
11FE
1122
1122
11FE
1122
1122
11FE
1000
17FF
ENDCHAR
STARTCHAR 50FB
ENCODING 20731
SWIDTH 765 0
DWIDTH 17 0
BBX 16 21 0 -2
BITMAP
1008
1788
14BE
2480
2484
2494
6494
A788
A43F
2408
27C8
2648
267E
2648
2648
2E48
2A48
2A48
2A48
2BC8
2008
ENDCHAR
STARTCHAR 5104
ENCODING 20740
SWIDTH 765 0
DWIDTH 17 0
BBX 16 22 1 -2
BITMAP
0820
0820
0BFE
1808
1088
3050
37FF
5000
91FC
1104
1104
11FC
1104
11FC
1000
1020
10B0
1492
1482
148B
1489
107C
ENDCHAR
STARTCHAR 5106
ENCODING 20742
SWIDTH 765 0
DWIDTH 17 0
BBX 16 21 0 -1
BITMAP
1290
1290
1FF0
2290
229F
2292
2412
6432
A7F2
A452
2854
3754
354C
254C
2548
254C
2554
2756
2052
2063
2061
ENDCHAR
STARTCHAR 5107
ENCODING 20743
SWIDTH 810 0
DWIDTH 18 0
BBX 16 22 1 -1
BITMAP
0800
09FE
0952
1152
1152
11FE
3000
57FF
9000
9000
11FC
1104
1104
11FC
1041
1082
1194
1288
1488
1884
1083
1081
ENDCHAR
STARTCHAR 510B
ENCODING 20747
SWIDTH 720 0
DWIDTH 16 0
BBX 15 22 0 -2
BITMAP
1100
1200
13F0
1210
2420
27FE
2400
6448
A4A4
A520
25FE
2400
25FC
2400
2400
25FC
2400
28FC
2884
2884
3084
30FC
ENDCHAR
STARTCHAR 5112
ENCODING 20754
SWIDTH 765 0
DWIDTH 17 0
BBX 16 21 0 -1
BITMAP
0C00
0FFE
0820
0820
1BFF
1221
33FD
3020
51FE
9000
17FF
1040
1040
13FE
1252
1252
1252
1252
1252
1252
1252
ENDCHAR
STARTCHAR 5121
ENCODING 20769
SWIDTH 720 0
DWIDTH 16 0
BBX 15 21 0 -1
BITMAP
1000
13FC
1244
2244
23FC
2244
6244
6244
A3FC
2000
2FBE
2AAA
2AAA
2AAA
2AAA
2FBE
2AAA
2AAA
2AAA
2AAA
2FBE
ENDCHAR
STARTCHAR 513F
ENCODING 20799
SWIDTH 765 0
DWIDTH 17 0
BBX 14 21 2 -2
BITMAP
1080
1080
1080
1080
1080
1080
1080
1080
1080
1080
1080
1080
2080
2080
2080
2080
4080
4080
8080
8088
007C
ENDCHAR
STARTCHAR 5140
ENCODING 20800
SWIDTH 765 0
DWIDTH 17 0
BBX 16 20 0 -2
BITMAP
7FFE
0420
0420
0420
0420
0420
0420
0420
0420
0420
0820
0820
0820
1020
1020
1020
2020
4022
403F
8000
ENDCHAR
STARTCHAR 5141
ENCODING 20801
SWIDTH 720 0
DWIDTH 16 0
BBX 15 22 0 -1
BITMAP
0200
0600
0400
0400
0820
1010
1010
2078
3FC8
0448
0440
0440
0440
0440
0840
0840
0840
1040
1042
2042
407E
8000
ENDCHAR
STARTCHAR 5143
ENCODING 20803
SWIDTH 765 0
DWIDTH 17 0
BBX 15 20 1 -2
BITMAP
1FF8
0000
0000
0000
0000
0000
7FFC
0440
0440
0440
0440
0440
0840
0840
0840
1040
1040
2044
407E
8000
ENDCHAR
STARTCHAR 5144
ENCODING 20804
SWIDTH 810 0
DWIDTH 18 0
BBX 16 20 1 -2
BITMAP
1FF8
1008
1008
1008
1008
1008
1008
1FF8
0420
0420
0420
0420
0820
0820
0820
1020
1020
2022
403F
8000
ENDCHAR
STARTCHAR 5145
ENCODING 20805
SWIDTH 765 0
DWIDTH 17 0
BBX 14 21 2 -2
BITMAP
0200
0200
FFF8
0400
0800
0880
1040
1020
2060
3F90
0890
0880
0880
0880
1080
1080
1080
2080
4080
8088
00FC
ENDCHAR
STARTCHAR 5146
ENCODING 20806
SWIDTH 765 0
DWIDTH 17 0
BBX 15 22 1 -2
BITMAP
0480
0480
0480
0488
8498
4490
24A0
24C0
0480
1480
24C0
24A0
4490
C888
8888
0880
1080
3080
2080
6084
40FE
8000
ENDCHAR
STARTCHAR 5148
ENCODING 20808
SWIDTH 765 0
DWIDTH 17 0
BBX 15 21 1 -2
BITMAP
1100
1100
3100
3FF8
2100
4100
8100
8100
0100
FFFC
0840
0840
0840
0840
0840
1040
1040
2040
2040
4044
803E
ENDCHAR
STARTCHAR 5149
ENCODING 20809
SWIDTH 810 0
DWIDTH 18 0
BBX 15 21 2 -2
BITMAP
0100
0108
2110
1110
1110
0920
0940
0100
FFFC
0440
0440
0440
0440
0840
0840
0840
1040
1040
2040
4044
807E
ENDCHAR
STARTCHAR 514B
ENCODING 20811
SWIDTH 810 0
DWIDTH 18 0
BBX 15 21 2 -2
BITMAP
0200
0200
FFFC
0200
0200
0200
1FE0
1020
1020
1020
1020
1FE0
0880
0880
0880
0880
1080
1080
2080
4084
807E
ENDCHAR
STARTCHAR 514D
ENCODING 20813
SWIDTH 765 0
DWIDTH 17 0
BBX 14 21 2 0
BITMAP
1000
1000
3F80
2080
4100
8200
FFE0
4220
4220
4220
4220
7FE0
0500
0500
0D00
0900
1900
1100
2100
4108
81FC
ENDCHAR
STARTCHAR 5150
ENCODING 20816
SWIDTH 765 0
DWIDTH 17 0
BBX 14 21 2 -2
BITMAP
4FF0
4810
4810
4810
4810
4FF0
4810
4810
4810
4FF0
0000
1100
1100
1100
1100
1100
2100
2100
4100
8108
00FC
ENDCHAR
STARTCHAR 5151
ENCODING 20817
SWIDTH 765 0
DWIDTH 17 0
BBX 14 21 2 -1
BITMAP
1040
1040
0880
0900
3FE0
2020
2020
2020
2020
2020
2020
3FE0
0880
0880
0880
1080
1080
1080
2080
4084
80FC
ENDCHAR
STARTCHAR 5152
ENCODING 20818
SWIDTH 720 0
DWIDTH 16 0
BBX 15 21 1 -2
BITMAP
0600
38F8
2008
2008
2008
3CF8
2008
2008
2008
2008
3FF8
0C40
0840
0840
0840
0840
1040
1040
2040
4044
807E
ENDCHAR
STARTCHAR 5154
ENCODING 20820
SWIDTH 765 0
DWIDTH 17 0
BBX 14 21 2 0
BITMAP
1000
1000
3F80
2080
4100
8200
FFE0
4220
4220
4220
4220
7FE0
0500
0500
0D40
0920
1930
1110
2100
4108
81FC
ENDCHAR
STARTCHAR 5155
ENCODING 20821
SWIDTH 765 0
DWIDTH 17 0
BBX 15 20 1 -2
BITMAP
7CF8
4488
4488
4488
4788
4008
4008
4008
7FF8
0880
0880
1880
1080
1080
1080
2080
2080
4080
8084
007E
ENDCHAR
STARTCHAR 5156
ENCODING 20822
SWIDTH 720 0
DWIDTH 16 0
BBX 14 22 1 -2
BITMAP
0200
0200
FFFC
0000
0880
1040
3620
4410
0888
1040
2060
3F90
0890
0880
0880
0880
1080
1080
2084
2084
40FC
8000
ENDCHAR
STARTCHAR 515A
ENCODING 20826
SWIDTH 765 0
DWIDTH 17 0
BBX 14 21 2 -1
BITMAP
0200
1220
1200
0200
FFF8
8008
8008
1FE0
1020
1020
1020
1020
1FE0
0880
0880
0880
1080
1080
2080
4088
80FC
ENDCHAR
STARTCHAR 515C
ENCODING 20828
SWIDTH 765 0
DWIDTH 17 0
BBX 15 21 2 0
BITMAP
0100
1200
67F8
4848
4848
4848
47C8
4848
4848
4848
77F8
0000
0480
0480
0480
0880
0880
1080
2080
4084
807E
ENDCHAR
STARTCHAR 5162
ENCODING 20834
SWIDTH 720 0
DWIDTH 16 0
BBX 15 21 0 -1
BITMAP
1020
1020
1020
FEFE
1020
1020
7EFC
4284
4284
4284
4284
7EFC
2850
2850
2850
2850
4890
4890
4890
8912
091E
ENDCHAR
STARTCHAR 5165
ENCODING 20837
SWIDTH 765 0
DWIDTH 17 0
BBX 15 20 1 -1
BITMAP
0100
0100
0100
0100
0180
0180
0180
0140
0240
0240
0620
0420
0410
0810
0810
1008
2008
4004
4006
8002
ENDCHAR
STARTCHAR 5168
ENCODING 20840
SWIDTH 810 0
DWIDTH 18 0
BBX 15 21 2 -1
BITMAP
0200
0200
0500
0480
08C0
1060
2030
4018
9FEC
0206
0200
0200
0200
3FF0
0200
0200
0200
0200
0200
0200
FFFC
ENDCHAR
STARTCHAR 516B
ENCODING 20843
SWIDTH 765 0
DWIDTH 17 0
BBX 15 20 1 -1
BITMAP
0480
0440
0440
0440
0440
0440
0420
0820
0820
0820
0810
0810
1010
1018
1008
2008
200C
4004
4004
8002
ENDCHAR
STARTCHAR 516C
ENCODING 20844
SWIDTH 720 0
DWIDTH 16 0
BBX 13 21 2 -2
BITMAP
0900
0880
1080
1080
1040
2040
2020
4220
4610
8618
0408
0400
0800
0800
1880
1040
2020
2020
41F0
7E10
0010
ENDCHAR
STARTCHAR 516D
ENCODING 20845
SWIDTH 720 0
DWIDTH 16 0
BBX 14 20 1 0
BITMAP
0200
0100
0100
0000
0000
FFFC
0000
0000
0000
0400
0480
0840
0820
0820
1010
1010
2008
2008
4008
8004
ENDCHAR
STARTCHAR 516E
ENCODING 20846
SWIDTH 765 0
DWIDTH 17 0
BBX 16 22 0 -2
BITMAP
0200
0240
0420
0420
0810
0808
1004
2FFA
4401
8400
0400
0400
07F0
0010
0010
0010
0010
0010
0010
0010
0010
0010
ENDCHAR
STARTCHAR 5170
ENCODING 20848
SWIDTH 765 0
DWIDTH 17 0
BBX 13 20 2 0
BITMAP
1040
0840
0880
0480
0000
7FF0
0000
0000
0000
0000
0000
3FE0
0000
0000
0000
0000
0000
0000
0000
FFF8
ENDCHAR
STARTCHAR 5171
ENCODING 20849
SWIDTH 765 0
DWIDTH 17 0
BBX 15 21 1 -3
BITMAP
0820
0820
0820
0820
3FFC
0820
0820
0820
0820
0820
0820
0820
FFFE
0000
0440
0C20
0810
1808
1008
2004
0004
ENDCHAR
STARTCHAR 5172
ENCODING 20850
SWIDTH 765 0
DWIDTH 17 0
BBX 15 20 1 -2
BITMAP
7FF8
0100
0100
0100
1FF0
0100
0100
0100
FFFE
0000
0000
0480
0440
0840
0820
1030
2010
2008
4004
8002
ENDCHAR
STARTCHAR 5173
ENCODING 20851
SWIDTH 720 0
DWIDTH 16 0
BBX 14 21 1 -1
BITMAP
0020
1060
0840
0880
7FF0
0200
0200
0200
0200
0200
FFF8
0400
0500
0500
0C80
0840
1020
1020
2010
4008
8004
ENDCHAR
STARTCHAR 5174
ENCODING 20852
SWIDTH 720 0
DWIDTH 16 0
BBX 14 21 1 -2
BITMAP
0400
4410
4210
2220
3120
1120
1140
1840
0800
0000
FFFC
0000
0400
0C40
0820
1820
1010
3018
2008
400C
800C
ENDCHAR
STARTCHAR 5175
ENCODING 20853
SWIDTH 810 0
DWIDTH 18 0
BBX 16 21 1 -1
BITMAP
0018
0070
0780
0800
0800
0800
0FFE
0820
0820
0820
0820
0820
0820
FFFF
0000
0440
0430
0818
100C
2004
0002
ENDCHAR
STARTCHAR 5176
ENCODING 20854
SWIDTH 765 0
DWIDTH 17 0
BBX 15 21 1 -2
BITMAP
0820
0820
7FFC
0820
0820
0820
0FE0
0820
0820
0820
0FE0
0820
0820
0820
FFFE
0000
0440
0C20
1810
1008
2004
ENDCHAR
STARTCHAR 5177
ENCODING 20855
SWIDTH 765 0
DWIDTH 17 0
BBX 15 21 1 -2
BITMAP
1FF0
1010
1010
1FF0
1010
1010
1010
1FF0
1010
1010
1FF0
1010
1010
1010
FFFE
0000
0C20
1810
1008
200C
4004
ENDCHAR
STARTCHAR 5178
ENCODING 20856
SWIDTH 765 0
DWIDTH 17 0
BBX 15 22 1 -3
BITMAP
0440
0440
0440
3FF8
2448
2448
2448
2448
2448
3FF8
2448
2448
2448
2448
2448
FFFE
0040
0C20
0810
1808
3004
4000
ENDCHAR
STARTCHAR 5179
ENCODING 20857
SWIDTH 765 0
DWIDTH 17 0
BBX 15 21 1 -2
BITMAP
0820
0820
0440
FFFE
0820
0820
0820
1040
1244
264C
2488
4488
7CF8
0810
0810
1020
1428
2448
4284
7EFC
6284
ENDCHAR
STARTCHAR 517B
ENCODING 20859
SWIDTH 810 0
DWIDTH 18 0
BBX 15 21 2 -2
BITMAP
0840
0C40
0080
7FF8
0200
0200
3FF0
0600
FFFC
0840
0840
1020
2850
484C
8846
0840
0840
1040
1040
2040
2040
ENDCHAR
STARTCHAR 517C
ENCODING 20860
SWIDTH 765 0
DWIDTH 17 0
BBX 15 21 1 -1
BITMAP
0860
0440
0480
FFFC
0480
0480
3FF8
0488
0488
FFFE
0488
0488
3FF8
14A0
14A0
1490
2490
2488
4488
4484
8484
ENDCHAR
STARTCHAR 517D
ENCODING 20861
SWIDTH 765 0
DWIDTH 17 0
BBX 15 21 1 -1
BITMAP
0820
0440
3FF0
2110
2110
2110
3FF0
2110
2110
3FF0
0000
FFFE
0000
0000
1FF0
1010
1010
1010
1010
1010
1FF0
ENDCHAR
STARTCHAR 5180
ENCODING 20864
SWIDTH 765 0
DWIDTH 17 0
BBX 15 22 1 -2
BITMAP
0400
0448
FC50
0464
0C44
F47C
0000
1FF0
1110
1FF0
1110
1110
1FF0
0440
7FF8
0440
0440
FFFE
0000
0420
1810
600C
ENDCHAR
STARTCHAR 5181
ENCODING 20865
SWIDTH 720 0
DWIDTH 16 0
BBX 15 21 0 -1
BITMAP
4C00
69FC
3104
FD04
95FC
9528
9528
FD28
95FC
9528
FD28
11FE
1140
FF46
1154
1158
1148
1248
1244
1246
1042
ENDCHAR
STARTCHAR 5182
ENCODING 20866
SWIDTH 720 0
DWIDTH 16 0
BBX 12 20 2 -3
BITMAP
FFF0
8010
8010
8010
8010
8010
8010
8010
8010
8010
8010
8010
8010
8010
8010
8010
8010
8010
8010
8010
ENDCHAR
STARTCHAR 5185
ENCODING 20869
SWIDTH 720 0
DWIDTH 16 0
BBX 12 21 2 -2
BITMAP
0400
0400
0400
FFF0
8410
8410
8410
8410
8410
8A10
8A10
8910
9090
9090
A0D0
8010
8010
8010
8010
8010
8010
ENDCHAR
STARTCHAR 5188
ENCODING 20872
SWIDTH 720 0
DWIDTH 16 0
BBX 12 20 2 -3
BITMAP
FFF0
8010
8010
80D0
A090
A090
9110
8910
8610
8610
8610
8910
8910
9090
A0D0
8050
8010
8010
8010
8010
ENDCHAR
STARTCHAR 5189
ENCODING 20873
SWIDTH 765 0
DWIDTH 17 0
BBX 15 20 1 -1
BITMAP
0100
0100
3FF8
2108
2108
2108
2108
3FF8
2108
2108
2108
2108
FFFE
2008
2008
2008
2008
2008
2008
2008
ENDCHAR
STARTCHAR 518C
ENCODING 20876
SWIDTH 765 0
DWIDTH 17 0
BBX 15 20 1 -3
BITMAP
3C78
2448
2448
2448
2448
2448
2448
FFFE
2448
2448
2448
2448
2448
2448
4488
4488
4488
4488
8508
8508
ENDCHAR
STARTCHAR 518D
ENCODING 20877
SWIDTH 765 0
DWIDTH 17 0
BBX 15 20 1 -3
BITMAP
7FFC
0100
0100
0100
1FF8
1108
1108
1108
1FF8
1108
1108
1108
FFFE
1008
1008
1008
1008
1008
1008
1008
ENDCHAR
STARTCHAR 5192
ENCODING 20882
SWIDTH 765 0
DWIDTH 17 0
BBX 13 20 2 -2
BITMAP
FFF8
8008
8008
BFC8
8008
BFC8
8008
0000
3FE0
2020
2020
2020
3FE0
2020
2020
3FE0
2020
2020
2020
3FE0
ENDCHAR
STARTCHAR 5195
ENCODING 20885
SWIDTH 720 0
DWIDTH 16 0
BBX 14 20 1 -2
BITMAP
7FF8
5FC8
4008
4008
5FC8
0800
1F80
1180
2100
7FF0
A210
2210
3FF0
0500
0500
0900
1904
1104
61FC
8000
ENDCHAR
STARTCHAR 5196
ENCODING 20886
SWIDTH 765 0
DWIDTH 17 0
BBX 13 3 2 14
BITMAP
FFF8
8008
8008
ENDCHAR
STARTCHAR 5197
ENCODING 20887
SWIDTH 765 0
DWIDTH 17 0
BBX 14 20 2 -2
BITMAP
FFF8
8008
8008
0000
1FC0
1040
1040
1040
1040
1040
1040
1040
1040
2040
2040
2040
2040
4040
4048
007C
ENDCHAR
STARTCHAR 5199
ENCODING 20889
SWIDTH 765 0
DWIDTH 17 0
BBX 14 20 1 -3
BITMAP
7FFC
4004
4804
0800
0FF8
0800
0800
0800
0800
0FF8
0008
0008
0008
FFE8
0008
0008
0008
0008
0008
0008
ENDCHAR
STARTCHAR 519B
ENCODING 20891
SWIDTH 765 0
DWIDTH 17 0
BBX 15 20 1 -2
BITMAP
7FFC
4004
4404
0400
7FFC
0800
1900
1100
1100
3FF8
0100
0100
0100
FFFE
0100
0100
0100
0100
0100
0100
ENDCHAR
STARTCHAR 519C
ENCODING 20892
SWIDTH 765 0
DWIDTH 17 0
BBX 15 22 1 -2
BITMAP
0100
0100
0100
7FF8
4208
4208
4408
0500
0508
0D10
0C90
14A0
2440
2440
4420
8420
8410
0418
040C
0404
0406
0400
ENDCHAR
STARTCHAR 51A0
ENCODING 20896
SWIDTH 810 0
DWIDTH 18 0
BBX 16 20 1 -2
BITMAP
7FFE
4002
400A
0008
3F08
0008
00FF
0008
7F88
1208
1248
1228
1228
3208
2208
2208
2208
4200
4202
83FF
ENDCHAR
STARTCHAR 51A2
ENCODING 20898
SWIDTH 720 0
DWIDTH 16 0
BBX 14 20 1 -2
BITMAP
FFFC
8004
8004
7FF0
0400
0C18
1230
2220
4640
8DC0
3940
2140
5320
1510
0910
1108
2108
4304
0A00
0600
ENDCHAR
STARTCHAR 51A4
ENCODING 20900
SWIDTH 765 0
DWIDTH 17 0
BBX 15 20 1 -2
BITMAP
7FFC
4804
4804
1FC0
1040
2080
7FF8
2108
2108
2108
2108
3FF8
0280
06A0
0490
0888
1080
2084
40FE
8000
ENDCHAR
STARTCHAR 51A5
ENCODING 20901
SWIDTH 765 0
DWIDTH 17 0
BBX 15 20 1 -2
BITMAP
7FFC
4004
4004
1FF0
1010
1010
1FF0
1010
1010
1FF0
0100
0100
FFFE
0000
0400
0C20
0810
1008
200C
4004
ENDCHAR
STARTCHAR 51AB
ENCODING 20907
SWIDTH 765 0
DWIDTH 17 0
BBX 4 16 1 2
BITMAP
80
80
40
20
20
00
00
00
00
10
10
20
20
40
C0
80
ENDCHAR
STARTCHAR 51AC
ENCODING 20908
SWIDTH 765 0
DWIDTH 17 0
BBX 14 21 2 -2
BITMAP
0400
0C00
0FE0
1840
1840
2480
4280
0300
0300
06C0
0860
1038
221C
C10C
0080
0080
0800
0600
0100
0080
0040
ENDCHAR
STARTCHAR 51AF
ENCODING 20911
SWIDTH 720 0
DWIDTH 16 0
BBX 15 20 0 -2
BITMAP
87F8
8008
4208
4208
2208
2208
0208
0208
03FE
0002
1002
1002
2002
2FFA
4002
4002
8002
0002
0002
0002
ENDCHAR
STARTCHAR 51B0
ENCODING 20912
SWIDTH 765 0
DWIDTH 17 0
BBX 16 22 0 -3
BITMAP
0040
0040
4040
2042
2046
3044
3F68
3168
0170
0160
0150
0250
1250
1248
2248
2444
6444
C846
0843
1042
0040
0040
ENDCHAR
STARTCHAR 51B1
ENCODING 20913
SWIDTH 720 0
DWIDTH 16 0
BBX 14 19 1 -1
BITMAP
3FFC
8400
8400
8400
4400
47F0
0410
0410
0410
0410
2410
2410
47F0
4010
8010
0010
0010
0010
3FFC
ENDCHAR
STARTCHAR 51B2
ENCODING 20914
SWIDTH 810 0
DWIDTH 18 0
BBX 15 22 1 -2
BITMAP
0040
0040
8040
8040
4040
67FE
2442
0442
0442
0442
0442
1442
17FE
2040
2040
4040
C040
8040
0040
0040
0040
0040
ENDCHAR
STARTCHAR 51B3
ENCODING 20915
SWIDTH 810 0
DWIDTH 18 0
BBX 16 21 1 -1
BITMAP
0040
0040
0040
47FC
4044
2044
2044
0044
0044
0044
0FFF
20E0
20A0
2090
2090
4108
4108
C204
0404
0802
0003
ENDCHAR
STARTCHAR 51B5
ENCODING 20917
SWIDTH 765 0
DWIDTH 17 0
BBX 16 20 0 -2
BITMAP
87F8
8408
4408
4408
2408
2408
0408
07F8
0110
0110
1110
1110
2110
2110
6210
4210
8210
0410
0812
001F
ENDCHAR
STARTCHAR 51B6
ENCODING 20918
SWIDTH 720 0
DWIDTH 16 0
BBX 15 21 0 -1
BITMAP
0040
0040
4080
4080
2108
3108
1204
043C
07C2
0002
0000
13FC
1204
1204
2204
2204
6204
C204
0204
0204
03FC
ENDCHAR
STARTCHAR 51B7
ENCODING 20919
SWIDTH 765 0
DWIDTH 17 0
BBX 15 21 1 -1
BITMAP
00C0
00C0
81A0
8110
4210
248C
2886
1042
0040
0000
07F8
2008
2010
2010
4010
4220
4120
80C0
0040
0020
0030
ENDCHAR
STARTCHAR 51BB
ENCODING 20923
SWIDTH 720 0
DWIDTH 16 0
BBX 15 21 0 0
BITMAP
0080
0080
8080
8FFE
4100
2120
2320
0220
0220
03FC
1020
1020
1020
2128
2228
4224
4226
8422
0820
0820
0020
ENDCHAR
STARTCHAR 51BC
ENCODING 20924
SWIDTH 720 0
DWIDTH 16 0
BBX 16 20 0 -1
BITMAP
0040
0240
4240
43FC
2440
2440
0840
0040
0040
0FFE
0110
2110
2110
2110
4210
4210
C210
0410
0812
001F
ENDCHAR
STARTCHAR 51BD
ENCODING 20925
SWIDTH 720 0
DWIDTH 16 0
BBX 15 22 0 -2
BITMAP
0002
0002
0FE2
0202
4212
4212
23D2
2452
0452
0452
0A52
0B92
2192
2092
2092
2112
4112
4202
C202
0402
0802
0002
ENDCHAR
STARTCHAR 51C0
ENCODING 20928
SWIDTH 765 0
DWIDTH 17 0
BBX 16 22 0 -2
BITMAP
0100
0100
03F8
4218
4410
2820
2BFC
0044
0044
0044
0FFF
2044
2044
2044
27FC
4040
4040
C040
0040
0040
0040
0040
ENDCHAR
STARTCHAR 51C4
ENCODING 20932
SWIDTH 810 0
DWIDTH 18 0
BBX 16 22 1 -1
BITMAP
0040
0040
07FF
4040
23FC
2044
2044
0FFF
0044
07FC
1000
1080
1080
3FFF
2108
6118
4110
C0A0
0060
00D8
0186
0E02
ENDCHAR
STARTCHAR 51C6
ENCODING 20934
SWIDTH 765 0
DWIDTH 17 0
BBX 15 22 1 -3
BITMAP
0220
0220
8220
4420
47FE
6C20
6C20
1420
0420
07FC
0420
2420
2420
47FC
4420
4420
8420
8420
0420
07FE
0400
0400
ENDCHAR
STARTCHAR 51C7
ENCODING 20935
SWIDTH 765 0
DWIDTH 17 0
BBX 16 22 0 -2
BITMAP
0200
0238
0228
8228
8224
4224
5FA4
6A42
0A42
0A89
0B98
0A90
3210
3210
3210
6220
6224
4224
0242
0242
027E
0200
ENDCHAR
STARTCHAR 51C9
ENCODING 20937
SWIDTH 765 0
DWIDTH 17 0
BBX 15 21 1 -2
BITMAP
0040
8040
8FFE
4000
2000
23F8
2208
0208
0208
0208
0208
13F8
1040
2240
6248
4444
8446
0842
0840
1040
0040
ENDCHAR
STARTCHAR 51CB
ENCODING 20939
SWIDTH 765 0
DWIDTH 17 0
BBX 14 20 1 -2
BITMAP
0FFC
8804
8844
4844
4844
2BF4
0844
0844
0BFC
0804
2804
2BF4
2A14
4A14
5214
D214
93F4
1004
2004
2004
ENDCHAR
STARTCHAR 51CC
ENCODING 20940
SWIDTH 765 0
DWIDTH 17 0
BBX 15 21 1 -1
BITMAP
0040
87FC
8040
4040
4040
2FFE
2000
0110
0208
0304
0502
11F8
1310
2310
24A0
4060
C040
80A0
0118
020C
0402
ENDCHAR
STARTCHAR 51CF
ENCODING 20943
SWIDTH 765 0
DWIDTH 17 0
BBX 16 21 1 -2
BITMAP
0010
0014
0012
8010
4FFE
4810
6810
0BF0
0810
0810
0BD2
2A52
2A54
2A5C
525C
5258
D3C8
9018
202C
2026
2007
ENDCHAR
STARTCHAR 51D1
ENCODING 20945
SWIDTH 765 0
DWIDTH 17 0
BBX 15 22 1 -2
BITMAP
0040
0040
87FE
4040
60C0
23FC
3080
0180
0FFE
0110
0310
1208
25F4
2442
2840
47FC
C080
80A0
0110
020C
0406
0800
ENDCHAR
STARTCHAR 51DB
ENCODING 20955
SWIDTH 765 0
DWIDTH 17 0
BBX 15 22 1 -3
BITMAP
0040
0040
1FFE
8000
8000
47F8
45E8
4528
05E8
0408
07F8
0000
27F8
2000
6000
5FFE
4040
8250
8448
0844
0046
0040
ENDCHAR
STARTCHAR 51DD
ENCODING 20957
SWIDTH 720 0
DWIDTH 16 0
BBX 15 21 0 -1
BITMAP
0800
083E
0906
4E24
4818
2908
2F88
0000
0C7E
0C0A
0FAA
3228
3228
222E
5FA8
4648
4648
8548
0968
08A8
109E
ENDCHAR
STARTCHAR 51E0
ENCODING 20960
SWIDTH 765 0
DWIDTH 17 0
BBX 15 20 1 -2
BITMAP
1FC0
1040
1040
1040
1040
1040
1040
1040
1040
1040
1040
1040
2040
2040
2040
2040
4040
4040
8044
803E
ENDCHAR
STARTCHAR 51E1
ENCODING 20961
SWIDTH 765 0
DWIDTH 17 0
BBX 15 20 1 -2
BITMAP
1FE0
1020
1020
1020
1020
1020
1220
1220
1120
1120
1020
1020
1020
1020
2020
2020
2020
4020
8024
803E
ENDCHAR
STARTCHAR 51E4
ENCODING 20964
SWIDTH 720 0
DWIDTH 16 0
BBX 15 20 0 -2
BITMAP
3FF0
2010
2010
2010
2F90
2090
2090
2490
2490
2310
2110
2110
2310
2290
2490
4850
4850
5010
800A
8006
ENDCHAR
STARTCHAR 51EB
ENCODING 20971
SWIDTH 810 0
DWIDTH 18 0
BBX 16 21 1 0
BITMAP
0400
0400
3FE0
2020
2420
2220
2200
2000
3FF8
0008
0008
1F88
1088
1088
1088
1080
2080
2080
4080
4082
807F
ENDCHAR
STARTCHAR 51ED
ENCODING 20973
SWIDTH 765 0
DWIDTH 17 0
BBX 15 21 1 -1
BITMAP
0830
11C0
2280
2080
6080
AFFC
2080
2080
2080
27F8
2000
0000
0FC0
0840
0840
0840
1040
1040
2040
4044
807E
ENDCHAR
STARTCHAR 51EF
ENCODING 20975
SWIDTH 765 0
DWIDTH 17 0
BBX 15 21 1 -2
BITMAP
1000
94F8
9488
9488
9488
FC88
0088
0088
FC88
0488
0488
0488
FC88
8088
8108
8108
8108
9A08
A20A
C40A
040E
ENDCHAR
STARTCHAR 51F0
ENCODING 20976
SWIDTH 765 0
DWIDTH 17 0
BBX 16 21 1 -2
BITMAP
3FF8
2008
2108
2108
27C8
2448
2448
27C8
2448
27C8
2008
2008
2FE8
2108
4108
47C8
4108
4108
9FF8
8006
0007
ENDCHAR
STARTCHAR 51F3
ENCODING 20979
SWIDTH 765 0
DWIDTH 17 0
BBX 15 21 1 0
BITMAP
0010
7C90
4464
3C68
1830
17D0
2008
4FE4
0820
0FE0
0820
0440
FFFE
0000
0FC0
0840
0840
0840
1040
2044
407E
ENDCHAR
STARTCHAR 51F5
ENCODING 20981
SWIDTH 765 0
DWIDTH 17 0
BBX 13 18 2 0
BITMAP
8008
8008
8008
8008
8008
8008
8008
8008
8008
8008
8008
8008
8008
8008
8008
8008
8008
FFF8
ENDCHAR
STARTCHAR 51F6
ENCODING 20982
SWIDTH 720 0
DWIDTH 16 0
BBX 12 20 2 -1
BITMAP
0040
00C0
2080
1080
8990
8910
8510
8310
8210
8310
8510
8490
8890
9050
9050
A050
8010
8010
8010
FFF0
ENDCHAR
STARTCHAR 51F8
ENCODING 20984
SWIDTH 765 0
DWIDTH 17 0
BBX 13 20 2 -2
BITMAP
0F80
0880
0880
0880
0880
0880
0880
F8F8
8008
8008
8008
8008
8008
8008
8008
8008
8008
8008
8008
FFF8
ENDCHAR
STARTCHAR 51F9
ENCODING 20985
SWIDTH 765 0
DWIDTH 17 0
BBX 13 20 2 -2
BITMAP
F8F8
8888
8888
8888
8888
8888
8888
8888
8888
8888
8F88
8008
8008
8008
8008
8008
8008
8008
8008
FFF8
ENDCHAR
STARTCHAR 51FA
ENCODING 20986
SWIDTH 720 0
DWIDTH 16 0
BBX 12 20 2 0
BITMAP
0400
0400
4420
4420
4420
4420
4420
4420
7FE0
0400
0400
0400
8410
8410
8410
8410
8410
8410
8410
FFF0
ENDCHAR
STARTCHAR 51FB
ENCODING 20987
SWIDTH 765 0
DWIDTH 17 0
BBX 15 21 1 -2
BITMAP
0100
0100
0100
0100
3FF8
0100
0100
0100
0100
FFFE
0100
0100
0100
2108
2108
2108
2108
2108
2108
2108
3FF8
ENDCHAR
STARTCHAR 51FC
ENCODING 20988
SWIDTH 765 0
DWIDTH 17 0
BBX 13 21 2 -2
BITMAP
0200
0200
0200
0200
8248
BA48
8A88
8B08
8A08
8A08
9308
9288
9288
9248
A268
C228
C208
8208
8208
8008
FFF8
ENDCHAR
STARTCHAR 51FD
ENCODING 20989
SWIDTH 765 0
DWIDTH 17 0
BBX 13 20 2 -2
BITMAP
3FE0
0040
0080
0100
0220
A268
92C8
9288
8308
8208
8B08
9288
9288
9248
A228
A228
8208
8008
8008
FFF8
ENDCHAR
STARTCHAR 51FF
ENCODING 20991
SWIDTH 765 0
DWIDTH 17 0
BBX 15 21 1 -2
BITMAP
0240
0240
2248
1248
1250
0240
FFFE
0000
0440
2248
2288
2FF8
2108
2108
2108
2FE8
2108
2108
2108
2008
3FF8
ENDCHAR
STARTCHAR 5200
ENCODING 20992
SWIDTH 765 0
DWIDTH 17 0
BBX 14 20 1 -2
BITMAP
3FFC
0204
0204
0204
0204
0204
0204
0204
0404
0404
0404
0404
0404
0804
0804
1004
1004
2004
4004
8004
ENDCHAR
STARTCHAR 5201
ENCODING 20993
SWIDTH 720 0
DWIDTH 16 0
BBX 13 20 1 -3
BITMAP
7FF8
0008
0008
0008
0008
0048
0088
0108
0208
0408
0808
3008
6008
8008
0008
0008
0008
0008
0008
0008
ENDCHAR
STARTCHAR 5202
ENCODING 20994
SWIDTH 765 0
DWIDTH 17 0
BBX 5 22 10 -2
BITMAP
08
08
08
08
88
88
88
88
88
88
88
88
88
88
88
88
88
08
08
08
08
08
ENDCHAR
STARTCHAR 5203
ENCODING 20995
SWIDTH 720 0
DWIDTH 16 0
BBX 13 20 1 -2
BITMAP
7FF8
0208
0208
0208
0208
0208
2208
2208
2608
4408
4408
0408
0C08
0808
0808
1008
1008
2008
4008
8008
ENDCHAR
STARTCHAR 5206
ENCODING 20998
SWIDTH 765 0
DWIDTH 17 0
BBX 15 21 1 -1
BITMAP
0400
0440
0440
0820
0820
1010
1018
200C
4006
5FF2
8410
0410
0410
0410
0810
0810
0810
1010
1010
2010
4010
ENDCHAR
STARTCHAR 5207
ENCODING 20999
SWIDTH 720 0
DWIDTH 16 0
BBX 15 22 0 -1
BITMAP
1000
1000
11FE
1042
1042
1042
1E42
F042
1042
1042
1042
1042
1082
1082
1082
1082
1102
1102
1102
1202
1402
1002
ENDCHAR
STARTCHAR 5208
ENCODING 21000
SWIDTH 720 0
DWIDTH 16 0
BBX 15 22 0 -3
BITMAP
0002
0202
4202
4202
2222
2422
2422
1422
1422
0C22
0822
0C22
0C22
1422
1222
2222
2322
4102
4182
8182
8002
0002
ENDCHAR
STARTCHAR 520A
ENCODING 21002
SWIDTH 720 0
DWIDTH 16 0
BBX 15 22 0 -2
BITMAP
0002
0002
7F82
0802
0822
0822
0822
0822
0822
FFA2
0822
0822
0822
0822
0822
0822
0822
0802
0802
0802
0802
0802
ENDCHAR
STARTCHAR 520D
ENCODING 21005
SWIDTH 720 0
DWIDTH 16 0
BBX 12 21 1 0
BITMAP
0800
1800
1FC0
1040
2080
2080
4100
8100
BFF0
0010
0010
0010
0010
0010
3FF0
0010
0010
0010
0010
0010
7FF0
ENDCHAR
STARTCHAR 520E
ENCODING 21006
SWIDTH 720 0
DWIDTH 16 0
BBX 15 22 0 -2
BITMAP
2002
2002
2002
2002
7F92
5A92
9292
9292
1292
1292
2292
2492
2492
4492
4C92
8892
8892
1082
1082
2082
2082
4082
ENDCHAR
STARTCHAR 5211
ENCODING 21009
SWIDTH 765 0
DWIDTH 17 0
BBX 15 22 1 -2
BITMAP
0002
0002
FF82
2202
2212
2212
2212
2212
2212
2212
FFD2
2212
2212
2212
2212
2212
4212
4202
4202
8202
8202
0202
ENDCHAR
STARTCHAR 5212
ENCODING 21010
SWIDTH 720 0
DWIDTH 16 0
BBX 14 22 1 -3
BITMAP
1004
1404
1204
1204
1024
1024
3F24
F024
1024
1024
1124
1124
1224
1624
0C24
0824
1824
1C04
2404
4244
81C4
0004
ENDCHAR
STARTCHAR 5216
ENCODING 21014
SWIDTH 720 0
DWIDTH 16 0
BBX 15 22 0 -2
BITMAP
0002
0002
3F02
2102
2112
2112
2112
3F12
2112
2112
2112
2112
3F12
2112
2112
2112
4112
4102
4102
8102
8102
0102
ENDCHAR
STARTCHAR 5217
ENCODING 21015
SWIDTH 765 0
DWIDTH 17 0
BBX 15 22 1 -2
BITMAP
0002
0002
7FC2
0802
0822
0822
1FA2
10A2
10A2
1122
2922
4922
4522
0222
0222
0422
0422
0802
1002
2002
4002
8002
ENDCHAR
STARTCHAR 5218
ENCODING 21016
SWIDTH 810 0
DWIDTH 18 0
BBX 16 21 1 -2
BITMAP
0401
0401
0401
7FD1
0111
0111
2111
1111
1211
0A11
0611
0411
0611
0B11
0911
1191
1081
20C1
4041
4001
8001
ENDCHAR
STARTCHAR 5219
ENCODING 21017
SWIDTH 720 0
DWIDTH 16 0
BBX 14 22 1 -2
BITMAP
0004
0004
7F04
4104
4124
4924
4924
4924
4924
4924
4924
4924
4924
4924
4924
1024
1424
1204
2204
4104
8084
0084
ENDCHAR
STARTCHAR 521A
ENCODING 21018
SWIDTH 765 0
DWIDTH 17 0
BBX 14 22 1 -2
BITMAP
0004
0004
FF04
8104
8124
8524
8524
A524
A524
9924
8924
8924
8924
9524
9524
A524
A324
C104
8104
8104
8104
8104
ENDCHAR
STARTCHAR 521B
ENCODING 21019
SWIDTH 675 0
DWIDTH 15 0
BBX 14 22 0 -2
BITMAP
0404
0C04
0C04
1224
1124
2124
40A4
40A4
BF24
2124
2124
2124
2124
2124
2124
2124
2024
2004
2084
2084
1F84
0004
ENDCHAR
STARTCHAR 521D
ENCODING 21021
SWIDTH 720 0
DWIDTH 16 0
BBX 14 21 1 -2
BITMAP
2000
2000
13FC
0044
7844
0844
1844
1044
1444
3444
3844
5444
9644
1084
1084
1084
1104
1104
1204
1204
1004
ENDCHAR
STARTCHAR 5220
ENCODING 21024
SWIDTH 720 0
DWIDTH 16 0
BBX 15 22 0 -2
BITMAP
0002
0002
7B82
4A82
4A92
4A92
4A92
4A92
4A92
FFF2
4A92
4A92
4A92
4A92
4A92
4A92
4A92
4C82
8C82
8C82
8C82
0882
ENDCHAR
STARTCHAR 5224
ENCODING 21028
SWIDTH 720 0
DWIDTH 16 0
BBX 14 22 1 -2
BITMAP
0804
0804
0884
4984
2914
2A14
0814
7F94
0814
0814
0814
0814
FFD4
0814
1014
1014
1014
1004
2004
2004
4004
0004
ENDCHAR
STARTCHAR 5228
ENCODING 21032
SWIDTH 765 0
DWIDTH 17 0
BBX 15 22 0 -2
BITMAP
1002
1002
2002
3F82
2092
4092
4092
BE92
2292
2292
2292
2292
2292
3E92
2092
2092
2012
2002
2002
2002
2082
1FC2
ENDCHAR
STARTCHAR 5229
ENCODING 21033
SWIDTH 675 0
DWIDTH 15 0
BBX 14 22 0 -2
BITMAP
0004
0304
1C04
E804
0824
0824
0824
FFA4
2824
2824
2C24
2A24
2B24
4924
48A4
4824
4824
8804
8804
0804
0804
0804
ENDCHAR
STARTCHAR 522B
ENCODING 21035
SWIDTH 720 0
DWIDTH 16 0
BBX 15 21 0 -2
BITMAP
3F82
2082
2082
2092
2092
3F92
0012
0812
0812
7F92
0892
0892
0892
0892
1092
1092
1082
2082
2082
4082
8082
ENDCHAR
STARTCHAR 522D
ENCODING 21037
SWIDTH 720 0
DWIDTH 16 0
BBX 15 22 0 -2
BITMAP
0002
3F02
0102
0302
0212
0612
0612
0912
1092
2052
4032
3FD2
0412
0412
0412
0412
0412
0412
0442
0782
F802
0002
ENDCHAR
STARTCHAR 522E
ENCODING 21038
SWIDTH 765 0
DWIDTH 17 0
BBX 15 22 1 -2
BITMAP
0002
0102
0602
1C02
2412
0412
0412
FFD2
0412
0412
0412
0412
3F12
2112
2112
2112
2112
2112
2102
2102
3F02
0002
ENDCHAR
STARTCHAR 5230
ENCODING 21040
SWIDTH 720 0
DWIDTH 16 0
BBX 14 22 1 -2
BITMAP
0004
0004
FF04
1004
1024
1024
2224
4224
7D24
0124
0824
0824
0824
FF24
0824
0824
0824
0804
0804
0F04
F004
0004
ENDCHAR
STARTCHAR 5233
ENCODING 21043
SWIDTH 765 0
DWIDTH 17 0
BBX 15 22 1 -2
BITMAP
0402
0402
0402
7FC2
0812
1612
1112
2092
5F52
8012
0012
7FD2
1012
1012
1F92
0092
0092
0082
0082
0082
0082
0082
ENDCHAR
STARTCHAR 5236
ENCODING 21046
SWIDTH 765 0
DWIDTH 17 0
BBX 15 22 1 -2
BITMAP
0802
0802
6802
6802
7F92
4812
8812
0812
FFD2
0812
0812
7F92
4892
4892
4892
4892
4892
4892
4882
0802
0802
0802
ENDCHAR
STARTCHAR 5237
ENCODING 21047
SWIDTH 720 0
DWIDTH 16 0
BBX 15 22 0 -2
BITMAP
0002
0002
3FC2
2042
204A
204A
3FCA
220A
220A
220A
2FCA
2A4A
2A4A
2A4A
2A4A
4A4A
4A4A
4A42
8A42
8A42
8202
0202
ENDCHAR
STARTCHAR 5238
ENCODING 21048
SWIDTH 810 0
DWIDTH 18 0
BBX 15 22 2 -2
BITMAP
0100
0320
1320
0A40
7FF8
0400
0400
0400
FFFC
0840
1020
2010
4FEC
8426
0420
0420
0820
0820
1020
1020
2020
4000
ENDCHAR
STARTCHAR 5239
ENCODING 21049
SWIDTH 675 0
DWIDTH 15 0
BBX 14 22 0 -2
BITMAP
0204
4204
2404
1C04
0824
1424
2224
4B24
8924
0824
0824
FFE4
0824
2824
2A24
2A24
4924
4904
4884
8804
0804
0804
ENDCHAR
STARTCHAR 523A
ENCODING 21050
SWIDTH 720 0
DWIDTH 16 0
BBX 15 22 0 -2
BITMAP
0802
0802
0802
FF82
0812
0812
0812
7F12
4912
4912
4912
4912
5912
1812
2E12
2912
4892
8802
8802
0802
0802
0802
ENDCHAR
STARTCHAR 523B
ENCODING 21051
SWIDTH 765 0
DWIDTH 17 0
BBX 15 22 1 -2
BITMAP
0402
0402
0402
FFC2
0812
1812
1212
2212
2412
7C12
0492
0992
1112
1112
2212
4212
8612
0D02
1982
1082
60C2
8002
ENDCHAR
STARTCHAR 523D
ENCODING 21053
SWIDTH 810 0
DWIDTH 18 0
BBX 16 22 1 -2
BITMAP
0402
0403
0C03
0A03
0903
110B
208B
204B
5F0B
800B
000B
000B
7FCB
080B
080B
100B
1103
2083
2383
7C83
70C3
0002
ENDCHAR
STARTCHAR 523F
ENCODING 21055
SWIDTH 720 0
DWIDTH 16 0
BBX 15 21 0 -2
BITMAP
0402
4482
4482
4492
4492
7F92
1012
1012
1F92
2092
2112
6112
5112
8A12
8212
0412
0402
0802
1002
2002
C002
ENDCHAR
STARTCHAR 5240
ENCODING 21056
SWIDTH 720 0
DWIDTH 16 0
BBX 14 22 1 -2
BITMAP
1004
1004
9104
9104
9124
9124
FF24
0024
0024
FF24
0124
0124
0124
FF24
8024
8024
8024
8004
8604
9804
E004
0004
ENDCHAR
STARTCHAR 5241
ENCODING 21057
SWIDTH 720 0
DWIDTH 16 0
BBX 15 22 0 -3
BITMAP
0002
3E02
2202
2202
2212
2212
4212
4B92
8812
0812
0812
FF92
2812
2812
2C12
2A12
4912
4982
4802
8802
8802
0802
ENDCHAR
STARTCHAR 5242
ENCODING 21058
SWIDTH 765 0
DWIDTH 17 0
BBX 15 22 1 -2
BITMAP
0802
0802
0802
FF82
0222
4622
3422
0822
0C22
1222
2122
40A2
2222
2222
2222
2222
2222
4202
4202
4202
8202
0202
ENDCHAR
STARTCHAR 5243
ENCODING 21059
SWIDTH 720 0
DWIDTH 16 0
BBX 15 22 0 -2
BITMAP
2102
2102
1202
1202
7F92
0492
0492
0492
7F92
4412
4412
4412
7F92
2492
2492
2492
2492
4482
4482
4482
8482
0402
ENDCHAR
STARTCHAR 524A
ENCODING 21066
SWIDTH 720 0
DWIDTH 16 0
BBX 14 22 1 -2
BITMAP
0804
0904
8904
8A04
4A24
4C24
FF24
8124
8124
8124
8124
FF24
8124
8124
8124
FF24
8124
8104
8104
8104
8104
8104
ENDCHAR
STARTCHAR 524B
ENCODING 21067
SWIDTH 765 0
DWIDTH 17 0
BBX 15 21 1 -2
BITMAP
0804
0804
0804
FFA4
0824
0824
7F24
4124
4124
4124
4124
7F24
2424
2424
2404
2404
2404
4404
4400
8404
87FE
ENDCHAR
STARTCHAR 524C
ENCODING 21068
SWIDTH 765 0
DWIDTH 17 0
BBX 15 22 1 -3
BITMAP
0802
0802
FFC2
0812
0812
0812
7F92
4892
4892
4892
7F92
2812
2C12
2A12
2912
4892
4882
8802
8802
0802
0802
0802
ENDCHAR
STARTCHAR 524D
ENCODING 21069
SWIDTH 765 0
DWIDTH 17 0
BBX 15 21 1 -1
BITMAP
0820
0440
0440
FFFE
0000
0008
3E08
2248
2248
2248
3E48
2248
2248
2248
3E48
2248
2248
2248
2208
2208
2208
ENDCHAR
STARTCHAR 5250
ENCODING 21072
SWIDTH 720 0
DWIDTH 16 0
BBX 14 22 1 -3
BITMAP
0004
7F04
4104
4104
4124
4124
7F24
0824
0824
FFA4
88A4
88A4
98A4
98A4
94A4
A2A4
A2A4
C084
8084
8084
8084
8084
ENDCHAR
STARTCHAR 5251
ENCODING 21073
SWIDTH 720 0
DWIDTH 16 0
BBX 15 22 0 -2
BITMAP
0402
0402
0C02
0A02
110A
108A
208A
204A
5F8A
800A
080A
040A
048A
268A
250A
110A
120A
0042
0382
3E02
7002
0002
ENDCHAR
STARTCHAR 5254
ENCODING 21076
SWIDTH 765 0
DWIDTH 17 0
BBX 16 22 0 -2
BITMAP
0001
1F81
1081
1081
1F89
1089
1089
1F89
0009
1009
1FC9
2949
2A49
2A49
5249
1249
2449
2441
4C41
8841
1041
2001
ENDCHAR
STARTCHAR 5256
ENCODING 21078
SWIDTH 720 0
DWIDTH 16 0
BBX 15 22 0 -2
BITMAP
0402
0402
0402
7FC2
0012
2112
1212
1212
0012
FFD2
0012
0012
3F12
2112
2112
2112
2112
2102
2102
2102
3F02
0002
ENDCHAR
STARTCHAR 525C
ENCODING 21084
SWIDTH 765 0
DWIDTH 17 0
BBX 15 22 1 -2
BITMAP
0402
0402
7FC2
4052
6052
2012
3BD2
2A52
4A52
4A52
4A52
D252
B252
1252
1252
2212
2212
2202
4282
8302
8202
0002
ENDCHAR
STARTCHAR 525E
ENCODING 21086
SWIDTH 720 0
DWIDTH 16 0
BBX 15 22 0 -2
BITMAP
0802
0802
0802
FF82
1812
1012
3312
2192
4092
FFD2
0112
0112
7D12
4512
4512
4512
4512
7D02
0102
0102
0102
0102
ENDCHAR
STARTCHAR 5261
ENCODING 21089
SWIDTH 765 0
DWIDTH 17 0
BBX 15 22 1 -1
BITMAP
0402
0402
0402
0482
2492
2512
4D12
0A12
0912
1192
2492
4452
0492
2492
2512
4D12
0A12
0902
1182
2082
4042
8002
ENDCHAR
STARTCHAR 5265
ENCODING 21093
SWIDTH 765 0
DWIDTH 17 0
BBX 16 21 0 -2
BITMAP
1F81
0081
0081
1F89
0089
0089
7FE9
0409
0409
2449
2489
1489
0709
0D09
1489
3489
6441
C441
0401
0401
0401
ENDCHAR
STARTCHAR 5267
ENCODING 21095
SWIDTH 765 0
DWIDTH 17 0
BBX 15 21 1 -2
BITMAP
3FC2
2042
2042
204A
3FCA
200A
200A
220A
220A
3FEA
220A
220A
220A
2FCA
284A
484A
4842
4842
8842
8842
0FC2
ENDCHAR
STARTCHAR 5269
ENCODING 21097
SWIDTH 720 0
DWIDTH 16 0
BBX 15 21 0 -2
BITMAP
0182
0E02
3802
0812
FFD2
0812
2912
E952
2992
2912
2952
E952
39D2
1812
1E12
2912
2882
4882
8842
0842
0802
ENDCHAR
STARTCHAR 526A
ENCODING 21098
SWIDTH 765 0
DWIDTH 17 0
BBX 15 21 1 -1
BITMAP
0820
0440
FFFE
0000
3E08
2248
2248
3E48
2248
3E48
2248
2208
2208
0000
7FF8
0408
0408
0808
1008
2008
4008
ENDCHAR
STARTCHAR 526F
ENCODING 21103
SWIDTH 720 0
DWIDTH 16 0
BBX 15 22 0 -2
BITMAP
0002
FFC2
0002
0002
3F12
2112
2112
2112
3F12
0012
0012
7F92
4892
4892
4892
7F92
4892
4882
4882
4882
7F82
0002
ENDCHAR
STARTCHAR 5272
ENCODING 21106
SWIDTH 765 0
DWIDTH 17 0
BBX 15 22 1 -2
BITMAP
0402
0402
7FC2
4052
4452
0412
7F92
0412
3F92
0412
0412
FFD2
0412
0412
3F92
2092
2082
2082
2082
2082
3F82
0002
ENDCHAR
STARTCHAR 527D
ENCODING 21117
SWIDTH 720 0
DWIDTH 16 0
BBX 15 22 0 -3
BITMAP
0002
FFC2
0A02
0A02
7FCA
4A4A
4A4A
7FCA
000A
000A
7FCA
000A
000A
FFEA
040A
140A
350A
2482
4442
4402
8402
0402
ENDCHAR
STARTCHAR 527F
ENCODING 21119
SWIDTH 765 0
DWIDTH 17 0
BBX 15 22 1 -2
BITMAP
3202
2482
4902
4902
3692
0012
7F92
4492
4492
7F92
4492
4492
7F92
0412
FFD2
3412
3612
2502
4482
4482
8442
8402
ENDCHAR
STARTCHAR 5281
ENCODING 21121
SWIDTH 765 0
DWIDTH 17 0
BBX 15 22 1 -2
BITMAP
1202
1202
2202
3FC2
2212
6212
A212
BFD2
2212
2212
2212
3FD2
2212
2212
3FD2
2012
0012
1082
5282
4A42
C942
8922
ENDCHAR
STARTCHAR 5282
ENCODING 21122
SWIDTH 765 0
DWIDTH 17 0
BBX 16 21 0 -2
BITMAP
0001
3FF1
2A41
2A45
2245
3F75
24B5
24A5
2D45
2D45
2D45
2D45
2D45
2F45
2445
44E5
48B1
4891
4919
9119
0201
ENDCHAR
STARTCHAR 5288
ENCODING 21128
SWIDTH 765 0
DWIDTH 17 0
BBX 15 21 1 -2
BITMAP
3E10
22FC
2200
3E28
2010
20FE
3E10
3210
52FC
9210
9E10
0000
0000
3FF8
0408
0408
0C08
0808
1008
2008
4008
ENDCHAR
STARTCHAR 5290
ENCODING 21136
SWIDTH 720 0
DWIDTH 16 0
BBX 14 22 1 -2
BITMAP
1204
1204
FFC4
1204
2414
2414
3F94
6414
7F94
A414
3F94
2414
3FD4
2014
0014
7F94
0114
1A04
0604
1984
2044
C004
ENDCHAR
STARTCHAR 5293
ENCODING 21139
SWIDTH 720 0
DWIDTH 16 0
BBX 15 22 0 -3
BITMAP
0402
3F82
2082
3F92
2092
3F92
2092
3F92
0012
7F92
4492
7F92
4492
7F92
0012
FFF2
1102
1102
2102
2102
4102
4102
ENDCHAR
STARTCHAR 529B
ENCODING 21147
SWIDTH 765 0
DWIDTH 17 0
BBX 13 21 2 -2
BITMAP
0400
0400
0400
0400
7FF8
0408
0408
0408
0408
0408
0408
0808
0808
0808
0808
1008
1008
2008
4008
4008
8008
ENDCHAR
STARTCHAR 529D
ENCODING 21149
SWIDTH 720 0
DWIDTH 16 0
BBX 15 21 0 -2
BITMAP
0020
0020
7E20
0220
0220
46FE
4422
2422
1422
1422
0822
0822
0C42
1442
1642
2242
2282
4082
4082
8102
0202
ENDCHAR
STARTCHAR 529E
ENCODING 21150
SWIDTH 765 0
DWIDTH 17 0
BBX 14 21 2 -2
BITMAP
0400
0400
0400
7FE0
0420
0420
0420
0420
2428
2428
4824
4824
0820
0820
1020
1020
2020
2020
4020
8020
0020
ENDCHAR
STARTCHAR 529F
ENCODING 21151
SWIDTH 765 0
DWIDTH 17 0
BBX 15 21 0 -2
BITMAP
0040
0040
0040
7E40
09FE
0842
0842
0842
0842
0842
0842
0842
0842
0982
0E82
1882
E082
0102
0102
0202
0202
ENDCHAR
STARTCHAR 52A0
ENCODING 21152
SWIDTH 720 0
DWIDTH 16 0
BBX 15 22 0 -2
BITMAP
1000
1000
1000
103E
7F22
1122
1122
1122
1122
1122
1122
1122
1122
1122
1122
1122
2122
2122
2122
4122
413E
8000
ENDCHAR
STARTCHAR 52A1
ENCODING 21153
SWIDTH 810 0
DWIDTH 18 0
BBX 15 22 2 -2
BITMAP
0400
0C00
0FE0
1840
2840
4480
8380
0280
0C70
341E
C406
0400
3FE0
0420
0420
0420
0420
0820
0820
1020
2020
4020
ENDCHAR
STARTCHAR 52A2
ENCODING 21154
SWIDTH 720 0
DWIDTH 16 0
BBX 14 21 1 -2
BITMAP
0020
FF20
2020
2020
2020
20FC
3E24
2224
2224
2224
2224
2224
2244
2244
4244
4244
4244
4284
8284
8304
8304
ENDCHAR
STARTCHAR 52A3
ENCODING 21155
SWIDTH 765 0
DWIDTH 17 0
BBX 13 22 2 -2
BITMAP
0200
0200
1A40
1230
2208
4228
8260
0080
0300
0C00
3000
C400
7FF0
0410
0410
0810
0810
0810
1010
2010
4010
8000
ENDCHAR
STARTCHAR 52A8
ENCODING 21160
SWIDTH 720 0
DWIDTH 16 0
BBX 14 22 1 -4
BITMAP
0040
7E40
0040
0040
0040
01FC
0044
0044
0044
FE44
1044
1044
2044
2084
2884
4484
4484
4484
BB04
C304
0104
0004
ENDCHAR
STARTCHAR 52A9
ENCODING 21161
SWIDTH 720 0
DWIDTH 16 0
BBX 15 21 0 -2
BITMAP
0020
0020
3E20
2220
2220
22FE
2222
3E22
2222
2222
2222
2222
2222
3E22
2242
2242
2242
2342
2682
3882
E082
ENDCHAR
STARTCHAR 52AA
ENCODING 21162
SWIDTH 810 0
DWIDTH 18 0
BBX 16 20 1 0
BITMAP
1000
FEFC
2248
2248
4430
3C10
0C30
124C
2187
4102
8200
3FF8
0208
0208
0608
0408
0C08
0808
1008
2000
ENDCHAR
STARTCHAR 52AB
ENCODING 21163
SWIDTH 720 0
DWIDTH 16 0
BBX 15 21 0 -3
BITMAP
0820
0820
0820
0820
7FFE
0822
0822
0822
0822
FFA2
0822
1022
1022
1042
1042
2242
2242
4342
7D82
0182
0002
ENDCHAR
STARTCHAR 52AC
ENCODING 21164
SWIDTH 720 0
DWIDTH 16 0
BBX 15 21 0 -1
BITMAP
2020
6020
4020
7F20
4120
817E
8122
8122
7922
4922
4922
4922
4922
4942
4942
7942
0142
0142
0182
0182
0182
ENDCHAR
STARTCHAR 52AD
ENCODING 21165
SWIDTH 720 0
DWIDTH 16 0
BBX 15 22 0 -1
BITMAP
0020
0020
7F20
1120
1120
117E
2122
2122
2122
4122
4022
8022
7E22
4242
4242
4242
4242
4242
4282
4282
7E82
0002
ENDCHAR
STARTCHAR 52B1
ENCODING 21169
SWIDTH 765 0
DWIDTH 17 0
BBX 15 21 1 -2
BITMAP
0010
7F90
4010
4010
7F90
487E
4812
4812
4812
4F12
4912
4912
4912
5122
5122
9122
9122
A142
A142
C142
4102
ENDCHAR
STARTCHAR 52B2
ENCODING 21170
SWIDTH 765 0
DWIDTH 17 0
BBX 15 21 1 -2
BITMAP
0020
0020
7E20
0620
0420
08FE
1622
1322
21A2
40A2
8022
7F22
0822
0842
0842
0842
0842
0842
0F82
3882
C082
ENDCHAR
STARTCHAR 52B3
ENCODING 21171
SWIDTH 720 0
DWIDTH 16 0
BBX 14 21 1 -2
BITMAP
0840
0840
FFFC
0840
0840
0840
7FF8
4008
4408
0400
0400
1FF0
0410
0410
0810
0810
0810
1010
2010
4010
0010
ENDCHAR
STARTCHAR 52BE
ENCODING 21182
SWIDTH 765 0
DWIDTH 17 0
BBX 15 21 1 -3
BITMAP
0820
0820
0820
FFA0
1020
107E
2222
2622
4422
7C22
0922
1922
1322
2242
4642
8442
0C42
1242
2182
4182
0082
ENDCHAR
STARTCHAR 52BF
ENCODING 21183
SWIDTH 765 0
DWIDTH 17 0
BBX 15 21 1 -2
BITMAP
1080
1080
FDF8
1088
1088
1588
1888
F168
1128
120C
1406
0400
0400
7FF0
0410
0810
0810
0810
1010
2010
4010
ENDCHAR
STARTCHAR 52C3
ENCODING 21187
SWIDTH 765 0
DWIDTH 17 0
BBX 16 21 0 -1
BITMAP
0810
0810
7F10
0810
083F
7F91
4091
4091
3E11
0611
0411
0891
0F21
3821
E821
0821
0821
0841
0841
0881
0881
ENDCHAR
STARTCHAR 52C7
ENCODING 21191
SWIDTH 765 0
DWIDTH 17 0
BBX 12 21 2 -2
BITMAP
7FE0
00C0
0500
0200
7FF0
4210
4210
7FF0
4210
7FF0
4210
4010
0400
0400
FFF0
0410
0C10
0810
1010
2010
C010
ENDCHAR
STARTCHAR 52C9
ENCODING 21193
SWIDTH 765 0
DWIDTH 17 0
BBX 16 21 0 0
BITMAP
1020
1020
1F20
2320
227E
4422
7FA2
24A2
24A2
24A2
24A2
3FA2
0A42
0A42
0A42
1242
1282
2282
2200
4202
83FF
ENDCHAR
STARTCHAR 52CB
ENCODING 21195
SWIDTH 720 0
DWIDTH 16 0
BBX 14 21 1 -3
BITMAP
0040
7C40
4440
4440
4440
7CFC
0044
FE44
8244
8244
9244
9244
9244
9284
9284
2084
2884
2484
4504
8304
0104
ENDCHAR
STARTCHAR 52D0
ENCODING 21200
SWIDTH 765 0
DWIDTH 17 0
BBX 15 21 1 -3
BITMAP
0020
7E20
0220
0420
0820
FF7E
0822
0822
0822
0822
0822
7F22
5522
5542
5542
5542
55C2
5682
7882
E082
0002
ENDCHAR
STARTCHAR 52D2
ENCODING 21202
SWIDTH 765 0
DWIDTH 17 0
BBX 15 21 1 -2
BITMAP
2220
2220
FFA0
2220
227E
3E22
0822
0822
7F22
4922
4922
4922
7F22
0842
0842
FFC2
0842
0842
0882
0882
0802
ENDCHAR
STARTCHAR 52D6
ENCODING 21206
SWIDTH 765 0
DWIDTH 17 0
BBX 15 21 1 -2
BITMAP
0020
FF20
8120
BF20
8120
817E
BF22
8122
0022
7E22
4222
4222
4222
7E42
4242
4242
7E42
4242
4282
4282
7E02
ENDCHAR
STARTCHAR 52D8
ENCODING 21208
SWIDTH 720 0
DWIDTH 16 0
BBX 15 21 0 -1
BITMAP
2210
2210
2210
7F90
2210
227E
2212
3E12
2212
2212
3E12
2212
2212
FFA2
2022
2222
2A22
2922
3142
2042
3F82
ENDCHAR
STARTCHAR 52DF
ENCODING 21215
SWIDTH 810 0
DWIDTH 18 0
BBX 15 22 2 -2
BITMAP
0840
0840
FFFC
0840
0000
1FE0
1020
1FE0
1020
1FE0
0400
FFFC
0840
1420
2418
4FEE
8426
0820
0820
1020
1020
6000
ENDCHAR
STARTCHAR 52E4
ENCODING 21220
SWIDTH 765 0
DWIDTH 17 0
BBX 15 20 1 -1
BITMAP
2220
FFA0
2220
2220
3E7E
0822
0822
7F22
4922
4922
7F22
0822
7FA2
0842
0842
7F42
0842
0982
1E82
F082
ENDCHAR
STARTCHAR 52F0
ENCODING 21232
SWIDTH 720 0
DWIDTH 16 0
BBX 16 21 0 -3
BITMAP
1000
10FE
7E92
1292
1292
22FE
2292
4292
0292
44FE
4400
FF00
5530
55BA
55AA
55A3
55A3
5520
9920
9924
913C
ENDCHAR
STARTCHAR 52F9
ENCODING 21241
SWIDTH 765 0
DWIDTH 17 0
BBX 13 21 1 -2
BITMAP
1000
1000
1000
3FF8
2008
2008
4008
8008
8008
0008
0008
0008
0008
0008
0008
0008
0008
0008
0008
0008
0008
ENDCHAR
STARTCHAR 52FA
ENCODING 21242
SWIDTH 765 0
DWIDTH 17 0
BBX 13 21 1 -2
BITMAP
1000
1000
1000
1FF8
2008
2008
4008
4008
8008
1008
0808
0408
0208
0108
0008
0008
0008
0008
0008
0008
0008
ENDCHAR
STARTCHAR 52FE
ENCODING 21246
SWIDTH 765 0
DWIDTH 17 0
BBX 13 21 1 -2
BITMAP
1000
1000
1000
1FF8
2008
2008
4408
4408
8C08
0808
0808
1108
1108
2088
2088
3F48
0048
0008
0008
0008
0008
ENDCHAR
STARTCHAR 52FF
ENCODING 21247
SWIDTH 765 0
DWIDTH 17 0
BBX 13 22 1 -1
BITMAP
1000
1000
1000
1FF8
2488
2488
4488
4488
8888
0888
0908
1108
1108
1108
2108
4208
4208
0408
0408
0808
1008
1000
ENDCHAR
STARTCHAR 5300
ENCODING 21248
SWIDTH 765 0
DWIDTH 17 0
BBX 13 21 1 -2
BITMAP
1000
1000
1000
1FF8
2008
2008
4008
4408
8208
0208
0108
0008
0008
0088
0308
0C08
3008
0008
0008
0008
0008
ENDCHAR
STARTCHAR 5305
ENCODING 21253
SWIDTH 810 0
DWIDTH 18 0
BBX 16 22 1 -2
BITMAP
0800
0800
1800
1FF8
1008
1008
2008
2008
5F88
9088
1088
1088
1088
1F88
1008
1008
1000
1000
1000
1000
1002
0FFF
ENDCHAR
STARTCHAR 5306
ENCODING 21254
SWIDTH 810 0
DWIDTH 18 0
BBX 14 22 1 -1
BITMAP
1800
1800
1800
1FFC
1244
2244
2244
4244
9444
0C44
0684
0984
0884
10C4
2164
2104
4304
0204
0404
0404
0804
1000
ENDCHAR
STARTCHAR 5308
ENCODING 21256
SWIDTH 765 0
DWIDTH 17 0
BBX 14 22 1 -3
BITMAP
0800
0800
1000
1FFC
1004
2084
4084
4984
8504
2524
2224
2224
2324
2524
28A4
20A4
2024
2024
3FE4
0004
0004
0004
ENDCHAR
STARTCHAR 530D
ENCODING 21261
SWIDTH 765 0
DWIDTH 17 0
BBX 13 22 2 -2
BITMAP
2000
2000
2000
7FF8
4508
8588
8488
FFC8
0408
0408
7F88
4488
4488
7F88
4488
4488
7F88
4488
4488
4488
4488
0008
ENDCHAR
STARTCHAR 530F
ENCODING 21263
SWIDTH 765 0
DWIDTH 17 0
BBX 16 21 0 -2
BITMAP
0800
0840
0840
FE7E
1042
1C82
2282
237A
7C4A
804A
004A
FE4A
207A
2042
3E42
0242
0240
0240
0240
0242
023F
ENDCHAR
STARTCHAR 5310
ENCODING 21264
SWIDTH 765 0
DWIDTH 17 0
BBX 14 21 1 -1
BITMAP
1000
1000
3FFC
2004
2004
7FE4
8004
8004
1F84
1084
1084
1F84
0004
3FC4
2244
2244
3FC4
2244
2244
3FC4
0004
ENDCHAR
STARTCHAR 5315
ENCODING 21269
SWIDTH 720 0
DWIDTH 16 0
BBX 11 21 4 -2
BITMAP
8000
8000
8000
8000
8040
8080
8100
8200
8400
8800
B000
C000
8000
8000
8000
8000
8000
8000
8000
8040
FFE0
ENDCHAR
STARTCHAR 5316
ENCODING 21270
SWIDTH 765 0
DWIDTH 17 0
BBX 15 22 1 -3
BITMAP
0900
0900
1100
1100
2110
2110
6130
A120
2140
21C0
2180
2100
2300
2500
2100
2100
2100
2100
2104
2104
21FE
2000
ENDCHAR
STARTCHAR 5317
ENCODING 21271
SWIDTH 720 0
DWIDTH 16 0
BBX 15 21 0 -2
BITMAP
0440
0440
0440
0440
0446
0444
7C48
0450
0460
0440
0440
0440
0440
0440
1C40
6440
C440
0440
0442
0442
047E
ENDCHAR
STARTCHAR 5319
ENCODING 21273
SWIDTH 765 0
DWIDTH 17 0
BBX 15 20 1 -1
BITMAP
7E40
4240
4240
4240
7E44
4248
4250
7E50
0060
0040
FF40
0840
4840
4840
4F44
4844
487E
4800
B800
8FFE
ENDCHAR
STARTCHAR 531A
ENCODING 21274
SWIDTH 720 0
DWIDTH 16 0
BBX 13 19 2 -1
BITMAP
FFF8
8000
8000
8000
8000
8000
8000
8000
8000
8000
8000
8000
8000
8000
8000
8000
8000
8000
FFF8
ENDCHAR
STARTCHAR 531D
ENCODING 21277
SWIDTH 765 0
DWIDTH 17 0
BBX 14 20 2 -2
BITMAP
FFF8
8000
8100
8100
8100
9FF0
9110
9110
9110
9110
9110
9110
9110
9110
8100
8100
8100
8100
8000
FFFC
ENDCHAR
STARTCHAR 5320
ENCODING 21280
SWIDTH 765 0
DWIDTH 17 0
BBX 14 20 2 -2
BITMAP
FFF8
8020
80E0
8780
8800
8800
8800
8FF8
8880
8880
8880
8880
9080
9080
A080
A080
C080
8000
8000
FFFC
ENDCHAR
STARTCHAR 5321
ENCODING 21281
SWIDTH 765 0
DWIDTH 17 0
BBX 14 20 2 -2
BITMAP
FFF8
8000
8000
8000
9FF0
8100
8100
8100
8100
9FE0
8100
8100
8100
8100
8100
BFF8
8000
8000
8000
FFFC
ENDCHAR
STARTCHAR 5323
ENCODING 21283
SWIDTH 765 0
DWIDTH 17 0
BBX 14 20 2 -2
BITMAP
FFF8
8000
8000
9FF0
9110
9110
9110
9FF0
9110
9110
9110
9FF0
8100
8100
8100
8100
8100
8100
8000
FFFC
ENDCHAR
STARTCHAR 5326
ENCODING 21286
SWIDTH 765 0
DWIDTH 17 0
BBX 14 20 2 -3
BITMAP
FFF8
8800
8840
8840
BF40
8840
95F0
9450
9E50
8450
8450
8550
8E90
BC90
8490
8514
861C
8600
8000
FFFC
ENDCHAR
STARTCHAR 532A
ENCODING 21290
SWIDTH 765 0
DWIDTH 17 0
BBX 14 20 2 -2
BITMAP
FFF0
8480
8480
8480
8480
BCF0
8480
8480
8480
BCF0
8480
8480
8480
BCF0
8480
8480
8480
8480
8000
FFFC
ENDCHAR
STARTCHAR 532E
ENCODING 21294
SWIDTH 765 0
DWIDTH 17 0
BBX 14 20 2 -3
BITMAP
FFF8
8000
8100
8FE0
8920
8920
8FE0
8100
FFF8
8000
8FE0
8920
8920
8920
8920
8280
8260
8C30
9010
FFFC
ENDCHAR
STARTCHAR 5339
ENCODING 21305
SWIDTH 720 0
DWIDTH 16 0
BBX 14 19 2 -1
BITMAP
FFF8
8480
8480
8480
8480
8480
8480
8480
8880
8880
8880
9080
9090
A0F8
8000
8000
8000
8000
FFFC
ENDCHAR
STARTCHAR 533A
ENCODING 21306
SWIDTH 765 0
DWIDTH 17 0
BBX 12 19 3 -2
BITMAP
FFE0
8000
8040
8040
9080
8880
8480
8300
8300
8300
8300
8480
8480
8840
9040
A020
8000
8000
FFF0
ENDCHAR
STARTCHAR 533B
ENCODING 21307
SWIDTH 720 0
DWIDTH 16 0
BBX 13 20 2 -1
BITMAP
FFF0
8000
8800
8800
9000
9FE0
9100
A100
8100
8100
BFF0
8200
8300
8480
8440
8820
9010
A000
8000
FFF8
ENDCHAR
STARTCHAR 533E
ENCODING 21310
SWIDTH 765 0
DWIDTH 17 0
BBX 14 20 2 -2
BITMAP
FFF8
8000
8100
9FF0
9010
9010
9FF0
9000
9000
9FF8
9948
9948
9FF8
A948
A948
A948
A948
8948
8000
FFFC
ENDCHAR
STARTCHAR 533F
ENCODING 21311
SWIDTH 765 0
DWIDTH 17 0
BBX 14 20 2 -2
BITMAP
FFFC
8440
8440
BFF8
8440
8440
8100
8200
BFFC
8600
8400
8FE0
9420
A420
C420
8420
87E0
8000
8000
FFFC
ENDCHAR
STARTCHAR 5341
ENCODING 21313
SWIDTH 765 0
DWIDTH 17 0
BBX 15 22 1 -2
BITMAP
0100
0100
0100
0100
0100
0100
0100
0100
0100
FFFE
0100
0100
0100
0100
0100
0100
0100
0100
0100
0100
0100
0100
ENDCHAR
STARTCHAR 5343
ENCODING 21315
SWIDTH 765 0
DWIDTH 17 0
BBX 15 20 1 -2
BITMAP
00F0
7F00
0100
0100
0100
0100
0100
0100
FFFE
0100
0100
0100
0100
0100
0100
0100
0100
0100
0100
0100
ENDCHAR
STARTCHAR 5345
ENCODING 21317
SWIDTH 765 0
DWIDTH 17 0
BBX 15 21 1 -2
BITMAP
1010
1110
1110
1110
1110
1110
1110
1110
FFFE
1110
1110
1110
1110
1110
2110
2110
2110
4110
4110
8110
8010
ENDCHAR
STARTCHAR 5347
ENCODING 21319
SWIDTH 765 0
DWIDTH 17 0
BBX 15 21 1 -2
BITMAP
0120
0620
3820
0820
0820
0820
0820
0820
FFFE
0820
0820
0820
0820
0820
1020
1020
1020
2020
2020
4020
8020
ENDCHAR
STARTCHAR 5348
ENCODING 21320
SWIDTH 765 0
DWIDTH 17 0
BBX 15 21 1 -1
BITMAP
0800
0800
0800
1FF8
1100
2100
2100
4100
4100
0100
FFFE
0100
0100
0100
0100
0100
0100
0100
0100
0100
0100
ENDCHAR
STARTCHAR 5349
ENCODING 21321
SWIDTH 765 0
DWIDTH 17 0
BBX 15 21 1 -2
BITMAP
0100
0100
0100
7FFC
0100
0100
0920
0920
0920
0820
FFFE
1820
1820
1820
1020
1020
3020
2020
2020
4020
8020
ENDCHAR
STARTCHAR 534A
ENCODING 21322
SWIDTH 765 0
DWIDTH 17 0
BBX 15 22 1 -2
BITMAP
0100
0110
2110
1130
1920
0940
0140
7FF8
0100
0100
0100
0100
0100
FFFE
0100
0100
0100
0100
0100
0100
0100
0100
ENDCHAR
STARTCHAR 534D
ENCODING 21325
SWIDTH 765 0
DWIDTH 17 0
BBX 14 20 1 -3
BITMAP
FF08
0108
0108
0108
0108
0108
0108
0108
0108
7FF8
4100
4100
4100
4100
4100
4100
4100
4100
41FC
4000
ENDCHAR
STARTCHAR 534E
ENCODING 21326
SWIDTH 765 0
DWIDTH 17 0
BBX 15 22 1 -2
BITMAP
0080
0880
0898
10B0
30E0
50C0
9180
1280
1080
1084
10FE
0100
0100
0100
FFFE
0100
0100
0100
0100
0100
0100
0100
ENDCHAR
STARTCHAR 534F
ENCODING 21327
SWIDTH 720 0
DWIDTH 16 0
BBX 15 21 0 -2
BITMAP
1080
1080
1080
1080
13F8
1088
FC88
1088
108C
128C
128A
168A
1508
1108
1108
1108
1208
1208
1408
1408
1008
ENDCHAR
STARTCHAR 5351
ENCODING 21329
SWIDTH 765 0
DWIDTH 17 0
BBX 15 21 1 0
BITMAP
0100
0200
3FF8
2108
2108
2108
3FF8
2108
2108
3FF8
0600
0480
0880
3080
FFFE
0080
0080
0080
0080
0080
0080
ENDCHAR
STARTCHAR 5352
ENCODING 21330
SWIDTH 765 0
DWIDTH 17 0
BBX 15 21 1 -1
BITMAP
0100
0100
FFFC
0820
0820
0820
1060
1860
1490
2688
4108
0100
0100
FFFE
0100
0100
0100
0100
0100
0100
0100
ENDCHAR
STARTCHAR 5353
ENCODING 21331
SWIDTH 765 0
DWIDTH 17 0
BBX 15 21 1 -2
BITMAP
0100
0100
01FC
0100
0100
1FF0
1010
1010
1FF0
1010
1010
1FF0
0100
0100
FFFE
0100
0100
0100
0100
0100
0100
ENDCHAR
STARTCHAR 5355
ENCODING 21333
SWIDTH 765 0
DWIDTH 17 0
BBX 15 21 1 -2
BITMAP
0820
0440
0480
3FF8
2108
2108
2108
3FF8
2108
2108
2108
3FF8
0100
0100
FFFE
0100
0100
0100
0100
0100
0100
ENDCHAR
STARTCHAR 5356
ENCODING 21334
SWIDTH 765 0
DWIDTH 17 0
BBX 15 21 1 -1
BITMAP
0100
3FF8
0100
0100
0100
3FFC
0004
1084
0884
2484
1080
0880
0080
FFFE
0100
0100
03C0
0230
0418
080C
3004
ENDCHAR
STARTCHAR 5357
ENCODING 21335
SWIDTH 765 0
DWIDTH 17 0
BBX 15 21 1 -2
BITMAP
0100
0100
0100
FFFE
0100
0100
3FF8
2008
2448
2248
2288
2FE8
2108
2108
2108
3FE8
2108
2108
2108
2108
2108
ENDCHAR
STARTCHAR 535A
ENCODING 21338
SWIDTH 765 0
DWIDTH 17 0
BBX 16 22 0 -2
BITMAP
2020
2028
2024
27FF
2020
23FC
2224
FA24
23FC
2224
2224
23FC
2224
2008
2008
2FFF
2008
2108
2088
2088
2008
2008
ENDCHAR
STARTCHAR 535C
ENCODING 21340
SWIDTH 765 0
DWIDTH 17 0
BBX 8 22 7 -2
BITMAP
80
80
80
80
80
80
80
A0
90
88
84
82
81
80
80
80
80
80
80
80
80
80
ENDCHAR
STARTCHAR 535E
ENCODING 21342
SWIDTH 765 0
DWIDTH 17 0
BBX 15 20 1 0
BITMAP
0200
0300
0000
FFFE
0200
0200
0200
0200
0200
0240
0220
0210
0218
0208
0200
0200
0200
0200
0200
0200
ENDCHAR
STARTCHAR 535F
ENCODING 21343
SWIDTH 720 0
DWIDTH 16 0
BBX 14 22 1 -2
BITMAP
0080
0080
0080
F880
8880
8880
8880
88C0
88A0
8890
8888
8884
8880
8880
8880
8880
8880
F880
0080
0080
0080
0080
ENDCHAR
STARTCHAR 5360
ENCODING 21344
SWIDTH 765 0
DWIDTH 17 0
BBX 13 21 3 -1
BITMAP
0400
0400
0400
0400
07F8
0400
0400
0400
0400
0400
FFE0
8020
8020
8020
8020
8020
8020
8020
8020
8020
FFE0
ENDCHAR
STARTCHAR 5361
ENCODING 21345
SWIDTH 765 0
DWIDTH 17 0
BBX 15 22 1 -1
BITMAP
0100
0100
0100
0100
01FC
0100
0100
0100
FFFE
0000
0100
0100
0100
0140
0130
0108
0104
0100
0100
0100
0100
0100
ENDCHAR
STARTCHAR 5362
ENCODING 21346
SWIDTH 720 0
DWIDTH 16 0
BBX 16 20 0 -1
BITMAP
0080
0080
00FF
0080
0080
1FFC
1004
1004
1004
1004
1FFC
1000
1000
1000
1000
2000
2000
2000
4000
8000
ENDCHAR
STARTCHAR 5363
ENCODING 21347
SWIDTH 720 0
DWIDTH 16 0
BBX 13 20 2 -1
BITMAP
0400
0400
07F8
0400
0400
0400
FFF0
8010
8010
8010
FF10
8110
8110
8110
FF10
8010
8010
8010
8010
FFF0
ENDCHAR
STARTCHAR 5364
ENCODING 21348
SWIDTH 765 0
DWIDTH 17 0
BBX 13 21 3 -2
BITMAP
0400
0400
0400
07F8
0400
0400
0400
FFF0
8010
8090
8190
9110
8A10
8610
8610
8910
9190
A090
8010
8010
FFF0
ENDCHAR
STARTCHAR 5366
ENCODING 21350
SWIDTH 765 0
DWIDTH 17 0
BBX 16 22 1 -2
BITMAP
0810
0810
0810
0810
7F10
0810
0810
0810
FF9C
0016
0812
0811
0810
7F10
0810
0810
0850
0990
0E10
7810
C010
0010
ENDCHAR
STARTCHAR 5367
ENCODING 21351
SWIDTH 720 0
DWIDTH 16 0
BBX 14 22 2 -2
BITMAP
0040
0040
FF40
8840
8840
8840
8840
8840
FE60
8250
8248
8248
8244
FE40
8840
8840
8840
8840
8840
8840
FF40
0040
ENDCHAR
STARTCHAR 5369
ENCODING 21353
SWIDTH 765 0
DWIDTH 17 0
BBX 6 19 9 -2
BITMAP
FC
84
84
84
84
84
84
84
84
84
84
84
84
84
84
80
80
80
80
ENDCHAR
STARTCHAR 536B
ENCODING 21355
SWIDTH 765 0
DWIDTH 17 0
BBX 15 19 1 -1
BITMAP
3FF8
0208
0208
0208
0208
0208
0208
0208
0208
0208
0208
0200
0200
0200
0200
0200
0200
0200
FFFE
ENDCHAR
STARTCHAR 536E
ENCODING 21358
SWIDTH 810 0
DWIDTH 18 0
BBX 16 20 1 -1
BITMAP
0078
1FC0
1000
1000
1000
1FFE
1000
1000
13F8
1208
1208
1208
2208
2208
2208
2200
4200
4202
4202
81FF
ENDCHAR
STARTCHAR 536F
ENCODING 21359
SWIDTH 720 0
DWIDTH 16 0
BBX 12 21 2 -1
BITMAP
0C00
1800
E1F0
8910
8910
8910
8910
8910
8910
8910
8910
8910
8910
9910
F110
D110
1100
2100
2100
4100
8100
ENDCHAR
STARTCHAR 5370
ENCODING 21360
SWIDTH 765 0
DWIDTH 17 0
BBX 13 21 2 -1
BITMAP
0400
1800
71F8
8108
8108
8108
8108
8108
F908
8108
8108
8108
8108
8108
8108
9908
E108
8100
0100
0100
0100
ENDCHAR
STARTCHAR 5371
ENCODING 21361
SWIDTH 810 0
DWIDTH 18 0
BBX 16 21 1 -1
BITMAP
0400
0C00
0FE0
0820
1040
2080
5FFE
1000
1000
13F0
1210
1210
1210
1210
2210
2210
2200
4200
4202
8202
81FF
ENDCHAR
STARTCHAR 5373
ENCODING 21363
SWIDTH 720 0
DWIDTH 16 0
BBX 13 20 2 -3
BITMAP
FCF8
8488
8488
8488
8488
FC88
8488
8488
8488
FC88
8088
8088
8088
9088
8888
8880
9480
E280
8080
0080
ENDCHAR
STARTCHAR 5374
ENCODING 21364
SWIDTH 720 0
DWIDTH 16 0
BBX 15 20 0 -2
BITMAP
0800
087E
0842
7F42
0842
0842
0842
0842
0842
FFC2
1042
1042
1042
1042
2042
2242
4240
4740
F940
4140
ENDCHAR
STARTCHAR 5375
ENCODING 21365
SWIDTH 720 0
DWIDTH 16 0
BBX 12 21 3 -1
BITMAP
0600
3800
C1F0
8910
8910
8910
C910
C950
A950
A910
8910
8910
8910
B910
D110
1110
1100
2100
2100
4100
8100
ENDCHAR
STARTCHAR 5377
ENCODING 21367
SWIDTH 810 0
DWIDTH 18 0
BBX 15 21 2 -1
BITMAP
0100
2120
1320
1A40
7FF8
0600
0400
0400
FFFC
0840
1020
2030
4FD8
884E
0846
0840
0840
0840
0800
0810
07F8
ENDCHAR
STARTCHAR 5378
ENCODING 21368
SWIDTH 765 0
DWIDTH 17 0
BBX 15 20 1 -2
BITMAP
2000
207E
4042
7F42
4842
8842
0842
FFC2
0842
0842
4842
4F42
4842
4842
4842
48C0
4B40
5C40
F040
C040
ENDCHAR
STARTCHAR 537A
ENCODING 21370
SWIDTH 765 0
DWIDTH 17 0
BBX 14 20 2 -3
BITMAP
7FC0
00C0
0190
FAB0
12A0
3240
2220
6210
C218
0004
7FF0
0000
3FC0
2040
2040
2040
2040
2000
2010
3FF8
ENDCHAR
STARTCHAR 537F
ENCODING 21375
SWIDTH 765 0
DWIDTH 17 0
BBX 15 21 1 -2
BITMAP
1800
E7DE
8452
9452
9452
9452
97D2
9452
9452
9452
9452
97D2
9412
9492
F492
2490
2450
24D0
4750
8610
8010
ENDCHAR
STARTCHAR 5382
ENCODING 21378
SWIDTH 765 0
DWIDTH 17 0
BBX 15 20 1 -3
BITMAP
1FFE
1000
1000
1000
1000
1000
1000
1000
1000
1000
1000
1000
2000
2000
2000
2000
4000
4000
4000
8000
ENDCHAR
STARTCHAR 5384
ENCODING 21380
SWIDTH 765 0
DWIDTH 17 0
BBX 16 20 1 -2
BITMAP
3FFE
2000
2000
23F0
2210
2210
2210
2210
2210
2210
2210
2210
4210
4200
4200
4200
4200
8202
8202
03FF
ENDCHAR
STARTCHAR 5385
ENCODING 21381
SWIDTH 765 0
DWIDTH 17 0
BBX 15 20 1 -2
BITMAP
3FFC
2000
2000
2000
2FFE
2040
2040
2040
2040
2040
2040
2040
4040
4040
4040
4040
8040
8040
8040
00C0
ENDCHAR
STARTCHAR 5386
ENCODING 21382
SWIDTH 765 0
DWIDTH 17 0
BBX 15 20 1 -2
BITMAP
3FFE
2000
2100
2100
2100
2100
2FFC
2104
2104
2104
2104
2104
4204
4204
4204
4404
4404
8804
9004
2004
ENDCHAR
STARTCHAR 5389
ENCODING 21385
SWIDTH 765 0
DWIDTH 17 0
BBX 15 20 1 -2
BITMAP
3FFE
2000
2000
2FFE
2100
2100
2100
2100
21F8
2108
2108
2108
2208
4208
4208
4408
4408
8808
9008
0008
ENDCHAR
STARTCHAR 538B
ENCODING 21387
SWIDTH 720 0
DWIDTH 16 0
BBX 14 19 1 -2
BITMAP
3FF8
2000
2080
2080
2080
2080
2080
2080
2FF8
2080
2080
2080
40A0
4090
4098
4088
4080
8080
BFFC
ENDCHAR
STARTCHAR 538C
ENCODING 21388
SWIDTH 765 0
DWIDTH 17 0
BBX 15 21 1 -2
BITMAP
3FFE
2000
2080
20A0
2090
2088
2080
2080
2FFE
20C0
20C0
2140
2140
4120
4120
4210
4210
4418
880C
8804
0004
ENDCHAR
STARTCHAR 538D
ENCODING 21389
SWIDTH 765 0
DWIDTH 17 0
BBX 16 21 0 -3
BITMAP
1FFF
1000
1040
10C0
1080
17FE
1180
1120
1120
1320
13FC
1020
1020
2020
2FFF
2020
2020
2020
4020
4020
8020
ENDCHAR
STARTCHAR 5395
ENCODING 21397
SWIDTH 765 0
DWIDTH 17 0
BBX 15 20 1 -2
BITMAP
3FFE
2002
2002
2FC2
2852
2952
2952
2952
2952
2952
2952
2952
2A52
4A52
4212
4282
4442
8442
8822
1002
ENDCHAR
STARTCHAR 5398
ENCODING 21400
SWIDTH 810 0
DWIDTH 18 0
BBX 16 20 1 -2
BITMAP
3FFE
2000
2000
27F8
2448
2448
2448
27F8
2448
2448
2448
27F8
2040
4040
4040
4FFC
4040
4040
8040
9FFF
ENDCHAR
STARTCHAR 539A
ENCODING 21402
SWIDTH 720 0
DWIDTH 16 0
BBX 15 20 1 -3
BITMAP
3FFE
2000
27F8
2408
2408
27F8
2408
2408
27F8
2000
27F8
2010
2020
4040
5FFE
4040
4040
8040
8040
8040
ENDCHAR
STARTCHAR 539D
ENCODING 21405
SWIDTH 765 0
DWIDTH 17 0
BBX 15 20 1 -2
BITMAP
3FFE
2110
2110
2110
2FFC
2110
2110
2110
3FFE
2000
2000
23F8
2208
4208
4208
43F8
4208
8208
8208
83F8
ENDCHAR
STARTCHAR 539F
ENCODING 21407
SWIDTH 720 0
DWIDTH 16 0
BBX 14 20 1 -3
BITMAP
3FFC
2000
2080
2100
27F8
2408
2408
27F8
2408
2408
2408
27F8
2080
4290
4688
4488
4C84
8884
9080
A080
ENDCHAR
STARTCHAR 53A2
ENCODING 21410
SWIDTH 765 0
DWIDTH 17 0
BBX 16 20 0 -3
BITMAP
1FFF
1100
113E
1122
1122
1FE2
1722
1522
15BE
15A2
1562
1522
2922
293E
2922
2122
2122
4122
413E
8100
ENDCHAR
STARTCHAR 53A3
ENCODING 21411
SWIDTH 765 0
DWIDTH 17 0
BBX 16 20 0 -2
BITMAP
1FFF
1000
1024
1060
17FE
1090
1108
1204
17FF
1A25
1224
13FC
1224
2224
23FC
2020
2020
4020
4020
8020
ENDCHAR
STARTCHAR 53A5
ENCODING 21413
SWIDTH 765 0
DWIDTH 17 0
BBX 16 21 0 -2
BITMAP
3FFE
2000
2890
2490
2510
2FDE
2232
2AAC
2ACC
2A88
2A88
2A88
2F98
2218
2218
4414
4424
4462
4842
8881
8100
ENDCHAR
STARTCHAR 53A6
ENCODING 21414
SWIDTH 765 0
DWIDTH 17 0
BBX 16 21 0 -3
BITMAP
1FFF
1000
1FFE
1040
1040
13FC
1204
13FC
1204
13FC
1204
13FC
1100
21FC
2308
2498
28F0
2860
409C
4307
8C01
ENDCHAR
STARTCHAR 53A8
ENCODING 21416
SWIDTH 765 0
DWIDTH 17 0
BBX 15 20 1 -2
BITMAP
3FFE
2008
2008
2FC8
2008
2008
2FFE
2888
2888
28C8
2FA8
2028
40B8
4988
4508
4108
4048
8388
BC08
0008
ENDCHAR
STARTCHAR 53A9
ENCODING 21417
SWIDTH 765 0
DWIDTH 17 0
BBX 16 20 0 -2
BITMAP
3FFE
2000
2FFE
2880
2888
2888
2FA8
28A8
28A8
28A8
2FBE
2808
280C
280C
2914
4914
4894
49A4
8E25
8047
ENDCHAR
STARTCHAR 53AE
ENCODING 21422
SWIDTH 765 0
DWIDTH 17 0
BBX 16 20 0 -3
BITMAP
3FFF
2000
2883
289C
2FD0
2890
2890
2F90
289F
2894
2F94
2894
2894
3FD4
2024
4D24
4924
48C4
90C4
8004
ENDCHAR
STARTCHAR 53B6
ENCODING 21430
SWIDTH 720 0
DWIDTH 16 0
BBX 14 21 1 -2
BITMAP
0200
0200
0200
0400
0400
0400
0400
0800
0800
0800
0800
1040
1040
2020
2010
2010
4008
4018
81E8
FE04
0004
ENDCHAR
STARTCHAR 53BB
ENCODING 21435
SWIDTH 765 0
DWIDTH 17 0
BBX 15 21 1 -2
BITMAP
0100
0100
0100
0100
3FF8
0100
0100
0100
0100
0100
FFFE
0200
0200
0400
0440
0C40
0820
0810
1010
20E8
3F08
ENDCHAR
STARTCHAR 53BF
ENCODING 21439
SWIDTH 765 0
DWIDTH 17 0
BBX 15 21 1 -3
BITMAP
1FF0
1010
1010
1010
1FF0
1010
1010
1010
1FF0
1010
1010
1010
FFFE
0600
0400
0820
0810
1010
21E8
3E08
0008
ENDCHAR
STARTCHAR 53C1
ENCODING 21441
SWIDTH 765 0
DWIDTH 17 0
BBX 15 21 2 -2
BITMAP
0200
0440
0820
1030
3FD0
0200
0200
FFFC
0440
0840
1020
2018
4FEC
8002
0000
0000
0FE0
0000
0000
0000
7FFC
ENDCHAR
STARTCHAR 53C2
ENCODING 21442
SWIDTH 720 0
DWIDTH 16 0
BBX 15 22 1 -3
BITMAP
0200
0480
0840
1020
3FD0
0200
0200
FFFC
0C80
1840
1120
22D8
448C
8906
0210
0C20
1040
0180
0300
0400
1800
2000
ENDCHAR
STARTCHAR 53C8
ENCODING 21448
SWIDTH 765 0
DWIDTH 17 0
BBX 16 20 0 -2
BITMAP
7FF8
1010
1010
1010
0830
0820
0460
0440
02C0
0280
0180
0180
0380
0640
0460
0830
1018
200C
4006
8001
ENDCHAR
STARTCHAR 53C9
ENCODING 21449
SWIDTH 810 0
DWIDTH 18 0
BBX 16 20 1 -2
BITMAP
7FF8
1018
1210
0910
0930
08A0
0420
0460
0240
03C0
0180
0180
03C0
0240
0420
0830
1018
200C
4006
8001
ENDCHAR
STARTCHAR 53CA
ENCODING 21450
SWIDTH 765 0
DWIDTH 17 0
BBX 16 20 0 -2
BITMAP
3FF0
0410
0420
0420
0420
0440
047C
0C08
0A08
0A18
0910
09B0
10A0
1040
20E0
21B0
4318
420C
8C06
9001
ENDCHAR
STARTCHAR 53CB
ENCODING 21451
SWIDTH 765 0
DWIDTH 17 0
BBX 16 22 0 -2
BITMAP
0200
0200
0200
0200
7FFE
0200
0400
0400
07F0
0610
0A10
0930
0920
10A0
10C0
1040
20E0
2130
4118
820C
8C07
0002
ENDCHAR
STARTCHAR 53CC
ENCODING 21452
SWIDTH 810 0
DWIDTH 18 0
BBX 16 20 1 -2
BITMAP
7EFC
0244
0244
0244
2244
164C
1448
0C28
0C28
0428
0C10
0C10
0A10
1238
1228
112C
2144
4086
4083
8102
ENDCHAR
STARTCHAR 53CD
ENCODING 21453
SWIDTH 765 0
DWIDTH 17 0
BBX 16 22 0 -1
BITMAP
0018
00F0
1F80
1000
1000
1000
1000
1FF8
1408
1210
1210
1210
1120
10A0
20C0
20C0
20E0
2130
4218
440C
8806
8001
ENDCHAR
STARTCHAR 53D1
ENCODING 21457
SWIDTH 810 0
DWIDTH 18 0
BBX 16 21 1 -1
BITMAP
0240
1220
1210
3208
2200
3FFE
0400
0400
07F0
0C10
0A30
0A20
0920
1140
10C0
20C0
2160
4230
841C
8807
0002
ENDCHAR
STARTCHAR 53D4
ENCODING 21460
SWIDTH 720 0
DWIDTH 16 0
BBX 15 21 0 -1
BITMAP
1000
1000
1000
1EFC
1084
1044
1044
104C
FF48
0828
0828
0830
2C10
6C10
4A30
4B28
8948
8884
0884
0902
0A02
ENDCHAR
STARTCHAR 53D6
ENCODING 21462
SWIDTH 720 0
DWIDTH 16 0
BBX 15 20 0 -2
BITMAP
FF7C
4244
4244
4244
7E24
4224
4224
4228
4228
7E18
4218
4210
4218
4328
7E28
C244
0244
0284
0302
0302
ENDCHAR
STARTCHAR 53D7
ENCODING 21463
SWIDTH 765 0
DWIDTH 17 0
BBX 14 21 2 -1
BITMAP
0070
1F80
6000
0410
2220
1220
0040
FFF8
8008
8008
3FE0
1040
08C0
0880
0500
0300
0700
0D80
1860
2038
C00C
ENDCHAR
STARTCHAR 53D8
ENCODING 21464
SWIDTH 720 0
DWIDTH 16 0
BBX 15 22 0 -1
BITMAP
0100
0100
FFFE
0440
0440
1460
2450
6448
4444
8402
0000
3FE0
0840
0840
0480
0280
0100
06C0
0C60
101C
6006
8000
ENDCHAR
STARTCHAR 53D9
ENCODING 21465
SWIDTH 810 0
DWIDTH 18 0
BBX 16 22 1 -3
BITMAP
0400
0400
0A7E
0B42
1122
10A2
2022
5F22
8424
0414
0414
7F94
0418
0408
1618
351C
24A4
24A6
4442
8443
0481
0001
ENDCHAR
STARTCHAR 53DB
ENCODING 21467
SWIDTH 810 0
DWIDTH 18 0
BBX 16 22 1 -2
BITMAP
1000
1006
1278
5680
5480
5080
1080
7EFC
10C4
10C4
10A4
FEA8
10A8
3098
2110
2110
2118
2128
4224
4246
8482
8403
ENDCHAR
STARTCHAR 53DF
ENCODING 21471
SWIDTH 720 0
DWIDTH 16 0
BBX 15 22 1 -2
BITMAP
0100
0D00
3178
2108
2108
3D78
2108
2108
3FF8
0100
0100
3FF0
1020
0820
0440
0280
0100
02C0
0C30
101C
6006
8000
ENDCHAR
STARTCHAR 53E0
ENCODING 21472
SWIDTH 765 0
DWIDTH 17 0
BBX 15 20 1 -1
BITMAP
1FE0
0640
01C0
0770
3810
7EFC
2408
1830
364C
C284
7FFC
4004
0FE4
0820
0FE0
0820
0820
0FE0
0820
FFFE
ENDCHAR
STARTCHAR 53E3
ENCODING 21475
SWIDTH 765 0
DWIDTH 17 0
BBX 11 18 3 -1
BITMAP
FFE0
8020
8020
8020
8020
8020
8020
8020
8020
8020
8020
8020
8020
8020
8020
8020
8020
FFE0
ENDCHAR
STARTCHAR 53E4
ENCODING 21476
SWIDTH 720 0
DWIDTH 16 0
BBX 14 20 1 0
BITMAP
0100
0100
0100
0100
FFFC
0100
0100
0100
0100
0100
3FF0
2010
2010
2010
2010
2010
2010
2010
2010
3FF0
ENDCHAR
STARTCHAR 53E5
ENCODING 21477
SWIDTH 720 0
DWIDTH 16 0
BBX 13 22 1 -3
BITMAP
1000
1000
3000
3FF8
2008
4008
4008
8008
BF88
2088
2088
2088
2088
2088
2088
3F88
0008
0008
0008
0008
0008
0008
ENDCHAR
STARTCHAR 53E6
ENCODING 21478
SWIDTH 765 0
DWIDTH 17 0
BBX 12 20 2 -2
BITMAP
3FE0
2020
2020
2020
2020
3FE0
0000
0800
0800
7FF0
0810
0810
0810
0810
1010
1010
2010
2010
4010
8010
ENDCHAR
STARTCHAR 53E8
ENCODING 21480
SWIDTH 720 0
DWIDTH 16 0
BBX 14 20 1 -2
BITMAP
03FC
F884
8884
8884
8884
8884
8884
8884
8884
8884
8884
8904
8904
8904
F904
0204
0204
0404
0804
0004
ENDCHAR
STARTCHAR 53E9
ENCODING 21481
SWIDTH 810 0
DWIDTH 18 0
BBX 14 19 2 -2
BITMAP
F9FC
8904
8904
8904
8904
8904
8904
8904
8904
8904
8904
8904
8904
F904
0100
0100
0100
0100
0100
ENDCHAR
STARTCHAR 53EA
ENCODING 21482
SWIDTH 720 0
DWIDTH 16 0
BBX 13 20 1 -2
BITMAP
3FE0
2020
2020
2020
2020
2020
2020
2020
2020
3FE0
0000
0880
0840
1040
1020
1020
2010
4010
4018
8008
ENDCHAR
STARTCHAR 53EB
ENCODING 21483
SWIDTH 765 0
DWIDTH 17 0
BBX 13 22 2 -2
BITMAP
0008
0008
0008
F908
8908
8908
8908
8908
8908
8908
8908
8908
8908
8908
8978
8988
F808
0008
0008
0008
0008
0008
ENDCHAR
STARTCHAR 53EC
ENCODING 21484
SWIDTH 765 0
DWIDTH 17 0
BBX 13 20 1 -2
BITMAP
3FF8
0408
0408
0408
0808
0808
1808
1008
2008
4000
9FF8
1008
1008
1008
1008
1008
1008
1008
1008
1FF8
ENDCHAR
STARTCHAR 53ED
ENCODING 21485
SWIDTH 720 0
DWIDTH 16 0
BBX 15 20 1 0
BITMAP
0140
0140
F920
8920
8920
8920
8920
8920
8910
8910
8A10
8A10
8A10
8A08
8A08
FC08
040C
0404
0806
0802
ENDCHAR
STARTCHAR 53EE
ENCODING 21486
SWIDTH 720 0
DWIDTH 16 0
BBX 15 20 1 -2
BITMAP
03FE
F820
8820
8820
8820
8820
8820
8820
8820
8820
8820
8820
8820
8820
F820
0020
0020
0020
0020
0020
ENDCHAR
STARTCHAR 53EF
ENCODING 21487
SWIDTH 765 0
DWIDTH 17 0
BBX 14 20 2 -3
BITMAP
FFFC
0020
0020
0020
0020
3F20
2120
2120
2120
2120
2120
2120
2120
3F20
0020
0020
0020
0020
0020
0020
ENDCHAR
STARTCHAR 53F0
ENCODING 21488
SWIDTH 720 0
DWIDTH 16 0
BBX 12 21 2 -1
BITMAP
0400
0800
0800
1000
1000
2040
4020
80F0
FF10
0010
0000
0000
7FE0
4020
4020
4020
4020
4020
4020
4020
7FE0
ENDCHAR
STARTCHAR 53F1
ENCODING 21489
SWIDTH 720 0
DWIDTH 16 0
BBX 15 21 1 -2
BITMAP
0080
0080
0080
F880
8888
8888
8890
8890
88A0
88A0
88C0
88C0
8880
8980
8A80
8880
F880
0080
0080
0084
00FE
ENDCHAR
STARTCHAR 53F2
ENCODING 21490
SWIDTH 765 0
DWIDTH 17 0
BBX 15 22 1 -1
BITMAP
0100
0100
0100
3FFC
2104
2104
2104
2104
2104
3FFC
0100
0100
1100
0A00
0600
0200
0500
04C0
0870
101C
2002
C000
ENDCHAR
STARTCHAR 53F3
ENCODING 21491
SWIDTH 765 0
DWIDTH 17 0
BBX 15 21 1 -2
BITMAP
0100
0100
0100
0100
7FFE
0200
0200
0400
0400
0400
0FF8
0C08
1408
2408
4408
4408
8408
0408
0408
0408
07F8
ENDCHAR
STARTCHAR 53F5
ENCODING 21493
SWIDTH 720 0
DWIDTH 16 0
BBX 14 19 2 -1
BITMAP
FFF8
8000
8000
8000
8000
8FE0
8820
8820
8820
8820
8820
8820
8820
8FE0
8000
8000
8000
8000
FFFC
ENDCHAR
STARTCHAR 53F6
ENCODING 21494
SWIDTH 765 0
DWIDTH 17 0
BBX 15 22 1 -2
BITMAP
0020
0020
0020
F820
8820
8820
8820
8820
8BFE
8820
8820
8820
8820
8820
8820
8820
F820
0020
0020
0020
0020
0020
ENDCHAR
STARTCHAR 53F7
ENCODING 21495
SWIDTH 765 0
DWIDTH 17 0
BBX 15 20 1 -3
BITMAP
1FF0
1010
1010
1010
1010
1FF0
0000
0000
FFFE
0800
0800
0800
0FF0
0010
0010
0010
0010
0010
0010
0010
ENDCHAR
STARTCHAR 53F8
ENCODING 21496
SWIDTH 765 0
DWIDTH 17 0
BBX 13 20 1 -3
BITMAP
7FF8
0008
0008
0008
FFC8
0008
0008
0008
3F88
2088
2088
2088
2088
2088
2088
3F88
0008
0008
0008
0008
ENDCHAR
STARTCHAR 53F9
ENCODING 21497
SWIDTH 765 0
DWIDTH 17 0
BBX 15 20 1 -2
BITMAP
07F8
FA08
8A08
8A08
8910
8910
8910
8890
88A0
88A0
8860
8840
8860
88A0
F8B0
0110
0108
020C
0404
0802
ENDCHAR
STARTCHAR 53FB
ENCODING 21499
SWIDTH 720 0
DWIDTH 16 0
BBX 14 21 1 -2
BITMAP
0080
0080
0080
F880
8BFC
8884
8884
8884
8884
8884
8884
8884
8904
8904
8904
8904
FA04
0204
0404
0404
0004
ENDCHAR
STARTCHAR 53FC
ENCODING 21500
SWIDTH 720 0
DWIDTH 16 0
BBX 14 20 1 -3
BITMAP
03FC
F804
8804
8804
8804
8804
8824
8824
8844
8884
8904
8A04
8804
8804
F804
0004
0004
0004
0004
0004
ENDCHAR
STARTCHAR 53FD
ENCODING 21501
SWIDTH 720 0
DWIDTH 16 0
BBX 15 20 1 -2
BITMAP
01F0
F910
8910
8910
8910
8910
8910
8910
8910
8910
8910
8910
8910
8A10
FA10
0210
0410
0410
0814
081E
ENDCHAR
STARTCHAR 5401
ENCODING 21505
SWIDTH 720 0
DWIDTH 16 0
BBX 15 20 1 -3
BITMAP
03FC
F820
8820
8820
8820
8820
8820
8FFE
8820
8820
8820
8820
8820
8820
F820
0020
0020
0020
0020
0060
ENDCHAR
STARTCHAR 5403
ENCODING 21507
SWIDTH 765 0
DWIDTH 17 0
BBX 15 20 1 0
BITMAP
0100
0100
FA00
8BFC
8A00
8C00
8C00
8BF8
8818
8810
8830
8860
8840
88C0
8880
F900
0100
0200
0204
01FE
ENDCHAR
STARTCHAR 5404
ENCODING 21508
SWIDTH 720 0
DWIDTH 16 0
BBX 14 21 1 0
BITMAP
1000
1000
1FE0
2040
30C0
4880
4900
8600
8700
0980
1060
2038
C00C
3FE0
2020
2020
2020
2020
2020
2020
3FE0
ENDCHAR
STARTCHAR 5406
ENCODING 21510
SWIDTH 765 0
DWIDTH 17 0
BBX 15 21 1 -1
BITMAP
0040
0040
F880
8880
8888
8918
8910
8A10
8C30
8FE0
8F20
8860
8840
8850
8890
8888
F904
0204
021C
05E2
0702
ENDCHAR
STARTCHAR 5408
ENCODING 21512
SWIDTH 765 0
DWIDTH 17 0
BBX 15 21 1 -1
BITMAP
0100
0300
0280
0440
0C40
0820
1030
2018
5FEE
8002
0000
0000
1FE0
1020
1020
1020
1020
1020
1020
1020
1FE0
ENDCHAR
STARTCHAR 5409
ENCODING 21513
SWIDTH 765 0
DWIDTH 17 0
BBX 15 21 1 -1
BITMAP
0100
0100
0100
0100
FFFE
0100
0100
0100
7FF8
0000
0000
0000
0000
1FF0
1010
1010
1010
1010
1010
1010
1FF0
ENDCHAR
STARTCHAR 540A
ENCODING 21514
SWIDTH 720 0
DWIDTH 16 0
BBX 12 21 2 -3
BITMAP
7FC0
4040
4040
4040
4040
4040
7FC0
0400
0400
0400
FFF0
8410
8410
8410
8410
8410
8410
8410
8410
0400
0400
ENDCHAR
STARTCHAR 540B
ENCODING 21515
SWIDTH 720 0
DWIDTH 16 0
BBX 15 22 1 -2
BITMAP
0010
0010
0010
F810
8810
8810
8FFE
8810
8810
8A10
8910
8910
8890
8890
8810
8810
F810
0010
0010
0010
0010
0010
ENDCHAR
STARTCHAR 540C
ENCODING 21516
SWIDTH 720 0
DWIDTH 16 0
BBX 12 20 2 -3
BITMAP
FFF0
8010
8010
8010
BFF0
8010
8010
8010
9F90
9090
9090
9090
9090
9090
9F90
8010
8010
8010
8010
8010
ENDCHAR
STARTCHAR 540D
ENCODING 21517
SWIDTH 765 0
DWIDTH 17 0
BBX 13 22 2 -2
BITMAP
0400
0400
0400
0FF8
0810
1030
1020
2840
44C0
8480
0100
0200
0400
0FF8
3808
4808
8808
0808
0808
0808
0808
0FF8
ENDCHAR
STARTCHAR 540E
ENCODING 21518
SWIDTH 765 0
DWIDTH 17 0
BBX 15 20 1 -1
BITMAP
003C
07C0
1800
1000
1000
1000
1FFE
1000
1000
1000
13F8
1208
2208
2208
2208
2208
4208
4208
8208
83F8
ENDCHAR
STARTCHAR 540F
ENCODING 21519
SWIDTH 765 0
DWIDTH 17 0
BBX 15 21 1 -1
BITMAP
0100
0100
0100
FFFE
0100
0100
3FF8
2108
2108
2108
2108
3FF8
0100
0300
1200
0E00
0600
0D80
0860
103C
6006
ENDCHAR
STARTCHAR 5410
ENCODING 21520
SWIDTH 720 0
DWIDTH 16 0
BBX 15 20 1 0
BITMAP
0040
0040
0040
F840
8840
8840
8840
8FFC
8840
8840
8840
8840
8840
8840
8840
8840
F840
0040
0040
07FE
ENDCHAR
STARTCHAR 5411
ENCODING 21521
SWIDTH 720 0
DWIDTH 16 0
BBX 12 21 2 -1
BITMAP
0400
0400
0800
FFF0
8010
8010
8010
8010
9F90
9090
9090
9090
9090
9090
9090
9F90
8010
8010
8010
8010
8010
ENDCHAR
STARTCHAR 5412
ENCODING 21522
SWIDTH 765 0
DWIDTH 17 0
BBX 15 21 1 -2
BITMAP
0008
0018
00E0
F340
9040
9040
9040
9040
9042
90FC
97C0
9040
9040
9040
9040
9040
F040
0040
0040
0044
007E
ENDCHAR
STARTCHAR 5413
ENCODING 21523
SWIDTH 720 0
DWIDTH 16 0
BBX 15 20 1 -3
BITMAP
07FE
F840
8840
8840
8840
8840
8850
8848
8848
8844
8842
8842
8840
8840
F840
0040
0040
0040
0040
0040
ENDCHAR
STARTCHAR 5415
ENCODING 21525
SWIDTH 765 0
DWIDTH 17 0
BBX 12 20 2 -1
BITMAP
3FC0
2040
2040
2040
2040
2040
2040
3FC0
0000
0000
0000
FFF0
8010
8010
8010
8010
8010
8010
8010
FFF0
ENDCHAR
STARTCHAR 5416
ENCODING 21526
SWIDTH 720 0
DWIDTH 16 0
BBX 14 21 1 -2
BITMAP
0004
040C
0208
F910
8910
88A0
8840
8840
8840
8840
8840
8840
8840
8840
8840
F840
0040
0040
0040
0040
0040
ENDCHAR
STARTCHAR 5417
ENCODING 21527
SWIDTH 720 0
DWIDTH 16 0
BBX 14 20 1 -2
BITMAP
01F8
F808
8908
8908
8908
8908
8908
8908
89FC
8804
8804
8804
8804
8FFC
F804
0004
0004
0004
0004
0004
ENDCHAR
STARTCHAR 541B
ENCODING 21531
SWIDTH 765 0
DWIDTH 17 0
BBX 15 20 1 -2
BITMAP
3FF0
0410
0410
0410
FFFE
0410
0810
0810
7FF0
0800
0800
1800
1FF8
2808
4808
8808
0808
0808
0808
0FF8
ENDCHAR
STARTCHAR 541D
ENCODING 21533
SWIDTH 810 0
DWIDTH 18 0
BBX 16 21 1 -1
BITMAP
0100
0100
7FFE
0830
0820
0440
0280
0100
0280
0460
081C
300F
CFF3
0810
0810
0810
0810
0810
0810
0810
0FF0
ENDCHAR
STARTCHAR 541E
ENCODING 21534
SWIDTH 765 0
DWIDTH 17 0
BBX 14 20 2 -2
BITMAP
3FF8
0200
0200
0200
0200
FFFC
0480
0840
0820
1010
2018
5FEC
9024
1020
1020
1020
1020
1020
1020
1FE0
ENDCHAR
STARTCHAR 541F
ENCODING 21535
SWIDTH 720 0
DWIDTH 16 0
BBX 15 22 1 -2
BITMAP
0040
0040
0060
F8A0
8890
8908
8A0C
8A46
8C22
8820
8800
8BF8
8808
8808
8810
8810
F810
0010
0020
0020
0020
0040
ENDCHAR
STARTCHAR 5420
ENCODING 21536
SWIDTH 720 0
DWIDTH 16 0
BBX 14 22 1 -1
BITMAP
0040
0050
0050
F848
8848
8840
8FFC
8840
8840
8860
8860
88A0
88A0
88A0
8890
8910
F910
0208
0208
040C
0404
0800
ENDCHAR
STARTCHAR 5421
ENCODING 21537
SWIDTH 765 0
DWIDTH 17 0
BBX 15 21 1 -3
BITMAP
0210
0210
0210
F210
9212
9212
9214
9394
9218
9210
9210
9210
9210
9210
9210
9210
F210
0210
0210
0212
021E
ENDCHAR
STARTCHAR 5423
ENCODING 21539
SWIDTH 720 0
DWIDTH 16 0
BBX 15 20 1 0
BITMAP
0040
0040
F820
8820
88A0
8880
8880
8880
8A84
8A84
8A84
8A82
8E82
8C82
8880
8880
F880
0080
0088
00FC
ENDCHAR
STARTCHAR 5426
ENCODING 21542
SWIDTH 720 0
DWIDTH 16 0
BBX 13 20 2 -2
BITMAP
FFF8
0600
0400
0E00
0A80
1240
3220
2210
C210
0208
0000
3FE0
2020
2020
2020
2020
2020
2020
2020
3FE0
ENDCHAR
STARTCHAR 5427
ENCODING 21543
SWIDTH 765 0
DWIDTH 17 0
BBX 15 20 1 -2
BITMAP
03FC
FA24
8A24
8A24
8A24
8A24
8A24
8BFC
8A00
8A00
8A00
8A00
8A00
8A00
FA00
0200
0200
0200
0204
01FE
ENDCHAR
STARTCHAR 5428
ENCODING 21544
SWIDTH 765 0
DWIDTH 17 0
BBX 15 21 1 -1
BITMAP
0040
0040
0040
F7FC
9040
9040
9040
9248
9248
9248
9248
9248
93F8
9040
9040
9040
F040
0040
0040
0044
003E
ENDCHAR
STARTCHAR 5429
ENCODING 21545
SWIDTH 720 0
DWIDTH 16 0
BBX 15 21 1 -1
BITMAP
0080
00A0
0090
F110
9110
9108
9208
9204
9406
97FA
9088
9088
9088
9088
9088
9108
F108
0108
0208
0408
0408
ENDCHAR
STARTCHAR 542B
ENCODING 21547
SWIDTH 765 0
DWIDTH 17 0
BBX 14 20 2 0
BITMAP
0200
0500
0880
1260
2330
411C
8004
3FC0
0040
0080
0080
0180
0000
3FE0
2020
2020
2020
2020
2020
3FE0
ENDCHAR
STARTCHAR 542C
ENCODING 21548
SWIDTH 765 0
DWIDTH 17 0
BBX 15 21 1 -3
BITMAP
000C
0030
F9C0
8900
8900
8900
8900
89FE
8910
8910
8910
8910
8910
8A10
8A10
FA10
0210
0410
0410
0810
0810
ENDCHAR
STARTCHAR 542D
ENCODING 21549
SWIDTH 720 0
DWIDTH 16 0
BBX 15 21 1 -2
BITMAP
0040
0040
0040
F7FC
9000
9000
91F0
9110
9110
9110
9110
9110
9110
9110
9110
9210
F210
0210
0410
0414
080E
ENDCHAR
STARTCHAR 542E
ENCODING 21550
SWIDTH 765 0
DWIDTH 17 0
BBX 15 22 1 -2
BITMAP
00C0
00C0
0080
F980
8900
8A10
8A08
8C3C
8FC4
8804
8920
8920
8920
8920
8920
8920
8A20
FA20
0220
0222
0422
001E
ENDCHAR
STARTCHAR 542F
ENCODING 21551
SWIDTH 720 0
DWIDTH 16 0
BBX 14 21 0 -1
BITMAP
0080
0080
1FFC
1004
1004
1004
1004
1FFC
1000
1000
1000
17FC
1404
1404
2404
2404
2404
4404
4404
87FC
8000
ENDCHAR
STARTCHAR 5431
ENCODING 21553
SWIDTH 720 0
DWIDTH 16 0
BBX 15 22 1 -2
BITMAP
0040
0040
0040
FFFC
8840
8840
8840
8840
8BF8
8918
8910
8910
88B0
88A0
88A0
8840
8860
F8A0
0110
020C
0406
0800
ENDCHAR
STARTCHAR 5432
ENCODING 21554
SWIDTH 720 0
DWIDTH 16 0
BBX 14 22 1 -2
BITMAP
0004
03E4
0024
F024
9024
9024
9024
93E4
9204
9204
9204
9204
93E4
9024
9024
9024
F024
0024
0024
0024
0024
0024
ENDCHAR
STARTCHAR 5434
ENCODING 21556
SWIDTH 765 0
DWIDTH 17 0
BBX 15 21 1 -2
BITMAP
1FF0
1010
1010
1010
1010
1FF0
0000
0000
0000
3FF8
0100
0100
0100
FFFE
0280
0280
0440
0C20
1818
200C
4006
ENDCHAR
STARTCHAR 5435
ENCODING 21557
SWIDTH 765 0
DWIDTH 17 0
BBX 15 21 1 -2
BITMAP
0020
0020
0020
F120
9128
9124
9224
9222
9222
9420
9024
9024
900C
9008
9018
9010
F020
0040
0080
0100
0600
ENDCHAR
STARTCHAR 5438
ENCODING 21560
SWIDTH 720 0
DWIDTH 16 0
BBX 15 20 1 -2
BITMAP
F7F8
9118
9118
9110
9130
9130
913C
9104
928C
9288
9288
9258
9250
9430
F420
0450
0898
088C
1106
0002
ENDCHAR
STARTCHAR 5439
ENCODING 21561
SWIDTH 720 0
DWIDTH 16 0
BBX 15 21 1 -2
BITMAP
0080
0080
0180
F9FC
8904
8908
8A48
8A48
8C40
8840
8840
8860
88A0
88A0
8890
8990
F918
0208
020C
0404
0806
ENDCHAR
STARTCHAR 543B
ENCODING 21563
SWIDTH 720 0
DWIDTH 16 0
BBX 14 21 1 -2
BITMAP
0100
0100
F100
91FC
92D4
9294
9494
9494
9094
9094
9124
9124
9224
9224
9444
9444
F0C4
0084
0104
0104
0204
ENDCHAR
STARTCHAR 543C
ENCODING 21564
SWIDTH 720 0
DWIDTH 16 0
BBX 15 21 1 -2
BITMAP
0010
07D0
0050
F090
9090
9190
9110
9110
9130
91D0
9310
9510
9110
9110
9110
9110
F110
0110
0110
0114
010E
ENDCHAR
STARTCHAR 543E
ENCODING 21566
SWIDTH 765 0
DWIDTH 17 0
BBX 15 20 1 -2
BITMAP
7FFC
0400
0400
0400
3FE0
0420
0420
0820
0820
FFFE
0000
0000
1FF0
1010
1010
1010
1010
1010
1010
1FF0
ENDCHAR
STARTCHAR 5440
ENCODING 21568
SWIDTH 720 0
DWIDTH 16 0
BBX 15 20 1 -3
BITMAP
03FE
F010
9010
9210
9210
9210
9210
93FE
9090
9090
9110
9110
9110
9210
F210
0210
0410
0810
0810
1010
ENDCHAR
STARTCHAR 5443
ENCODING 21571
SWIDTH 720 0
DWIDTH 16 0
BBX 15 19 1 -2
BITMAP
03FC
F200
9200
9200
927C
9244
9244
9244
9244
9244
9244
9244
9444
9444
F440
0440
0440
0844
087E
ENDCHAR
STARTCHAR 5446
ENCODING 21574
SWIDTH 810 0
DWIDTH 18 0
BBX 15 20 1 -2
BITMAP
1FF8
1008
1008
1008
1008
1FF8
0000
0080
0080
7FFE
04A0
04A0
0C90
0890
1888
1088
3084
2082
4082
8080
ENDCHAR
STARTCHAR 5448
ENCODING 21576
SWIDTH 810 0
DWIDTH 18 0
BBX 16 20 1 -2
BITMAP
1FF8
1018
1018
1018
1018
1FF8
0000
0000
0000
7FFC
0100
0100
0100
0100
1FF8
0100
0100
0100
0100
FFFF
ENDCHAR
STARTCHAR 544A
ENCODING 21578
SWIDTH 765 0
DWIDTH 17 0
BBX 15 21 1 -2
BITMAP
0100
1100
1100
1FF8
2100
2100
4100
4100
0100
FFFE
0000
0000
1FF0
1010
1010
1010
1010
1010
1010
1010
1FF0
ENDCHAR
STARTCHAR 544B
ENCODING 21579
SWIDTH 765 0
DWIDTH 17 0
BBX 15 22 1 -1
BITMAP
0040
0040
0040
F040
9040
93FC
9040
9040
9040
9040
97FE
9060
90A0
90A0
9090
9090
F108
0108
020C
0404
0402
0800
ENDCHAR
STARTCHAR 544E
ENCODING 21582
SWIDTH 720 0
DWIDTH 16 0
BBX 14 21 1 -2
BITMAP
03F8
FA08
8A08
8A08
8A08
8A08
8A08
8BF8
8A40
8A40
8A40
8A20
8A20
8A30
FC10
0410
0418
0408
080C
0804
0804
ENDCHAR
STARTCHAR 5450
ENCODING 21584
SWIDTH 720 0
DWIDTH 16 0
BBX 14 21 1 -2
BITMAP
0020
0020
0020
F020
93FC
9224
9224
9224
9224
9224
9254
9254
9294
928C
930C
9204
F204
0204
0204
0204
0204
ENDCHAR
STARTCHAR 5452
ENCODING 21586
SWIDTH 765 0
DWIDTH 17 0
BBX 15 20 1 -2
BITMAP
FBFC
8840
8840
8840
8840
8840
8FFE
8850
8850
8850
8890
8890
8890
8910
F910
0110
0210
0414
041E
0800
ENDCHAR
STARTCHAR 5453
ENCODING 21587
SWIDTH 765 0
DWIDTH 17 0
BBX 15 21 1 -1
BITMAP
0090
0090
0090
F7FE
9090
9090
9090
9000
93F8
9018
9010
9030
9060
9040
90C0
9180
F100
0300
0200
0204
03FE
ENDCHAR
STARTCHAR 5454
ENCODING 21588
SWIDTH 765 0
DWIDTH 17 0
BBX 15 21 1 -1
BITMAP
0040
0040
0040
F840
8840
8840
8FFC
88C0
88C0
88E0
88A0
88A0
8990
8990
8910
8918
FB08
028C
064C
0426
0826
ENDCHAR
STARTCHAR 5455
ENCODING 21589
SWIDTH 765 0
DWIDTH 17 0
BBX 15 20 1 -2
BITMAP
03FC
0200
F200
9204
920C
9288
9248
9248
9230
9230
9210
9230
9228
9248
9244
F284
0300
0300
0200
03FE
ENDCHAR
STARTCHAR 5456
ENCODING 21590
SWIDTH 720 0
DWIDTH 16 0
BBX 15 20 1 -2
BITMAP
03FE
FA20
8A20
8A20
8A20
8AFC
8A24
8A24
8A24
8A24
8A24
8A24
8A44
8A44
FA44
0484
0484
0504
0504
0200
ENDCHAR
STARTCHAR 5457
ENCODING 21591
SWIDTH 765 0
DWIDTH 17 0
BBX 15 19 1 -1
BITMAP
F3FC
9204
9244
9244
9244
9244
9244
9244
9244
9244
9244
9284
9284
F080
0110
0108
0204
0402
0002
ENDCHAR
STARTCHAR 5458
ENCODING 21592
SWIDTH 720 0
DWIDTH 16 0
BBX 13 21 2 -2
BITMAP
3FC0
2040
2040
2040
2040
3FC0
0000
0000
7FE0
4020
4220
4220
4220
4220
4420
4420
0500
08C0
1020
2010
C018
ENDCHAR
STARTCHAR 5459
ENCODING 21593
SWIDTH 765 0
DWIDTH 17 0
BBX 12 21 3 -3
BITMAP
7FC0
4040
4040
4040
4040
7FC0
0400
0400
0400
FFF0
8410
8410
8C10
8A10
8910
9090
A0D0
8010
8010
8010
8010
ENDCHAR
STARTCHAR 545B
ENCODING 21595
SWIDTH 720 0
DWIDTH 16 0
BBX 15 21 1 -2
BITMAP
0020
0060
0050
F890
8988
8904
8A06
8C02
89F8
8908
8908
8908
8908
8908
8908
8900
F900
0100
0100
0104
00FE
ENDCHAR
STARTCHAR 545C
ENCODING 21596
SWIDTH 720 0
DWIDTH 16 0
BBX 14 20 1 -1
BITMAP
0040
0080
FBF8
8A08
8A08
8A08
8A08
8A08
8A00
8BFC
8804
8804
8804
8804
8FFC
F804
0004
0004
0004
0004
ENDCHAR
STARTCHAR 5462
ENCODING 21602
SWIDTH 765 0
DWIDTH 17 0
BBX 15 19 1 -2
BITMAP
F3FC
9204
9204
9204
93FC
9200
9240
9240
9244
9248
9250
9260
9440
F440
0440
0440
0840
0844
007E
ENDCHAR
STARTCHAR 5464
ENCODING 21604
SWIDTH 765 0
DWIDTH 17 0
BBX 15 21 1 -2
BITMAP
0040
0040
F8A0
8890
8908
890C
8A46
8C40
8820
8800
89FC
880C
8808
8818
8910
F8A0
00A0
0040
0020
0020
0010
ENDCHAR
STARTCHAR 5466
ENCODING 21606
SWIDTH 765 0
DWIDTH 17 0
BBX 15 22 1 -3
BITMAP
0110
0110
0210
F210
9210
923E
9492
9492
9912
9712
9112
9212
9212
9312
9522
9522
F8A2
07A2
00C2
0042
0082
0002
ENDCHAR
STARTCHAR 5468
ENCODING 21608
SWIDTH 765 0
DWIDTH 17 0
BBX 14 20 1 -2
BITMAP
3FFC
2104
2104
2104
2FE4
2104
2104
3FF4
2004
2004
2004
27E4
2424
2424
4424
4424
47E4
4004
8004
8004
ENDCHAR
STARTCHAR 546F
ENCODING 21615
SWIDTH 720 0
DWIDTH 16 0
BBX 15 20 1 -3
BITMAP
FBFE
8820
8A24
8A24
892C
8928
88B0
8830
8820
8FFE
8820
8820
8820
F820
0020
0020
0020
0020
0020
0020
ENDCHAR
STARTCHAR 5471
ENCODING 21617
SWIDTH 765 0
DWIDTH 17 0
BBX 15 21 1 -3
BITMAP
001C
03F0
F250
9250
9248
9248
9248
9248
9248
9248
9248
9248
9248
9244
9444
F444
0454
0494
089A
08EA
008A
ENDCHAR
STARTCHAR 5472
ENCODING 21618
SWIDTH 765 0
DWIDTH 17 0
BBX 15 21 1 -1
BITMAP
0090
0090
F090
9090
9492
9492
9494
94F8
9498
9490
9490
9490
9490
9490
9490
9490
F4B0
04D0
0712
0E1E
0800
ENDCHAR
STARTCHAR 5473
ENCODING 21619
SWIDTH 765 0
DWIDTH 17 0
BBX 15 22 1 -3
BITMAP
0040
0040
0040
F840
8BFC
8840
8840
8840
8FFC
8950
8950
8950
8950
8A48
8A48
FA48
0444
0444
0446
0842
0840
0040
ENDCHAR
STARTCHAR 5475
ENCODING 21621
SWIDTH 720 0
DWIDTH 16 0
BBX 15 20 1 -2
BITMAP
07FE
F004
9004
9004
93E4
9224
9224
9224
9224
9224
9224
9224
9224
93E4
F004
0004
0004
0004
0004
0004
ENDCHAR
STARTCHAR 5476
ENCODING 21622
SWIDTH 720 0
DWIDTH 16 0
BBX 15 21 1 -1
BITMAP
0200
027C
F224
9224
9FA4
94A4
94A4
94A4
9498
9498
9518
9518
9318
9118
9318
F2A8
04E4
0424
0844
0882
0082
ENDCHAR
STARTCHAR 5477
ENCODING 21623
SWIDTH 720 0
DWIDTH 16 0
BBX 14 20 1 -2
BITMAP
03FC
FA24
8A24
8A24
8A24
8BFC
8A24
8A24
8A24
8A24
8BFC
8820
8820
8820
F820
0020
0020
0020
0020
0020
ENDCHAR
STARTCHAR 5478
ENCODING 21624
SWIDTH 720 0
DWIDTH 16 0
BBX 15 20 1 -2
BITMAP
FBFE
8820
8840
8840
8860
8860
88B0
88A8
8928
8924
8A26
8C22
8C20
8820
F820
0020
0020
0000
0000
07FE
ENDCHAR
STARTCHAR 547B
ENCODING 21627
SWIDTH 720 0
DWIDTH 16 0
BBX 14 22 1 -2
BITMAP
0040
0040
0040
F040
93FC
9244
9244
9244
9244
93FC
9244
9244
9244
9244
93FC
9040
F040
0040
0040
0040
0040
0040
ENDCHAR
STARTCHAR 547C
ENCODING 21628
SWIDTH 765 0
DWIDTH 17 0
BBX 15 21 1 -2
BITMAP
0004
0078
F3C0
9040
9044
9244
9248
9150
9150
9040
97FE
9040
9040
9040
9040
9040
F040
0040
0040
0040
0040
ENDCHAR
STARTCHAR 547D
ENCODING 21629
SWIDTH 765 0
DWIDTH 17 0
BBX 16 21 0 -1
BITMAP
0100
0300
0280
0440
0830
1008
2FE6
4003
8000
007C
3E44
2244
2244
2244
2244
2244
2244
3E44
0040
0040
0040
ENDCHAR
STARTCHAR 5480
ENCODING 21632
SWIDTH 720 0
DWIDTH 16 0
BBX 15 20 1 -2
BITMAP
01F8
0108
F908
8908
8908
8908
89F8
8908
8908
8908
8908
8908
89F8
8908
8908
F908
0108
0108
0108
07FE
ENDCHAR
STARTCHAR 5482
ENCODING 21634
SWIDTH 765 0
DWIDTH 17 0
BBX 15 20 1 -1
BITMAP
03FC
F200
9210
9210
9210
92FC
9294
9294
9294
9294
9294
9294
9294
9294
9210
F210
0210
0210
0200
03FE
ENDCHAR
STARTCHAR 5484
ENCODING 21636
SWIDTH 720 0
DWIDTH 16 0
BBX 14 21 1 -2
BITMAP
0020
0020
0020
0224
F224
9224
9224
9224
9224
93FC
9020
9020
9224
9224
9224
9224
F224
0224
0224
0224
03FC
ENDCHAR
STARTCHAR 5486
ENCODING 21638
SWIDTH 765 0
DWIDTH 17 0
BBX 15 20 1 -1
BITMAP
0100
0100
F9FC
8904
8A04
8C04
8DE4
8924
8924
8924
8924
89E4
8904
8904
8904
F900
0100
0102
0102
01FE
ENDCHAR
STARTCHAR 548B
ENCODING 21643
SWIDTH 765 0
DWIDTH 17 0
BBX 15 21 1 -1
BITMAP
0080
0080
0180
F1FE
9140
9240
9240
9440
907C
9040
9040
9040
9040
907E
9040
9040
F040
0040
0040
0040
0040
ENDCHAR
STARTCHAR 548C
ENCODING 21644
SWIDTH 720 0
DWIDTH 16 0
BBX 15 21 0 -1
BITMAP
0300
1C00
287E
0842
0842
0842
FF42
2842
2842
2C42
2A42
2942
4942
4842
4842
4842
8842
8842
0842
087E
0800
ENDCHAR
STARTCHAR 548E
ENCODING 21646
SWIDTH 765 0
DWIDTH 17 0
BBX 15 21 1 -2
BITMAP
0820
0820
0820
1F20
1138
3124
3222
0A22
0420
0E00
0B00
11FE
2000
CFF8
0808
0808
0808
0808
0808
0808
0FF8
ENDCHAR
STARTCHAR 548F
ENCODING 21647
SWIDTH 720 0
DWIDTH 16 0
BBX 15 21 1 -3
BITMAP
0080
0040
0060
F000
93C0
9044
9048
9750
9160
9160
9160
9250
9250
9250
9248
9248
F448
0444
0444
0042
0040
ENDCHAR
STARTCHAR 5490
ENCODING 21648
SWIDTH 720 0
DWIDTH 16 0
BBX 15 22 1 -2
BITMAP
0188
0108
0108
F108
9208
9208
96FE
9608
9A08
9208
9248
9248
9248
9208
9208
9208
F208
0208
0208
0208
0208
0208
ENDCHAR
STARTCHAR 5492
ENCODING 21650
SWIDTH 765 0
DWIDTH 17 0
BBX 15 20 1 -2
BITMAP
7CF8
4488
4488
4488
4488
7CF8
0000
0000
0FC0
0840
0840
0840
0840
0840
1040
1040
1040
2040
4044
807E
ENDCHAR
STARTCHAR 5494
ENCODING 21652
SWIDTH 765 0
DWIDTH 17 0
BBX 15 22 1 -1
BITMAP
0040
0040
0040
F840
887C
8840
8840
8840
8FFE
8800
8840
8840
8840
8850
8848
8848
8844
F844
0040
0040
0040
0040
ENDCHAR
STARTCHAR 5495
ENCODING 21653
SWIDTH 765 0
DWIDTH 17 0
BBX 15 21 1 -1
BITMAP
0020
0020
0020
F820
8FFE
8820
8820
8820
8820
8820
89FC
8904
8904
8904
8904
8904
F904
0104
0104
0104
01FC
ENDCHAR
STARTCHAR 5496
ENCODING 21654
SWIDTH 765 0
DWIDTH 17 0
BBX 15 22 1 -2
BITMAP
0200
0200
0200
0200
F21E
97D2
9252
9252
9252
9252
9252
9252
9452
9452
9452
9452
9452
F452
0452
0852
085E
0040
ENDCHAR
STARTCHAR 5499
ENCODING 21657
SWIDTH 765 0
DWIDTH 17 0
BBX 15 22 1 -3
BITMAP
0080
00A0
0090
F888
8880
8FFE
88A0
88A0
88A4
88A4
88A4
89A8
8928
8930
8930
8A20
FA60
06A0
0522
0822
083E
1000
ENDCHAR
STARTCHAR 549A
ENCODING 21658
SWIDTH 720 0
DWIDTH 16 0
BBX 15 21 1 -1
BITMAP
0080
0080
F0F8
9090
9190
9150
9260
9020
9060
9090
9088
9304
9042
9020
9030
F010
0080
0040
0020
0030
0010
ENDCHAR
STARTCHAR 549B
ENCODING 21659
SWIDTH 765 0
DWIDTH 17 0
BBX 15 21 1 -1
BITMAP
0020
0020
FBFC
8A04
8A04
8A04
8800
8FFE
8820
8820
8820
8820
8820
8820
8820
8820
F820
0020
0020
0020
0020
ENDCHAR
STARTCHAR 549D
ENCODING 21661
SWIDTH 765 0
DWIDTH 17 0
BBX 15 21 1 -2
BITMAP
0108
0108
0108
F210
9210
9294
9294
94A4
95AC
96B8
9108
9108
9108
9210
9210
94A2
F73C
0000
0000
0000
0FFE
ENDCHAR
STARTCHAR 54A3
ENCODING 21667
SWIDTH 765 0
DWIDTH 17 0
BBX 15 21 1 -1
BITMAP
0040
0040
0440
FA48
8B48
8950
8950
8840
8FFE
8890
8890
8890
8890
8890
8910
8910
F910
0110
0210
0212
041E
ENDCHAR
ENDFONT
